ISO-10303-21;
HEADER;
/* Generated by software containing ST-Developer
 * from STEP Tools, Inc. (www.steptools.com) 
 */

FILE_DESCRIPTION(
/* description */ (''),
/* implementation_level */ '2;1');

FILE_NAME(
/* name */ 'Aufsatz Baseplate.step',
/* time_stamp */ '2026-08-12T11:15:51+02:00',
/* author */ (''),
/* organization */ (''),
/* preprocessor_version */ 'ST-DEVELOPER v20.1',
/* originating_system */ 'Autodesk Translation Framework v15.8.0.0',
/* authorisation */ '');

FILE_SCHEMA (('AUTOMOTIVE_DESIGN { 1 0 10303 214 3 1 1 }'));
ENDSEC;

DATA;
#10=MECHANICAL_DESIGN_GEOMETRIC_PRESENTATION_REPRESENTATION('',(#13),#467);
#11=SHAPE_REPRESENTATION_RELATIONSHIP('SRR','None',#474,#12);
#12=ADVANCED_BREP_SHAPE_REPRESENTATION('',(#14),#466);
#13=STYLED_ITEM('',(#483),#14);
#14=MANIFOLD_SOLID_BREP('Body1',#279);
#15=FACE_BOUND('',#49,.T.);
#16=FACE_BOUND('',#52,.T.);
#17=FACE_BOUND('',#54,.T.);
#18=FACE_BOUND('',#58,.T.);
#19=FACE_BOUND('',#62,.T.);
#20=FACE_BOUND('',#64,.T.);
#21=PLANE('',#302);
#22=PLANE('',#303);
#23=PLANE('',#304);
#24=PLANE('',#305);
#25=PLANE('',#309);
#26=PLANE('',#310);
#27=PLANE('',#311);
#28=PLANE('',#312);
#29=PLANE('',#313);
#30=PLANE('',#314);
#31=FACE_OUTER_BOUND('',#45,.T.);
#32=FACE_OUTER_BOUND('',#46,.T.);
#33=FACE_OUTER_BOUND('',#47,.T.);
#34=FACE_OUTER_BOUND('',#48,.T.);
#35=FACE_OUTER_BOUND('',#50,.T.);
#36=FACE_OUTER_BOUND('',#51,.T.);
#37=FACE_OUTER_BOUND('',#53,.T.);
#38=FACE_OUTER_BOUND('',#55,.T.);
#39=FACE_OUTER_BOUND('',#56,.T.);
#40=FACE_OUTER_BOUND('',#57,.T.);
#41=FACE_OUTER_BOUND('',#59,.T.);
#42=FACE_OUTER_BOUND('',#60,.T.);
#43=FACE_OUTER_BOUND('',#61,.T.);
#44=FACE_OUTER_BOUND('',#63,.T.);
#45=EDGE_LOOP('',(#189,#190,#191,#192));
#46=EDGE_LOOP('',(#193,#194,#195,#196));
#47=EDGE_LOOP('',(#197,#198,#199,#200));
#48=EDGE_LOOP('',(#201,#202,#203,#204));
#49=EDGE_LOOP('',(#205));
#50=EDGE_LOOP('',(#206,#207,#208,#209,#210,#211,#212));
#51=EDGE_LOOP('',(#213,#214,#215,#216));
#52=EDGE_LOOP('',(#217));
#53=EDGE_LOOP('',(#218,#219,#220,#221));
#54=EDGE_LOOP('',(#222));
#55=EDGE_LOOP('',(#223,#224,#225,#226));
#56=EDGE_LOOP('',(#227,#228,#229,#230,#231,#232));
#57=EDGE_LOOP('',(#233,#234,#235,#236));
#58=EDGE_LOOP('',(#237));
#59=EDGE_LOOP('',(#238,#239,#240,#241,#242,#243));
#60=EDGE_LOOP('',(#244,#245,#246,#247));
#61=EDGE_LOOP('',(#248,#249,#250,#251,#252));
#62=EDGE_LOOP('',(#253));
#63=EDGE_LOOP('',(#254,#255,#256,#257,#258,#259));
#64=EDGE_LOOP('',(#260));
#65=LINE('',#394,#93);
#66=LINE('',#400,#94);
#67=LINE('',#407,#95);
#68=LINE('',#410,#96);
#69=LINE('',#413,#97);
#70=LINE('',#415,#98);
#71=LINE('',#416,#99);
#72=LINE('',#419,#100);
#73=LINE('',#421,#101);
#74=LINE('',#423,#102);
#75=LINE('',#425,#103);
#76=LINE('',#426,#104);
#77=LINE('',#430,#105);
#78=LINE('',#431,#106);
#79=LINE('',#432,#107);
#80=LINE('',#435,#108);
#81=LINE('',#436,#109);
#82=LINE('',#441,#110);
#83=LINE('',#446,#111);
#84=LINE('',#448,#112);
#85=LINE('',#449,#113);
#86=LINE('',#450,#114);
#87=LINE('',#452,#115);
#88=LINE('',#455,#116);
#89=LINE('',#457,#117);
#90=LINE('',#458,#118);
#91=LINE('',#460,#119);
#92=LINE('',#461,#120);
#93=VECTOR('',#321,7.5);
#94=VECTOR('',#328,7.50000000000001);
#95=VECTOR('',#335,10.);
#96=VECTOR('',#338,10.);
#97=VECTOR('',#341,10.);
#98=VECTOR('',#342,10.);
#99=VECTOR('',#343,10.);
#100=VECTOR('',#346,10.);
#101=VECTOR('',#347,10.);
#102=VECTOR('',#348,10.);
#103=VECTOR('',#349,10.);
#104=VECTOR('',#350,10.);
#105=VECTOR('',#353,10.);
#106=VECTOR('',#354,10.);
#107=VECTOR('',#355,10.);
#108=VECTOR('',#358,10.);
#109=VECTOR('',#359,10.);
#110=VECTOR('',#364,15.);
#111=VECTOR('',#369,10.);
#112=VECTOR('',#370,10.);
#113=VECTOR('',#371,10.);
#114=VECTOR('',#372,10.);
#115=VECTOR('',#375,10.);
#116=VECTOR('',#378,10.);
#117=VECTOR('',#379,10.);
#118=VECTOR('',#380,10.);
#119=VECTOR('',#383,10.);
#120=VECTOR('',#384,10.);
#121=CIRCLE('',#294,7.5);
#122=CIRCLE('',#295,7.5);
#123=CIRCLE('',#297,7.50000000000001);
#124=CIRCLE('',#298,7.50000000000001);
#125=CIRCLE('',#300,4.);
#126=CIRCLE('',#301,4.);
#127=CIRCLE('',#307,15.);
#128=CIRCLE('',#308,15.);
#129=VERTEX_POINT('',#391);
#130=VERTEX_POINT('',#393);
#131=VERTEX_POINT('',#397);
#132=VERTEX_POINT('',#399);
#133=VERTEX_POINT('',#403);
#134=VERTEX_POINT('',#404);
#135=VERTEX_POINT('',#406);
#136=VERTEX_POINT('',#408);
#137=VERTEX_POINT('',#412);
#138=VERTEX_POINT('',#414);
#139=VERTEX_POINT('',#418);
#140=VERTEX_POINT('',#420);
#141=VERTEX_POINT('',#422);
#142=VERTEX_POINT('',#424);
#143=VERTEX_POINT('',#428);
#144=VERTEX_POINT('',#429);
#145=VERTEX_POINT('',#434);
#146=VERTEX_POINT('',#438);
#147=VERTEX_POINT('',#440);
#148=VERTEX_POINT('',#444);
#149=VERTEX_POINT('',#445);
#150=VERTEX_POINT('',#447);
#151=VERTEX_POINT('',#454);
#152=VERTEX_POINT('',#456);
#153=EDGE_CURVE('',#129,#129,#121,.T.);
#154=EDGE_CURVE('',#129,#130,#65,.T.);
#155=EDGE_CURVE('',#130,#130,#122,.T.);
#156=EDGE_CURVE('',#131,#131,#123,.T.);
#157=EDGE_CURVE('',#131,#132,#66,.T.);
#158=EDGE_CURVE('',#132,#132,#124,.T.);
#159=EDGE_CURVE('',#133,#134,#125,.T.);
#160=EDGE_CURVE('',#134,#135,#67,.T.);
#161=EDGE_CURVE('',#135,#136,#126,.T.);
#162=EDGE_CURVE('',#136,#133,#68,.T.);
#163=EDGE_CURVE('',#137,#134,#69,.T.);
#164=EDGE_CURVE('',#138,#137,#70,.T.);
#165=EDGE_CURVE('',#138,#135,#71,.T.);
#166=EDGE_CURVE('',#133,#139,#72,.T.);
#167=EDGE_CURVE('',#139,#140,#73,.T.);
#168=EDGE_CURVE('',#140,#141,#74,.T.);
#169=EDGE_CURVE('',#141,#142,#75,.T.);
#170=EDGE_CURVE('',#142,#137,#76,.T.);
#171=EDGE_CURVE('',#143,#144,#77,.T.);
#172=EDGE_CURVE('',#143,#142,#78,.T.);
#173=EDGE_CURVE('',#144,#141,#79,.T.);
#174=EDGE_CURVE('',#144,#145,#80,.T.);
#175=EDGE_CURVE('',#145,#140,#81,.T.);
#176=EDGE_CURVE('',#146,#146,#127,.T.);
#177=EDGE_CURVE('',#146,#147,#82,.T.);
#178=EDGE_CURVE('',#147,#147,#128,.T.);
#179=EDGE_CURVE('',#148,#149,#83,.T.);
#180=EDGE_CURVE('',#149,#150,#84,.T.);
#181=EDGE_CURVE('',#145,#150,#85,.T.);
#182=EDGE_CURVE('',#148,#139,#86,.T.);
#183=EDGE_CURVE('',#136,#148,#87,.T.);
#184=EDGE_CURVE('',#151,#138,#88,.T.);
#185=EDGE_CURVE('',#152,#143,#89,.T.);
#186=EDGE_CURVE('',#151,#152,#90,.T.);
#187=EDGE_CURVE('',#149,#151,#91,.T.);
#188=EDGE_CURVE('',#150,#152,#92,.T.);
#189=ORIENTED_EDGE('',*,*,#153,.F.);
#190=ORIENTED_EDGE('',*,*,#154,.T.);
#191=ORIENTED_EDGE('',*,*,#155,.F.);
#192=ORIENTED_EDGE('',*,*,#154,.F.);
#193=ORIENTED_EDGE('',*,*,#156,.F.);
#194=ORIENTED_EDGE('',*,*,#157,.T.);
#195=ORIENTED_EDGE('',*,*,#158,.F.);
#196=ORIENTED_EDGE('',*,*,#157,.F.);
#197=ORIENTED_EDGE('',*,*,#159,.T.);
#198=ORIENTED_EDGE('',*,*,#160,.T.);
#199=ORIENTED_EDGE('',*,*,#161,.T.);
#200=ORIENTED_EDGE('',*,*,#162,.T.);
#201=ORIENTED_EDGE('',*,*,#160,.F.);
#202=ORIENTED_EDGE('',*,*,#163,.F.);
#203=ORIENTED_EDGE('',*,*,#164,.F.);
#204=ORIENTED_EDGE('',*,*,#165,.T.);
#205=ORIENTED_EDGE('',*,*,#156,.T.);
#206=ORIENTED_EDGE('',*,*,#159,.F.);
#207=ORIENTED_EDGE('',*,*,#166,.T.);
#208=ORIENTED_EDGE('',*,*,#167,.T.);
#209=ORIENTED_EDGE('',*,*,#168,.T.);
#210=ORIENTED_EDGE('',*,*,#169,.T.);
#211=ORIENTED_EDGE('',*,*,#170,.T.);
#212=ORIENTED_EDGE('',*,*,#163,.T.);
#213=ORIENTED_EDGE('',*,*,#171,.F.);
#214=ORIENTED_EDGE('',*,*,#172,.T.);
#215=ORIENTED_EDGE('',*,*,#169,.F.);
#216=ORIENTED_EDGE('',*,*,#173,.F.);
#217=ORIENTED_EDGE('',*,*,#158,.T.);
#218=ORIENTED_EDGE('',*,*,#174,.F.);
#219=ORIENTED_EDGE('',*,*,#173,.T.);
#220=ORIENTED_EDGE('',*,*,#168,.F.);
#221=ORIENTED_EDGE('',*,*,#175,.F.);
#222=ORIENTED_EDGE('',*,*,#153,.T.);
#223=ORIENTED_EDGE('',*,*,#176,.F.);
#224=ORIENTED_EDGE('',*,*,#177,.T.);
#225=ORIENTED_EDGE('',*,*,#178,.T.);
#226=ORIENTED_EDGE('',*,*,#177,.F.);
#227=ORIENTED_EDGE('',*,*,#179,.T.);
#228=ORIENTED_EDGE('',*,*,#180,.T.);
#229=ORIENTED_EDGE('',*,*,#181,.F.);
#230=ORIENTED_EDGE('',*,*,#175,.T.);
#231=ORIENTED_EDGE('',*,*,#167,.F.);
#232=ORIENTED_EDGE('',*,*,#182,.F.);
#233=ORIENTED_EDGE('',*,*,#162,.F.);
#234=ORIENTED_EDGE('',*,*,#183,.T.);
#235=ORIENTED_EDGE('',*,*,#182,.T.);
#236=ORIENTED_EDGE('',*,*,#166,.F.);
#237=ORIENTED_EDGE('',*,*,#155,.T.);
#238=ORIENTED_EDGE('',*,*,#184,.T.);
#239=ORIENTED_EDGE('',*,*,#164,.T.);
#240=ORIENTED_EDGE('',*,*,#170,.F.);
#241=ORIENTED_EDGE('',*,*,#172,.F.);
#242=ORIENTED_EDGE('',*,*,#185,.F.);
#243=ORIENTED_EDGE('',*,*,#186,.F.);
#244=ORIENTED_EDGE('',*,*,#187,.T.);
#245=ORIENTED_EDGE('',*,*,#186,.T.);
#246=ORIENTED_EDGE('',*,*,#188,.F.);
#247=ORIENTED_EDGE('',*,*,#180,.F.);
#248=ORIENTED_EDGE('',*,*,#174,.T.);
#249=ORIENTED_EDGE('',*,*,#181,.T.);
#250=ORIENTED_EDGE('',*,*,#188,.T.);
#251=ORIENTED_EDGE('',*,*,#185,.T.);
#252=ORIENTED_EDGE('',*,*,#171,.T.);
#253=ORIENTED_EDGE('',*,*,#176,.T.);
#254=ORIENTED_EDGE('',*,*,#161,.F.);
#255=ORIENTED_EDGE('',*,*,#165,.F.);
#256=ORIENTED_EDGE('',*,*,#184,.F.);
#257=ORIENTED_EDGE('',*,*,#187,.F.);
#258=ORIENTED_EDGE('',*,*,#179,.F.);
#259=ORIENTED_EDGE('',*,*,#183,.F.);
#260=ORIENTED_EDGE('',*,*,#178,.F.);
#261=CYLINDRICAL_SURFACE('',#293,7.5);
#262=CYLINDRICAL_SURFACE('',#296,7.50000000000001);
#263=CYLINDRICAL_SURFACE('',#299,4.);
#264=CYLINDRICAL_SURFACE('',#306,15.);
#265=ADVANCED_FACE('',(#31),#261,.F.);
#266=ADVANCED_FACE('',(#32),#262,.F.);
#267=ADVANCED_FACE('',(#33),#263,.T.);
#268=ADVANCED_FACE('',(#34,#15),#21,.T.);
#269=ADVANCED_FACE('',(#35),#22,.T.);
#270=ADVANCED_FACE('',(#36,#16),#23,.T.);
#271=ADVANCED_FACE('',(#37,#17),#24,.T.);
#272=ADVANCED_FACE('',(#38),#264,.F.);
#273=ADVANCED_FACE('',(#39),#25,.T.);
#274=ADVANCED_FACE('',(#40,#18),#26,.T.);
#275=ADVANCED_FACE('',(#41),#27,.T.);
#276=ADVANCED_FACE('',(#42),#28,.T.);
#277=ADVANCED_FACE('',(#43,#19),#29,.T.);
#278=ADVANCED_FACE('',(#44,#20),#30,.F.);
#279=CLOSED_SHELL('',(#265,#266,#267,#268,#269,#270,#271,#272,#273,#274,
#275,#276,#277,#278));
#280=DERIVED_UNIT_ELEMENT(#282,1.);
#281=DERIVED_UNIT_ELEMENT(#469,-3.);
#282=(
MASS_UNIT()
NAMED_UNIT(*)
SI_UNIT(.KILO.,.GRAM.)
);
#283=DERIVED_UNIT((#280,#281));
#284=MEASURE_REPRESENTATION_ITEM('density measure',
POSITIVE_RATIO_MEASURE(7850.),#283);
#285=PROPERTY_DEFINITION_REPRESENTATION(#290,#287);
#286=PROPERTY_DEFINITION_REPRESENTATION(#291,#288);
#287=REPRESENTATION('material name',(#289),#466);
#288=REPRESENTATION('density',(#284),#466);
#289=DESCRIPTIVE_REPRESENTATION_ITEM('Steel','Steel');
#290=PROPERTY_DEFINITION('material property','material name',#476);
#291=PROPERTY_DEFINITION('material property','density of part',#476);
#292=AXIS2_PLACEMENT_3D('',#389,#315,#316);
#293=AXIS2_PLACEMENT_3D('',#390,#317,#318);
#294=AXIS2_PLACEMENT_3D('',#392,#319,#320);
#295=AXIS2_PLACEMENT_3D('',#395,#322,#323);
#296=AXIS2_PLACEMENT_3D('',#396,#324,#325);
#297=AXIS2_PLACEMENT_3D('',#398,#326,#327);
#298=AXIS2_PLACEMENT_3D('',#401,#329,#330);
#299=AXIS2_PLACEMENT_3D('',#402,#331,#332);
#300=AXIS2_PLACEMENT_3D('',#405,#333,#334);
#301=AXIS2_PLACEMENT_3D('',#409,#336,#337);
#302=AXIS2_PLACEMENT_3D('',#411,#339,#340);
#303=AXIS2_PLACEMENT_3D('',#417,#344,#345);
#304=AXIS2_PLACEMENT_3D('',#427,#351,#352);
#305=AXIS2_PLACEMENT_3D('',#433,#356,#357);
#306=AXIS2_PLACEMENT_3D('',#437,#360,#361);
#307=AXIS2_PLACEMENT_3D('',#439,#362,#363);
#308=AXIS2_PLACEMENT_3D('',#442,#365,#366);
#309=AXIS2_PLACEMENT_3D('',#443,#367,#368);
#310=AXIS2_PLACEMENT_3D('',#451,#373,#374);
#311=AXIS2_PLACEMENT_3D('',#453,#376,#377);
#312=AXIS2_PLACEMENT_3D('',#459,#381,#382);
#313=AXIS2_PLACEMENT_3D('',#462,#385,#386);
#314=AXIS2_PLACEMENT_3D('',#463,#387,#388);
#315=DIRECTION('axis',(0.,0.,1.));
#316=DIRECTION('refdir',(1.,0.,0.));
#317=DIRECTION('center_axis',(0.,1.,0.));
#318=DIRECTION('ref_axis',(1.,0.,0.));
#319=DIRECTION('center_axis',(0.,1.,0.));
#320=DIRECTION('ref_axis',(1.,0.,0.));
#321=DIRECTION('',(0.,1.,0.));
#322=DIRECTION('center_axis',(0.,-1.,0.));
#323=DIRECTION('ref_axis',(1.,0.,0.));
#324=DIRECTION('center_axis',(-1.,0.,0.));
#325=DIRECTION('ref_axis',(0.,1.,0.));
#326=DIRECTION('center_axis',(-1.,0.,0.));
#327=DIRECTION('ref_axis',(0.,1.,0.));
#328=DIRECTION('',(-1.,0.,0.));
#329=DIRECTION('center_axis',(1.,0.,0.));
#330=DIRECTION('ref_axis',(0.,1.,0.));
#331=DIRECTION('center_axis',(0.,0.,1.));
#332=DIRECTION('ref_axis',(0.707106781186548,0.707106781186548,0.));
#333=DIRECTION('center_axis',(0.,0.,-1.));
#334=DIRECTION('ref_axis',(0.707106781186548,0.707106781186548,0.));
#335=DIRECTION('',(0.,0.,-1.));
#336=DIRECTION('center_axis',(0.,0.,1.));
#337=DIRECTION('ref_axis',(0.707106781186548,0.707106781186548,0.));
#338=DIRECTION('',(0.,0.,1.));
#339=DIRECTION('center_axis',(1.,0.,0.));
#340=DIRECTION('ref_axis',(0.,1.,0.));
#341=DIRECTION('',(0.,1.,0.));
#342=DIRECTION('',(0.,0.,1.));
#343=DIRECTION('',(0.,1.,0.));
#344=DIRECTION('center_axis',(0.,0.,1.));
#345=DIRECTION('ref_axis',(1.,0.,0.));
#346=DIRECTION('',(-1.,0.,0.));
#347=DIRECTION('',(0.,-1.,0.));
#348=DIRECTION('',(1.,0.,0.));
#349=DIRECTION('',(0.,-1.,0.));
#350=DIRECTION('',(1.,0.,0.));
#351=DIRECTION('center_axis',(-1.,0.,0.));
#352=DIRECTION('ref_axis',(0.,-1.,0.));
#353=DIRECTION('',(0.,1.,0.));
#354=DIRECTION('',(0.,0.,1.));
#355=DIRECTION('',(0.,0.,1.));
#356=DIRECTION('center_axis',(0.,-1.,0.));
#357=DIRECTION('ref_axis',(1.,0.,0.));
#358=DIRECTION('',(-1.,0.,0.));
#359=DIRECTION('',(0.,0.,1.));
#360=DIRECTION('center_axis',(0.,0.,1.));
#361=DIRECTION('ref_axis',(1.,0.,0.));
#362=DIRECTION('center_axis',(0.,0.,-1.));
#363=DIRECTION('ref_axis',(1.,0.,0.));
#364=DIRECTION('',(0.,0.,-1.));
#365=DIRECTION('center_axis',(0.,0.,-1.));
#366=DIRECTION('ref_axis',(1.,0.,0.));
#367=DIRECTION('center_axis',(-1.,0.,0.));
#368=DIRECTION('ref_axis',(0.,-1.,0.));
#369=DIRECTION('',(0.,-1.,0.));
#370=DIRECTION('',(0.,0.,1.));
#371=DIRECTION('',(0.,-1.,0.));
#372=DIRECTION('',(0.,0.,1.));
#373=DIRECTION('center_axis',(0.,1.,0.));
#374=DIRECTION('ref_axis',(-1.,0.,0.));
#375=DIRECTION('',(-1.,0.,0.));
#376=DIRECTION('center_axis',(0.,-1.,0.));
#377=DIRECTION('ref_axis',(1.,0.,0.));
#378=DIRECTION('',(1.,0.,0.));
#379=DIRECTION('',(1.,0.,0.));
#380=DIRECTION('',(0.,0.,1.));
#381=DIRECTION('center_axis',(-0.707106781186548,-0.707106781186548,0.));
#382=DIRECTION('ref_axis',(0.707106781186548,-0.707106781186548,0.));
#383=DIRECTION('',(0.707106781186547,-0.707106781186547,0.));
#384=DIRECTION('',(0.707106781186547,-0.707106781186547,0.));
#385=DIRECTION('center_axis',(0.,0.,1.));
#386=DIRECTION('ref_axis',(1.,0.,0.));
#387=DIRECTION('center_axis',(0.,0.,1.));
#388=DIRECTION('ref_axis',(1.,0.,0.));
#389=CARTESIAN_POINT('',(0.,0.,0.));
#390=CARTESIAN_POINT('Origin',(35.,70.,30.));
#391=CARTESIAN_POINT('',(27.5,70.,30.));
#392=CARTESIAN_POINT('Origin',(35.,70.,30.));
#393=CARTESIAN_POINT('',(27.5,80.,30.));
#394=CARTESIAN_POINT('',(27.5,70.,30.));
#395=CARTESIAN_POINT('Origin',(35.,80.,30.));
#396=CARTESIAN_POINT('Origin',(80.,35.,30.));
#397=CARTESIAN_POINT('',(80.,27.5,30.));
#398=CARTESIAN_POINT('Origin',(80.,35.,30.));
#399=CARTESIAN_POINT('',(70.,27.5,30.));
#400=CARTESIAN_POINT('',(80.,27.5,30.));
#401=CARTESIAN_POINT('Origin',(70.,35.,30.));
#402=CARTESIAN_POINT('Origin',(76.,76.,0.));
#403=CARTESIAN_POINT('',(76.,80.,50.));
#404=CARTESIAN_POINT('',(80.,76.,50.));
#405=CARTESIAN_POINT('Origin',(76.,76.,50.));
#406=CARTESIAN_POINT('',(80.,76.,0.));
#407=CARTESIAN_POINT('',(80.,76.,0.));
#408=CARTESIAN_POINT('',(76.,80.,0.));
#409=CARTESIAN_POINT('Origin',(76.,76.,0.));
#410=CARTESIAN_POINT('',(76.,80.,0.));
#411=CARTESIAN_POINT('Origin',(80.,0.,0.));
#412=CARTESIAN_POINT('',(80.,0.,50.));
#413=CARTESIAN_POINT('',(80.,80.,50.));
#414=CARTESIAN_POINT('',(80.,0.,0.));
#415=CARTESIAN_POINT('',(80.,0.,0.));
#416=CARTESIAN_POINT('',(80.,0.,0.));
#417=CARTESIAN_POINT('Origin',(40.,40.,50.));
#418=CARTESIAN_POINT('',(0.,80.,50.));
#419=CARTESIAN_POINT('',(70.,80.,50.));
#420=CARTESIAN_POINT('',(0.,70.,50.));
#421=CARTESIAN_POINT('',(0.,70.,50.));
#422=CARTESIAN_POINT('',(70.,70.,50.));
#423=CARTESIAN_POINT('',(80.,70.,50.));
#424=CARTESIAN_POINT('',(70.,0.,50.));
#425=CARTESIAN_POINT('',(70.,0.,50.));
#426=CARTESIAN_POINT('',(80.,0.,50.));
#427=CARTESIAN_POINT('Origin',(70.,70.,10.));
#428=CARTESIAN_POINT('',(70.,0.,10.));
#429=CARTESIAN_POINT('',(70.,70.,10.));
#430=CARTESIAN_POINT('',(70.,55.,10.));
#431=CARTESIAN_POINT('',(70.,0.,10.));
#432=CARTESIAN_POINT('',(70.,70.,10.));
#433=CARTESIAN_POINT('Origin',(0.,70.,10.));
#434=CARTESIAN_POINT('',(0.,70.,10.));
#435=CARTESIAN_POINT('',(20.,70.,10.));
#436=CARTESIAN_POINT('',(0.,70.,10.));
#437=CARTESIAN_POINT('Origin',(40.,40.,0.));
#438=CARTESIAN_POINT('',(25.,40.,10.));
#439=CARTESIAN_POINT('Origin',(40.,40.,10.));
#440=CARTESIAN_POINT('',(25.,40.,0.));
#441=CARTESIAN_POINT('',(25.,40.,0.));
#442=CARTESIAN_POINT('Origin',(40.,40.,0.));
#443=CARTESIAN_POINT('Origin',(0.,80.,0.));
#444=CARTESIAN_POINT('',(0.,80.,0.));
#445=CARTESIAN_POINT('',(0.,20.,0.));
#446=CARTESIAN_POINT('',(0.,80.,0.));
#447=CARTESIAN_POINT('',(0.,20.,10.));
#448=CARTESIAN_POINT('',(0.,20.,0.));
#449=CARTESIAN_POINT('',(0.,80.,10.));
#450=CARTESIAN_POINT('',(0.,80.,0.));
#451=CARTESIAN_POINT('Origin',(80.,80.,0.));
#452=CARTESIAN_POINT('',(80.,80.,0.));
#453=CARTESIAN_POINT('Origin',(20.,0.,0.));
#454=CARTESIAN_POINT('',(20.,0.,0.));
#455=CARTESIAN_POINT('',(0.,0.,0.));
#456=CARTESIAN_POINT('',(20.,0.,10.));
#457=CARTESIAN_POINT('',(0.,0.,10.));
#458=CARTESIAN_POINT('',(20.,0.,0.));
#459=CARTESIAN_POINT('Origin',(0.,20.,0.));
#460=CARTESIAN_POINT('',(0.,20.,0.));
#461=CARTESIAN_POINT('',(0.,20.,10.));
#462=CARTESIAN_POINT('Origin',(40.,40.,10.));
#463=CARTESIAN_POINT('Origin',(40.,40.,0.));
#464=UNCERTAINTY_MEASURE_WITH_UNIT(LENGTH_MEASURE(0.01),#468,
'DISTANCE_ACCURACY_VALUE',
'Maximum model space distance between geometric entities at asserted c
onnectivities');
#465=UNCERTAINTY_MEASURE_WITH_UNIT(LENGTH_MEASURE(0.01),#468,
'DISTANCE_ACCURACY_VALUE',
'Maximum model space distance between geometric entities at asserted c
onnectivities');
#466=(
GEOMETRIC_REPRESENTATION_CONTEXT(3)
GLOBAL_UNCERTAINTY_ASSIGNED_CONTEXT((#464))
GLOBAL_UNIT_ASSIGNED_CONTEXT((#468,#470,#471))
REPRESENTATION_CONTEXT('','3D')
);
#467=(
GEOMETRIC_REPRESENTATION_CONTEXT(3)
GLOBAL_UNCERTAINTY_ASSIGNED_CONTEXT((#465))
GLOBAL_UNIT_ASSIGNED_CONTEXT((#468,#470,#471))
REPRESENTATION_CONTEXT('','3D')
);
#468=(
LENGTH_UNIT()
NAMED_UNIT(*)
SI_UNIT(.MILLI.,.METRE.)
);
#469=(
LENGTH_UNIT()
NAMED_UNIT(*)
SI_UNIT($,.METRE.)
);
#470=(
NAMED_UNIT(*)
PLANE_ANGLE_UNIT()
SI_UNIT($,.RADIAN.)
);
#471=(
NAMED_UNIT(*)
SI_UNIT($,.STERADIAN.)
SOLID_ANGLE_UNIT()
);
#472=SHAPE_DEFINITION_REPRESENTATION(#473,#474);
#473=PRODUCT_DEFINITION_SHAPE('',$,#476);
#474=SHAPE_REPRESENTATION('',(#292),#466);
#475=PRODUCT_DEFINITION_CONTEXT('part definition',#480,'design');
#476=PRODUCT_DEFINITION('2026-07-30-12-27-12-341','Aufsatz Baseplate',#477,
#475);
#477=PRODUCT_DEFINITION_FORMATION('',$,#482);
#478=PRODUCT_RELATED_PRODUCT_CATEGORY('Aufsatz Baseplate',
'Aufsatz Baseplate',(#482));
#479=APPLICATION_PROTOCOL_DEFINITION('international standard',
'automotive_design',2009,#480);
#480=APPLICATION_CONTEXT(
'Core Data for Automotive Mechanical Design Process');
#481=PRODUCT_CONTEXT('part definition',#480,'mechanical');
#482=PRODUCT('2026-07-30-12-27-12-341','Aufsatz Baseplate',$,(#481));
#483=PRESENTATION_STYLE_ASSIGNMENT((#484));
#484=SURFACE_STYLE_USAGE(.BOTH.,#485);
#485=SURFACE_SIDE_STYLE('',(#486));
#486=SURFACE_STYLE_FILL_AREA(#487);
#487=FILL_AREA_STYLE('Steel - Satin',(#488));
#488=FILL_AREA_STYLE_COLOUR('Steel - Satin',#489);
#489=COLOUR_RGB('Steel - Satin',0.627450980392157,0.627450980392157,0.627450980392157);
ENDSEC;
END-ISO-10303-21;
