ISO-10303-21;
HEADER;
/* Generated by software containing ST-Developer
 * from STEP Tools, Inc. (www.steptools.com) 
 */

FILE_DESCRIPTION(
/* description */ (''),
/* implementation_level */ '2;1');

FILE_NAME(
/* name */ 'Haus SH.step',
/* time_stamp */ '2026-08-12T11:16:05+02:00',
/* author */ (''),
/* organization */ (''),
/* preprocessor_version */ 'ST-DEVELOPER v20.1',
/* originating_system */ 'Autodesk Translation Framework v15.8.0.0',
/* authorisation */ '');

FILE_SCHEMA (('AUTOMOTIVE_DESIGN { 1 0 10303 214 3 1 1 }'));
ENDSEC;

DATA;
#10=MECHANICAL_DESIGN_GEOMETRIC_PRESENTATION_REPRESENTATION('',(#13),#571);
#11=SHAPE_REPRESENTATION_RELATIONSHIP('SRR','None',#578,#12);
#12=ADVANCED_BREP_SHAPE_REPRESENTATION('',(#14),#570);
#13=STYLED_ITEM('',(#587),#14);
#14=MANIFOLD_SOLID_BREP('Body1',#353);
#15=FACE_BOUND('',#50,.T.);
#16=FACE_BOUND('',#54,.T.);
#17=FACE_BOUND('',#56,.T.);
#18=FACE_BOUND('',#60,.T.);
#19=CIRCLE('',#372,32.5);
#20=CIRCLE('',#373,32.5);
#21=CYLINDRICAL_SURFACE('',#371,32.5);
#22=FACE_OUTER_BOUND('',#40,.T.);
#23=FACE_OUTER_BOUND('',#41,.T.);
#24=FACE_OUTER_BOUND('',#42,.T.);
#25=FACE_OUTER_BOUND('',#43,.T.);
#26=FACE_OUTER_BOUND('',#44,.T.);
#27=FACE_OUTER_BOUND('',#45,.T.);
#28=FACE_OUTER_BOUND('',#46,.T.);
#29=FACE_OUTER_BOUND('',#47,.T.);
#30=FACE_OUTER_BOUND('',#48,.T.);
#31=FACE_OUTER_BOUND('',#49,.T.);
#32=FACE_OUTER_BOUND('',#51,.T.);
#33=FACE_OUTER_BOUND('',#52,.T.);
#34=FACE_OUTER_BOUND('',#53,.T.);
#35=FACE_OUTER_BOUND('',#55,.T.);
#36=FACE_OUTER_BOUND('',#57,.T.);
#37=FACE_OUTER_BOUND('',#58,.T.);
#38=FACE_OUTER_BOUND('',#59,.T.);
#39=FACE_OUTER_BOUND('',#61,.T.);
#40=EDGE_LOOP('',(#226,#227,#228,#229));
#41=EDGE_LOOP('',(#230,#231,#232,#233));
#42=EDGE_LOOP('',(#234,#235,#236,#237));
#43=EDGE_LOOP('',(#238,#239,#240,#241,#242,#243,#244));
#44=EDGE_LOOP('',(#245,#246,#247,#248));
#45=EDGE_LOOP('',(#249,#250,#251,#252));
#46=EDGE_LOOP('',(#253,#254,#255,#256));
#47=EDGE_LOOP('',(#257,#258,#259,#260));
#48=EDGE_LOOP('',(#261,#262,#263,#264));
#49=EDGE_LOOP('',(#265,#266,#267,#268));
#50=EDGE_LOOP('',(#269));
#51=EDGE_LOOP('',(#270,#271,#272,#273));
#52=EDGE_LOOP('',(#274,#275,#276,#277,#278));
#53=EDGE_LOOP('',(#279,#280,#281,#282,#283,#284,#285));
#54=EDGE_LOOP('',(#286,#287,#288,#289));
#55=EDGE_LOOP('',(#290,#291,#292,#293,#294,#295));
#56=EDGE_LOOP('',(#296));
#57=EDGE_LOOP('',(#297,#298,#299,#300));
#58=EDGE_LOOP('',(#301,#302,#303,#304));
#59=EDGE_LOOP('',(#305,#306,#307,#308,#309));
#60=EDGE_LOOP('',(#310,#311,#312,#313));
#61=EDGE_LOOP('',(#314,#315,#316,#317));
#62=LINE('',#477,#106);
#63=LINE('',#479,#107);
#64=LINE('',#481,#108);
#65=LINE('',#482,#109);
#66=LINE('',#485,#110);
#67=LINE('',#487,#111);
#68=LINE('',#488,#112);
#69=LINE('',#491,#113);
#70=LINE('',#493,#114);
#71=LINE('',#494,#115);
#72=LINE('',#497,#116);
#73=LINE('',#499,#117);
#74=LINE('',#501,#118);
#75=LINE('',#502,#119);
#76=LINE('',#507,#120);
#77=LINE('',#512,#121);
#78=LINE('',#514,#122);
#79=LINE('',#516,#123);
#80=LINE('',#517,#124);
#81=LINE('',#520,#125);
#82=LINE('',#522,#126);
#83=LINE('',#523,#127);
#84=LINE('',#526,#128);
#85=LINE('',#527,#129);
#86=LINE('',#529,#130);
#87=LINE('',#533,#131);
#88=LINE('',#535,#132);
#89=LINE('',#537,#133);
#90=LINE('',#538,#134);
#91=LINE('',#541,#135);
#92=LINE('',#543,#136);
#93=LINE('',#544,#137);
#94=LINE('',#547,#138);
#95=LINE('',#549,#139);
#96=LINE('',#550,#140);
#97=LINE('',#552,#141);
#98=LINE('',#553,#142);
#99=LINE('',#555,#143);
#100=LINE('',#556,#144);
#101=LINE('',#558,#145);
#102=LINE('',#561,#146);
#103=LINE('',#562,#147);
#104=LINE('',#564,#148);
#105=LINE('',#566,#149);
#106=VECTOR('',#391,10.);
#107=VECTOR('',#392,10.);
#108=VECTOR('',#393,10.);
#109=VECTOR('',#394,10.);
#110=VECTOR('',#397,10.);
#111=VECTOR('',#398,10.);
#112=VECTOR('',#399,10.);
#113=VECTOR('',#402,10.);
#114=VECTOR('',#403,10.);
#115=VECTOR('',#404,10.);
#116=VECTOR('',#407,10.);
#117=VECTOR('',#408,10.);
#118=VECTOR('',#409,10.);
#119=VECTOR('',#410,10.);
#120=VECTOR('',#415,32.5);
#121=VECTOR('',#420,10.);
#122=VECTOR('',#421,10.);
#123=VECTOR('',#422,10.);
#124=VECTOR('',#423,10.);
#125=VECTOR('',#426,10.);
#126=VECTOR('',#427,10.);
#127=VECTOR('',#428,10.);
#128=VECTOR('',#431,10.);
#129=VECTOR('',#432,10.);
#130=VECTOR('',#435,10.);
#131=VECTOR('',#438,10.);
#132=VECTOR('',#439,10.);
#133=VECTOR('',#440,10.);
#134=VECTOR('',#441,10.);
#135=VECTOR('',#444,10.);
#136=VECTOR('',#445,10.);
#137=VECTOR('',#446,10.);
#138=VECTOR('',#449,10.);
#139=VECTOR('',#450,10.);
#140=VECTOR('',#451,10.);
#141=VECTOR('',#454,10.);
#142=VECTOR('',#455,10.);
#143=VECTOR('',#456,10.);
#144=VECTOR('',#457,10.);
#145=VECTOR('',#460,10.);
#146=VECTOR('',#463,10.);
#147=VECTOR('',#464,10.);
#148=VECTOR('',#467,10.);
#149=VECTOR('',#470,10.);
#150=VERTEX_POINT('',#475);
#151=VERTEX_POINT('',#476);
#152=VERTEX_POINT('',#478);
#153=VERTEX_POINT('',#480);
#154=VERTEX_POINT('',#484);
#155=VERTEX_POINT('',#486);
#156=VERTEX_POINT('',#490);
#157=VERTEX_POINT('',#492);
#158=VERTEX_POINT('',#496);
#159=VERTEX_POINT('',#498);
#160=VERTEX_POINT('',#500);
#161=VERTEX_POINT('',#504);
#162=VERTEX_POINT('',#506);
#163=VERTEX_POINT('',#510);
#164=VERTEX_POINT('',#511);
#165=VERTEX_POINT('',#513);
#166=VERTEX_POINT('',#515);
#167=VERTEX_POINT('',#519);
#168=VERTEX_POINT('',#521);
#169=VERTEX_POINT('',#525);
#170=VERTEX_POINT('',#531);
#171=VERTEX_POINT('',#532);
#172=VERTEX_POINT('',#534);
#173=VERTEX_POINT('',#536);
#174=VERTEX_POINT('',#540);
#175=VERTEX_POINT('',#542);
#176=VERTEX_POINT('',#546);
#177=VERTEX_POINT('',#548);
#178=VERTEX_POINT('',#554);
#179=VERTEX_POINT('',#560);
#180=EDGE_CURVE('',#150,#151,#62,.T.);
#181=EDGE_CURVE('',#150,#152,#63,.T.);
#182=EDGE_CURVE('',#153,#152,#64,.T.);
#183=EDGE_CURVE('',#153,#151,#65,.T.);
#184=EDGE_CURVE('',#151,#154,#66,.T.);
#185=EDGE_CURVE('',#155,#153,#67,.T.);
#186=EDGE_CURVE('',#155,#154,#68,.T.);
#187=EDGE_CURVE('',#154,#156,#69,.T.);
#188=EDGE_CURVE('',#157,#155,#70,.T.);
#189=EDGE_CURVE('',#156,#157,#71,.T.);
#190=EDGE_CURVE('',#158,#152,#72,.T.);
#191=EDGE_CURVE('',#159,#158,#73,.T.);
#192=EDGE_CURVE('',#159,#160,#74,.T.);
#193=EDGE_CURVE('',#157,#160,#75,.T.);
#194=EDGE_CURVE('',#161,#161,#19,.T.);
#195=EDGE_CURVE('',#161,#162,#76,.T.);
#196=EDGE_CURVE('',#162,#162,#20,.T.);
#197=EDGE_CURVE('',#163,#164,#77,.T.);
#198=EDGE_CURVE('',#164,#165,#78,.T.);
#199=EDGE_CURVE('',#166,#165,#79,.T.);
#200=EDGE_CURVE('',#166,#163,#80,.T.);
#201=EDGE_CURVE('',#164,#167,#81,.T.);
#202=EDGE_CURVE('',#167,#168,#82,.T.);
#203=EDGE_CURVE('',#165,#168,#83,.T.);
#204=EDGE_CURVE('',#168,#169,#84,.T.);
#205=EDGE_CURVE('',#166,#169,#85,.T.);
#206=EDGE_CURVE('',#150,#156,#86,.T.);
#207=EDGE_CURVE('',#170,#171,#87,.T.);
#208=EDGE_CURVE('',#170,#172,#88,.T.);
#209=EDGE_CURVE('',#173,#172,#89,.T.);
#210=EDGE_CURVE('',#171,#173,#90,.T.);
#211=EDGE_CURVE('',#174,#171,#91,.T.);
#212=EDGE_CURVE('',#175,#174,#92,.T.);
#213=EDGE_CURVE('',#175,#170,#93,.T.);
#214=EDGE_CURVE('',#176,#163,#94,.T.);
#215=EDGE_CURVE('',#177,#176,#95,.T.);
#216=EDGE_CURVE('',#177,#167,#96,.T.);
#217=EDGE_CURVE('',#158,#177,#97,.T.);
#218=EDGE_CURVE('',#169,#150,#98,.T.);
#219=EDGE_CURVE('',#178,#175,#99,.T.);
#220=EDGE_CURVE('',#178,#172,#100,.T.);
#221=EDGE_CURVE('',#160,#166,#101,.T.);
#222=EDGE_CURVE('',#179,#178,#102,.T.);
#223=EDGE_CURVE('',#179,#173,#103,.T.);
#224=EDGE_CURVE('',#174,#179,#104,.T.);
#225=EDGE_CURVE('',#176,#159,#105,.T.);
#226=ORIENTED_EDGE('',*,*,#180,.F.);
#227=ORIENTED_EDGE('',*,*,#181,.T.);
#228=ORIENTED_EDGE('',*,*,#182,.F.);
#229=ORIENTED_EDGE('',*,*,#183,.T.);
#230=ORIENTED_EDGE('',*,*,#184,.F.);
#231=ORIENTED_EDGE('',*,*,#183,.F.);
#232=ORIENTED_EDGE('',*,*,#185,.F.);
#233=ORIENTED_EDGE('',*,*,#186,.T.);
#234=ORIENTED_EDGE('',*,*,#187,.F.);
#235=ORIENTED_EDGE('',*,*,#186,.F.);
#236=ORIENTED_EDGE('',*,*,#188,.F.);
#237=ORIENTED_EDGE('',*,*,#189,.F.);
#238=ORIENTED_EDGE('',*,*,#188,.T.);
#239=ORIENTED_EDGE('',*,*,#185,.T.);
#240=ORIENTED_EDGE('',*,*,#182,.T.);
#241=ORIENTED_EDGE('',*,*,#190,.F.);
#242=ORIENTED_EDGE('',*,*,#191,.F.);
#243=ORIENTED_EDGE('',*,*,#192,.T.);
#244=ORIENTED_EDGE('',*,*,#193,.F.);
#245=ORIENTED_EDGE('',*,*,#194,.F.);
#246=ORIENTED_EDGE('',*,*,#195,.T.);
#247=ORIENTED_EDGE('',*,*,#196,.F.);
#248=ORIENTED_EDGE('',*,*,#195,.F.);
#249=ORIENTED_EDGE('',*,*,#197,.T.);
#250=ORIENTED_EDGE('',*,*,#198,.T.);
#251=ORIENTED_EDGE('',*,*,#199,.F.);
#252=ORIENTED_EDGE('',*,*,#200,.T.);
#253=ORIENTED_EDGE('',*,*,#201,.T.);
#254=ORIENTED_EDGE('',*,*,#202,.T.);
#255=ORIENTED_EDGE('',*,*,#203,.F.);
#256=ORIENTED_EDGE('',*,*,#198,.F.);
#257=ORIENTED_EDGE('',*,*,#203,.T.);
#258=ORIENTED_EDGE('',*,*,#204,.T.);
#259=ORIENTED_EDGE('',*,*,#205,.F.);
#260=ORIENTED_EDGE('',*,*,#199,.T.);
#261=ORIENTED_EDGE('',*,*,#187,.T.);
#262=ORIENTED_EDGE('',*,*,#206,.F.);
#263=ORIENTED_EDGE('',*,*,#180,.T.);
#264=ORIENTED_EDGE('',*,*,#184,.T.);
#265=ORIENTED_EDGE('',*,*,#207,.F.);
#266=ORIENTED_EDGE('',*,*,#208,.T.);
#267=ORIENTED_EDGE('',*,*,#209,.F.);
#268=ORIENTED_EDGE('',*,*,#210,.F.);
#269=ORIENTED_EDGE('',*,*,#196,.T.);
#270=ORIENTED_EDGE('',*,*,#207,.T.);
#271=ORIENTED_EDGE('',*,*,#211,.F.);
#272=ORIENTED_EDGE('',*,*,#212,.F.);
#273=ORIENTED_EDGE('',*,*,#213,.T.);
#274=ORIENTED_EDGE('',*,*,#214,.F.);
#275=ORIENTED_EDGE('',*,*,#215,.F.);
#276=ORIENTED_EDGE('',*,*,#216,.T.);
#277=ORIENTED_EDGE('',*,*,#201,.F.);
#278=ORIENTED_EDGE('',*,*,#197,.F.);
#279=ORIENTED_EDGE('',*,*,#216,.F.);
#280=ORIENTED_EDGE('',*,*,#217,.F.);
#281=ORIENTED_EDGE('',*,*,#190,.T.);
#282=ORIENTED_EDGE('',*,*,#181,.F.);
#283=ORIENTED_EDGE('',*,*,#218,.F.);
#284=ORIENTED_EDGE('',*,*,#204,.F.);
#285=ORIENTED_EDGE('',*,*,#202,.F.);
#286=ORIENTED_EDGE('',*,*,#213,.F.);
#287=ORIENTED_EDGE('',*,*,#219,.F.);
#288=ORIENTED_EDGE('',*,*,#220,.T.);
#289=ORIENTED_EDGE('',*,*,#208,.F.);
#290=ORIENTED_EDGE('',*,*,#205,.T.);
#291=ORIENTED_EDGE('',*,*,#218,.T.);
#292=ORIENTED_EDGE('',*,*,#206,.T.);
#293=ORIENTED_EDGE('',*,*,#189,.T.);
#294=ORIENTED_EDGE('',*,*,#193,.T.);
#295=ORIENTED_EDGE('',*,*,#221,.T.);
#296=ORIENTED_EDGE('',*,*,#194,.T.);
#297=ORIENTED_EDGE('',*,*,#209,.T.);
#298=ORIENTED_EDGE('',*,*,#220,.F.);
#299=ORIENTED_EDGE('',*,*,#222,.F.);
#300=ORIENTED_EDGE('',*,*,#223,.T.);
#301=ORIENTED_EDGE('',*,*,#212,.T.);
#302=ORIENTED_EDGE('',*,*,#224,.T.);
#303=ORIENTED_EDGE('',*,*,#222,.T.);
#304=ORIENTED_EDGE('',*,*,#219,.T.);
#305=ORIENTED_EDGE('',*,*,#221,.F.);
#306=ORIENTED_EDGE('',*,*,#192,.F.);
#307=ORIENTED_EDGE('',*,*,#225,.F.);
#308=ORIENTED_EDGE('',*,*,#214,.T.);
#309=ORIENTED_EDGE('',*,*,#200,.F.);
#310=ORIENTED_EDGE('',*,*,#210,.T.);
#311=ORIENTED_EDGE('',*,*,#223,.F.);
#312=ORIENTED_EDGE('',*,*,#224,.F.);
#313=ORIENTED_EDGE('',*,*,#211,.T.);
#314=ORIENTED_EDGE('',*,*,#217,.T.);
#315=ORIENTED_EDGE('',*,*,#215,.T.);
#316=ORIENTED_EDGE('',*,*,#225,.T.);
#317=ORIENTED_EDGE('',*,*,#191,.T.);
#318=PLANE('',#367);
#319=PLANE('',#368);
#320=PLANE('',#369);
#321=PLANE('',#370);
#322=PLANE('',#374);
#323=PLANE('',#375);
#324=PLANE('',#376);
#325=PLANE('',#377);
#326=PLANE('',#378);
#327=PLANE('',#379);
#328=PLANE('',#380);
#329=PLANE('',#381);
#330=PLANE('',#382);
#331=PLANE('',#383);
#332=PLANE('',#384);
#333=PLANE('',#385);
#334=PLANE('',#386);
#335=ADVANCED_FACE('',(#22),#318,.F.);
#336=ADVANCED_FACE('',(#23),#319,.F.);
#337=ADVANCED_FACE('',(#24),#320,.F.);
#338=ADVANCED_FACE('',(#25),#321,.T.);
#339=ADVANCED_FACE('',(#26),#21,.F.);
#340=ADVANCED_FACE('',(#27),#322,.T.);
#341=ADVANCED_FACE('',(#28),#323,.T.);
#342=ADVANCED_FACE('',(#29),#324,.T.);
#343=ADVANCED_FACE('',(#30),#325,.T.);
#344=ADVANCED_FACE('',(#31,#15),#326,.T.);
#345=ADVANCED_FACE('',(#32),#327,.T.);
#346=ADVANCED_FACE('',(#33),#328,.T.);
#347=ADVANCED_FACE('',(#34,#16),#329,.T.);
#348=ADVANCED_FACE('',(#35,#17),#330,.T.);
#349=ADVANCED_FACE('',(#36),#331,.T.);
#350=ADVANCED_FACE('',(#37),#332,.T.);
#351=ADVANCED_FACE('',(#38,#18),#333,.T.);
#352=ADVANCED_FACE('',(#39),#334,.F.);
#353=CLOSED_SHELL('',(#335,#336,#337,#338,#339,#340,#341,#342,#343,#344,
#345,#346,#347,#348,#349,#350,#351,#352));
#354=DERIVED_UNIT_ELEMENT(#356,1.);
#355=DERIVED_UNIT_ELEMENT(#573,-3.);
#356=(
MASS_UNIT()
NAMED_UNIT(*)
SI_UNIT(.KILO.,.GRAM.)
);
#357=DERIVED_UNIT((#354,#355));
#358=MEASURE_REPRESENTATION_ITEM('density measure',
POSITIVE_RATIO_MEASURE(7850.),#357);
#359=PROPERTY_DEFINITION_REPRESENTATION(#364,#361);
#360=PROPERTY_DEFINITION_REPRESENTATION(#365,#362);
#361=REPRESENTATION('material name',(#363),#570);
#362=REPRESENTATION('density',(#358),#570);
#363=DESCRIPTIVE_REPRESENTATION_ITEM('Steel','Steel');
#364=PROPERTY_DEFINITION('material property','material name',#580);
#365=PROPERTY_DEFINITION('material property','density of part',#580);
#366=AXIS2_PLACEMENT_3D('',#473,#387,#388);
#367=AXIS2_PLACEMENT_3D('',#474,#389,#390);
#368=AXIS2_PLACEMENT_3D('',#483,#395,#396);
#369=AXIS2_PLACEMENT_3D('',#489,#400,#401);
#370=AXIS2_PLACEMENT_3D('',#495,#405,#406);
#371=AXIS2_PLACEMENT_3D('',#503,#411,#412);
#372=AXIS2_PLACEMENT_3D('',#505,#413,#414);
#373=AXIS2_PLACEMENT_3D('',#508,#416,#417);
#374=AXIS2_PLACEMENT_3D('',#509,#418,#419);
#375=AXIS2_PLACEMENT_3D('',#518,#424,#425);
#376=AXIS2_PLACEMENT_3D('',#524,#429,#430);
#377=AXIS2_PLACEMENT_3D('',#528,#433,#434);
#378=AXIS2_PLACEMENT_3D('',#530,#436,#437);
#379=AXIS2_PLACEMENT_3D('',#539,#442,#443);
#380=AXIS2_PLACEMENT_3D('',#545,#447,#448);
#381=AXIS2_PLACEMENT_3D('',#551,#452,#453);
#382=AXIS2_PLACEMENT_3D('',#557,#458,#459);
#383=AXIS2_PLACEMENT_3D('',#559,#461,#462);
#384=AXIS2_PLACEMENT_3D('',#563,#465,#466);
#385=AXIS2_PLACEMENT_3D('',#565,#468,#469);
#386=AXIS2_PLACEMENT_3D('',#567,#471,#472);
#387=DIRECTION('axis',(0.,0.,1.));
#388=DIRECTION('refdir',(1.,0.,0.));
#389=DIRECTION('center_axis',(0.,0.640184424998865,-0.768221258485388));
#390=DIRECTION('ref_axis',(0.,-0.768221258485388,-0.640184424998865));
#391=DIRECTION('',(0.,0.768221258485388,0.640184424998865));
#392=DIRECTION('',(1.,0.,0.));
#393=DIRECTION('',(0.,-0.768221258485388,-0.640184424998865));
#394=DIRECTION('',(-1.,0.,0.));
#395=DIRECTION('center_axis',(0.,-0.622514636637619,-0.782608156852414));
#396=DIRECTION('ref_axis',(0.,-0.782608156852414,0.622514636637619));
#397=DIRECTION('',(0.,0.782608156852414,-0.622514636637619));
#398=DIRECTION('',(0.,-0.782608156852414,0.622514636637619));
#399=DIRECTION('',(-1.,0.,0.));
#400=DIRECTION('center_axis',(0.,-0.619874024802785,-0.784701340240219));
#401=DIRECTION('ref_axis',(0.,-0.784701340240219,0.619874024802785));
#402=DIRECTION('',(0.,0.784701340240219,-0.619874024802785));
#403=DIRECTION('',(0.,-0.784701340240219,0.619874024802785));
#404=DIRECTION('',(1.,0.,0.));
#405=DIRECTION('center_axis',(1.,0.,0.));
#406=DIRECTION('ref_axis',(0.,1.,0.));
#407=DIRECTION('',(0.,0.,1.));
#408=DIRECTION('',(0.,-1.,0.));
#409=DIRECTION('',(0.,0.,1.));
#410=DIRECTION('',(0.,1.,0.));
#411=DIRECTION('center_axis',(0.,0.,-1.));
#412=DIRECTION('ref_axis',(-1.,0.,0.));
#413=DIRECTION('center_axis',(0.,0.,-1.));
#414=DIRECTION('ref_axis',(-1.,0.,0.));
#415=DIRECTION('',(0.,0.,-1.));
#416=DIRECTION('center_axis',(0.,0.,1.));
#417=DIRECTION('ref_axis',(-1.,0.,0.));
#418=DIRECTION('center_axis',(0.,0.62780991282472,0.778366695946723));
#419=DIRECTION('ref_axis',(0.,-0.778366695946723,0.62780991282472));
#420=DIRECTION('',(0.,-0.778366695946723,0.62780991282472));
#421=DIRECTION('',(1.,0.,0.));
#422=DIRECTION('',(0.,-0.778366695946723,0.62780991282472));
#423=DIRECTION('',(-1.,0.,0.));
#424=DIRECTION('center_axis',(0.,-0.647318557352048,0.76221957814508));
#425=DIRECTION('ref_axis',(0.,-0.76221957814508,-0.647318557352048));
#426=DIRECTION('',(0.,-0.76221957814508,-0.647318557352048));
#427=DIRECTION('',(1.,0.,0.));
#428=DIRECTION('',(0.,-0.76221957814508,-0.647318557352048));
#429=DIRECTION('center_axis',(1.,0.,0.));
#430=DIRECTION('ref_axis',(0.,0.,-1.));
#431=DIRECTION('',(0.,0.,-1.));
#432=DIRECTION('',(0.,-1.,0.));
#433=DIRECTION('center_axis',(-1.,0.,0.));
#434=DIRECTION('ref_axis',(0.,0.,1.));
#435=DIRECTION('',(0.,1.,0.));
#436=DIRECTION('center_axis',(0.,0.,-1.));
#437=DIRECTION('ref_axis',(0.,-1.,0.));
#438=DIRECTION('',(0.,1.,0.));
#439=DIRECTION('',(-1.,0.,0.));
#440=DIRECTION('',(0.,-1.,0.));
#441=DIRECTION('',(-1.,0.,0.));
#442=DIRECTION('center_axis',(-1.,0.,0.));
#443=DIRECTION('ref_axis',(0.,-1.,0.));
#444=DIRECTION('',(0.,0.,1.));
#445=DIRECTION('',(0.,1.,0.));
#446=DIRECTION('',(0.,0.,1.));
#447=DIRECTION('center_axis',(-1.,0.,0.));
#448=DIRECTION('ref_axis',(0.,-1.,0.));
#449=DIRECTION('',(0.,0.,1.));
#450=DIRECTION('',(0.,1.,0.));
#451=DIRECTION('',(0.,0.,1.));
#452=DIRECTION('center_axis',(0.,-1.,0.));
#453=DIRECTION('ref_axis',(1.,0.,0.));
#454=DIRECTION('',(-1.,0.,0.));
#455=DIRECTION('',(1.,0.,0.));
#456=DIRECTION('',(1.,0.,0.));
#457=DIRECTION('',(0.,0.,1.));
#458=DIRECTION('center_axis',(0.,0.,1.));
#459=DIRECTION('ref_axis',(1.,0.,0.));
#460=DIRECTION('',(-1.,0.,0.));
#461=DIRECTION('center_axis',(1.,0.,0.));
#462=DIRECTION('ref_axis',(0.,1.,0.));
#463=DIRECTION('',(0.,-1.,0.));
#464=DIRECTION('',(0.,0.,1.));
#465=DIRECTION('center_axis',(0.,0.,1.));
#466=DIRECTION('ref_axis',(1.,0.,0.));
#467=DIRECTION('',(-1.,0.,0.));
#468=DIRECTION('center_axis',(0.,1.,0.));
#469=DIRECTION('ref_axis',(-1.,0.,0.));
#470=DIRECTION('',(1.,0.,0.));
#471=DIRECTION('center_axis',(0.,0.,1.));
#472=DIRECTION('ref_axis',(1.,0.,0.));
#473=CARTESIAN_POINT('',(0.,0.,0.));
#474=CARTESIAN_POINT('Origin',(275.,-87.000001296401,220.000003278255));
#475=CARTESIAN_POINT('',(270.,-165.,155.));
#476=CARTESIAN_POINT('',(270.,-87.000001296401,220.000003278255));
#477=CARTESIAN_POINT('',(270.,-94.5803281982633,213.683063769786));
#478=CARTESIAN_POINT('',(275.,-165.,155.));
#479=CARTESIAN_POINT('',(5.00000007450581,-165.,155.));
#480=CARTESIAN_POINT('',(275.,-87.000001296401,220.000003278255));
#481=CARTESIAN_POINT('',(275.,-164.114755207442,155.737704043265));
#482=CARTESIAN_POINT('',(275.,-87.000001296401,220.000003278255));
#483=CARTESIAN_POINT('Origin',(275.,-46.141899520869,187.500001639128));
#484=CARTESIAN_POINT('',(270.,-46.141899520869,187.500001639128));
#485=CARTESIAN_POINT('',(270.,-59.3610797638176,198.015012393275));
#486=CARTESIAN_POINT('',(275.,-46.141899520869,187.500001639128));
#487=CARTESIAN_POINT('',(275.,-36.867141209587,180.122525759921));
#488=CARTESIAN_POINT('',(275.,-46.141899520869,187.500001639128));
#489=CARTESIAN_POINT('Origin',(275.,-5.,155.));
#490=CARTESIAN_POINT('',(270.,-5.,155.));
#491=CARTESIAN_POINT('',(270.,-38.857096904495,181.745379229125));
#492=CARTESIAN_POINT('',(275.,-5.,155.));
#493=CARTESIAN_POINT('',(275.,-16.5632571716632,164.134383229974));
#494=CARTESIAN_POINT('',(273.75,-5.,155.));
#495=CARTESIAN_POINT('Origin',(275.,-165.,0.));
#496=CARTESIAN_POINT('',(275.,-165.,0.));
#497=CARTESIAN_POINT('',(275.,-165.,0.));
#498=CARTESIAN_POINT('',(275.,0.,0.));
#499=CARTESIAN_POINT('',(275.,0.,0.));
#500=CARTESIAN_POINT('',(275.,0.,155.));
#501=CARTESIAN_POINT('',(275.,0.,0.));
#502=CARTESIAN_POINT('',(275.,-165.,155.));
#503=CARTESIAN_POINT('Origin',(75.,-123.957263176524,155.));
#504=CARTESIAN_POINT('',(107.5,-123.957263176524,155.));
#505=CARTESIAN_POINT('Origin',(75.,-123.957263176524,155.));
#506=CARTESIAN_POINT('',(107.5,-123.957263176524,150.));
#507=CARTESIAN_POINT('',(107.5,-123.957263176524,155.));
#508=CARTESIAN_POINT('Origin',(75.,-123.957263176524,150.));
#509=CARTESIAN_POINT('Origin',(0.,0.,155.));
#510=CARTESIAN_POINT('',(0.,0.,155.));
#511=CARTESIAN_POINT('',(0.,-87.0576203307935,225.218365347872));
#512=CARTESIAN_POINT('',(0.,0.,155.));
#513=CARTESIAN_POINT('',(5.,-87.0576203307935,225.218365347872));
#514=CARTESIAN_POINT('',(0.,-87.0576203307935,225.218365347872));
#515=CARTESIAN_POINT('',(5.,0.,155.));
#516=CARTESIAN_POINT('',(5.,0.,155.));
#517=CARTESIAN_POINT('',(275.,0.,155.));
#518=CARTESIAN_POINT('Origin',(0.,-87.0576203307935,225.218365347872));
#519=CARTESIAN_POINT('',(0.,-165.,159.025433270689));
#520=CARTESIAN_POINT('',(0.,-87.0576203307935,225.218365347872));
#521=CARTESIAN_POINT('',(5.,-165.,159.025433270689));
#522=CARTESIAN_POINT('',(0.,-165.,159.025433270689));
#523=CARTESIAN_POINT('',(5.,-87.0576203307935,225.218365347872));
#524=CARTESIAN_POINT('Origin',(5.,-82.5,190.109182673936));
#525=CARTESIAN_POINT('',(5.,-165.,155.));
#526=CARTESIAN_POINT('',(5.,-165.,159.025433270689));
#527=CARTESIAN_POINT('',(5.,-82.5,155.));
#528=CARTESIAN_POINT('Origin',(270.,-87.5,189.773339320855));
#529=CARTESIAN_POINT('',(270.,-85.,155.));
#530=CARTESIAN_POINT('Origin',(275.,0.,150.));
#531=CARTESIAN_POINT('',(270.,-165.,150.));
#532=CARTESIAN_POINT('',(270.,0.,150.));
#533=CARTESIAN_POINT('',(270.,0.,150.));
#534=CARTESIAN_POINT('',(5.00000007450581,-165.,150.));
#535=CARTESIAN_POINT('',(275.,-165.,150.));
#536=CARTESIAN_POINT('',(5.00000007450581,0.,150.));
#537=CARTESIAN_POINT('',(5.00000007450581,-82.5,150.));
#538=CARTESIAN_POINT('',(275.,0.,150.));
#539=CARTESIAN_POINT('Origin',(270.,0.,5.));
#540=CARTESIAN_POINT('',(270.,0.,5.));
#541=CARTESIAN_POINT('',(270.,0.,5.));
#542=CARTESIAN_POINT('',(270.,-165.,5.));
#543=CARTESIAN_POINT('',(270.,-41.25,5.));
#544=CARTESIAN_POINT('',(270.,-165.,5.));
#545=CARTESIAN_POINT('Origin',(0.,0.,0.));
#546=CARTESIAN_POINT('',(0.,0.,0.));
#547=CARTESIAN_POINT('',(0.,0.,0.));
#548=CARTESIAN_POINT('',(0.,-165.,0.));
#549=CARTESIAN_POINT('',(0.,-165.,0.));
#550=CARTESIAN_POINT('',(0.,-165.,0.));
#551=CARTESIAN_POINT('Origin',(0.,-165.,0.));
#552=CARTESIAN_POINT('',(275.,-165.,0.));
#553=CARTESIAN_POINT('',(5.00000007450581,-165.,155.));
#554=CARTESIAN_POINT('',(5.00000007450581,-165.,5.));
#555=CARTESIAN_POINT('',(275.,-165.,5.));
#556=CARTESIAN_POINT('',(5.00000007450581,-165.,5.));
#557=CARTESIAN_POINT('Origin',(272.5,-82.5,155.));
#558=CARTESIAN_POINT('',(275.,0.,155.));
#559=CARTESIAN_POINT('Origin',(5.00000007450581,-165.,5.));
#560=CARTESIAN_POINT('',(5.00000007450581,0.,5.));
#561=CARTESIAN_POINT('',(5.00000007450581,-123.75,5.));
#562=CARTESIAN_POINT('',(5.00000007450581,0.,5.));
#563=CARTESIAN_POINT('Origin',(137.5,-82.5,5.));
#564=CARTESIAN_POINT('',(0.,0.,5.));
#565=CARTESIAN_POINT('Origin',(275.,0.,0.));
#566=CARTESIAN_POINT('',(0.,0.,0.));
#567=CARTESIAN_POINT('Origin',(137.5,-82.5,0.));
#568=UNCERTAINTY_MEASURE_WITH_UNIT(LENGTH_MEASURE(0.01),#572,
'DISTANCE_ACCURACY_VALUE',
'Maximum model space distance between geometric entities at asserted c
onnectivities');
#569=UNCERTAINTY_MEASURE_WITH_UNIT(LENGTH_MEASURE(0.01),#572,
'DISTANCE_ACCURACY_VALUE',
'Maximum model space distance between geometric entities at asserted c
onnectivities');
#570=(
GEOMETRIC_REPRESENTATION_CONTEXT(3)
GLOBAL_UNCERTAINTY_ASSIGNED_CONTEXT((#568))
GLOBAL_UNIT_ASSIGNED_CONTEXT((#572,#574,#575))
REPRESENTATION_CONTEXT('','3D')
);
#571=(
GEOMETRIC_REPRESENTATION_CONTEXT(3)
GLOBAL_UNCERTAINTY_ASSIGNED_CONTEXT((#569))
GLOBAL_UNIT_ASSIGNED_CONTEXT((#572,#574,#575))
REPRESENTATION_CONTEXT('','3D')
);
#572=(
LENGTH_UNIT()
NAMED_UNIT(*)
SI_UNIT(.MILLI.,.METRE.)
);
#573=(
LENGTH_UNIT()
NAMED_UNIT(*)
SI_UNIT($,.METRE.)
);
#574=(
NAMED_UNIT(*)
PLANE_ANGLE_UNIT()
SI_UNIT($,.RADIAN.)
);
#575=(
NAMED_UNIT(*)
SI_UNIT($,.STERADIAN.)
SOLID_ANGLE_UNIT()
);
#576=SHAPE_DEFINITION_REPRESENTATION(#577,#578);
#577=PRODUCT_DEFINITION_SHAPE('',$,#580);
#578=SHAPE_REPRESENTATION('',(#366),#570);
#579=PRODUCT_DEFINITION_CONTEXT('part definition',#584,'design');
#580=PRODUCT_DEFINITION('2026-08-06-17-03-33-858','Haus SH',#581,#579);
#581=PRODUCT_DEFINITION_FORMATION('',$,#586);
#582=PRODUCT_RELATED_PRODUCT_CATEGORY('Haus SH','Haus SH',(#586));
#583=APPLICATION_PROTOCOL_DEFINITION('international standard',
'automotive_design',2009,#584);
#584=APPLICATION_CONTEXT(
'Core Data for Automotive Mechanical Design Process');
#585=PRODUCT_CONTEXT('part definition',#584,'mechanical');
#586=PRODUCT('2026-08-06-17-03-33-858','Haus SH',$,(#585));
#587=PRESENTATION_STYLE_ASSIGNMENT((#588));
#588=SURFACE_STYLE_USAGE(.BOTH.,#589);
#589=SURFACE_SIDE_STYLE('',(#590));
#590=SURFACE_STYLE_FILL_AREA(#591);
#591=FILL_AREA_STYLE('Steel - Satin',(#592));
#592=FILL_AREA_STYLE_COLOUR('Steel - Satin',#593);
#593=COLOUR_RGB('Steel - Satin',0.627450980392157,0.627450980392157,0.627450980392157);
ENDSEC;
END-ISO-10303-21;
