ISO-10303-21;
HEADER;
/* Generated by software containing ST-Developer
 * from STEP Tools, Inc. (www.steptools.com) 
 */

FILE_DESCRIPTION(
/* description */ (''),
/* implementation_level */ '2;1');

FILE_NAME(
/* name */ 'Haus SH Copy.step',
/* time_stamp */ '2026-08-12T11:16:39+02:00',
/* author */ (''),
/* organization */ (''),
/* preprocessor_version */ 'ST-DEVELOPER v20.1',
/* originating_system */ 'Autodesk Translation Framework v15.8.0.0',
/* authorisation */ '');

FILE_SCHEMA (('AUTOMOTIVE_DESIGN { 1 0 10303 214 3 1 1 }'));
ENDSEC;

DATA;
#10=MECHANICAL_DESIGN_GEOMETRIC_PRESENTATION_REPRESENTATION('',(#13),#385);
#11=SHAPE_REPRESENTATION_RELATIONSHIP('SRR','None',#392,#12);
#12=ADVANCED_BREP_SHAPE_REPRESENTATION('',(#14),#384);
#13=STYLED_ITEM('',(#401),#14);
#14=MANIFOLD_SOLID_BREP('Body1',#237);
#15=FACE_BOUND('',#39,.T.);
#16=FACE_BOUND('',#41,.T.);
#17=FACE_OUTER_BOUND('',#29,.T.);
#18=FACE_OUTER_BOUND('',#30,.T.);
#19=FACE_OUTER_BOUND('',#31,.T.);
#20=FACE_OUTER_BOUND('',#32,.T.);
#21=FACE_OUTER_BOUND('',#33,.T.);
#22=FACE_OUTER_BOUND('',#34,.T.);
#23=FACE_OUTER_BOUND('',#35,.T.);
#24=FACE_OUTER_BOUND('',#36,.T.);
#25=FACE_OUTER_BOUND('',#37,.T.);
#26=FACE_OUTER_BOUND('',#38,.T.);
#27=FACE_OUTER_BOUND('',#40,.T.);
#28=FACE_OUTER_BOUND('',#42,.T.);
#29=EDGE_LOOP('',(#153,#154,#155,#156));
#30=EDGE_LOOP('',(#157,#158,#159,#160));
#31=EDGE_LOOP('',(#161,#162,#163,#164,#165,#166));
#32=EDGE_LOOP('',(#167,#168,#169,#170));
#33=EDGE_LOOP('',(#171,#172,#173,#174));
#34=EDGE_LOOP('',(#175,#176,#177,#178));
#35=EDGE_LOOP('',(#179,#180,#181,#182));
#36=EDGE_LOOP('',(#183,#184,#185,#186));
#37=EDGE_LOOP('',(#187,#188,#189,#190));
#38=EDGE_LOOP('',(#191,#192,#193,#194));
#39=EDGE_LOOP('',(#195,#196,#197,#198));
#40=EDGE_LOOP('',(#199,#200,#201,#202));
#41=EDGE_LOOP('',(#203,#204,#205,#206));
#42=EDGE_LOOP('',(#207,#208,#209,#210,#211,#212));
#43=LINE('',#323,#73);
#44=LINE('',#325,#74);
#45=LINE('',#327,#75);
#46=LINE('',#328,#76);
#47=LINE('',#331,#77);
#48=LINE('',#333,#78);
#49=LINE('',#334,#79);
#50=LINE('',#337,#80);
#51=LINE('',#339,#81);
#52=LINE('',#341,#82);
#53=LINE('',#342,#83);
#54=LINE('',#346,#84);
#55=LINE('',#348,#85);
#56=LINE('',#350,#86);
#57=LINE('',#351,#87);
#58=LINE('',#354,#88);
#59=LINE('',#356,#89);
#60=LINE('',#357,#90);
#61=LINE('',#360,#91);
#62=LINE('',#362,#92);
#63=LINE('',#363,#93);
#64=LINE('',#365,#94);
#65=LINE('',#366,#95);
#66=LINE('',#369,#96);
#67=LINE('',#370,#97);
#68=LINE('',#373,#98);
#69=LINE('',#375,#99);
#70=LINE('',#376,#100);
#71=LINE('',#378,#101);
#72=LINE('',#380,#102);
#73=VECTOR('',#267,10.);
#74=VECTOR('',#268,10.);
#75=VECTOR('',#269,10.);
#76=VECTOR('',#270,10.);
#77=VECTOR('',#273,10.);
#78=VECTOR('',#274,10.);
#79=VECTOR('',#275,10.);
#80=VECTOR('',#278,10.);
#81=VECTOR('',#279,10.);
#82=VECTOR('',#280,10.);
#83=VECTOR('',#281,10.);
#84=VECTOR('',#284,10.);
#85=VECTOR('',#285,10.);
#86=VECTOR('',#286,10.);
#87=VECTOR('',#287,10.);
#88=VECTOR('',#290,10.);
#89=VECTOR('',#291,10.);
#90=VECTOR('',#292,10.);
#91=VECTOR('',#295,10.);
#92=VECTOR('',#296,10.);
#93=VECTOR('',#297,10.);
#94=VECTOR('',#300,10.);
#95=VECTOR('',#301,10.);
#96=VECTOR('',#304,10.);
#97=VECTOR('',#305,10.);
#98=VECTOR('',#308,10.);
#99=VECTOR('',#309,10.);
#100=VECTOR('',#310,10.);
#101=VECTOR('',#313,10.);
#102=VECTOR('',#316,10.);
#103=VERTEX_POINT('',#321);
#104=VERTEX_POINT('',#322);
#105=VERTEX_POINT('',#324);
#106=VERTEX_POINT('',#326);
#107=VERTEX_POINT('',#330);
#108=VERTEX_POINT('',#332);
#109=VERTEX_POINT('',#336);
#110=VERTEX_POINT('',#338);
#111=VERTEX_POINT('',#340);
#112=VERTEX_POINT('',#344);
#113=VERTEX_POINT('',#345);
#114=VERTEX_POINT('',#347);
#115=VERTEX_POINT('',#349);
#116=VERTEX_POINT('',#353);
#117=VERTEX_POINT('',#355);
#118=VERTEX_POINT('',#359);
#119=VERTEX_POINT('',#361);
#120=VERTEX_POINT('',#368);
#121=VERTEX_POINT('',#372);
#122=VERTEX_POINT('',#374);
#123=EDGE_CURVE('',#103,#104,#43,.T.);
#124=EDGE_CURVE('',#105,#103,#44,.T.);
#125=EDGE_CURVE('',#106,#105,#45,.T.);
#126=EDGE_CURVE('',#104,#106,#46,.F.);
#127=EDGE_CURVE('',#107,#103,#47,.T.);
#128=EDGE_CURVE('',#108,#107,#48,.T.);
#129=EDGE_CURVE('',#105,#108,#49,.T.);
#130=EDGE_CURVE('',#104,#109,#50,.F.);
#131=EDGE_CURVE('',#109,#110,#51,.T.);
#132=EDGE_CURVE('',#111,#110,#52,.T.);
#133=EDGE_CURVE('',#107,#111,#53,.T.);
#134=EDGE_CURVE('',#112,#113,#54,.T.);
#135=EDGE_CURVE('',#112,#114,#55,.T.);
#136=EDGE_CURVE('',#115,#114,#56,.F.);
#137=EDGE_CURVE('',#113,#115,#57,.T.);
#138=EDGE_CURVE('',#116,#112,#58,.T.);
#139=EDGE_CURVE('',#116,#117,#59,.T.);
#140=EDGE_CURVE('',#114,#117,#60,.F.);
#141=EDGE_CURVE('',#118,#116,#61,.T.);
#142=EDGE_CURVE('',#118,#119,#62,.T.);
#143=EDGE_CURVE('',#117,#119,#63,.F.);
#144=EDGE_CURVE('',#113,#118,#64,.T.);
#145=EDGE_CURVE('',#119,#115,#65,.F.);
#146=EDGE_CURVE('',#111,#120,#66,.T.);
#147=EDGE_CURVE('',#120,#108,#67,.T.);
#148=EDGE_CURVE('',#121,#109,#68,.F.);
#149=EDGE_CURVE('',#122,#121,#69,.T.);
#150=EDGE_CURVE('',#110,#122,#70,.T.);
#151=EDGE_CURVE('',#120,#122,#71,.T.);
#152=EDGE_CURVE('',#106,#121,#72,.T.);
#153=ORIENTED_EDGE('',*,*,#123,.F.);
#154=ORIENTED_EDGE('',*,*,#124,.F.);
#155=ORIENTED_EDGE('',*,*,#125,.F.);
#156=ORIENTED_EDGE('',*,*,#126,.F.);
#157=ORIENTED_EDGE('',*,*,#124,.T.);
#158=ORIENTED_EDGE('',*,*,#127,.F.);
#159=ORIENTED_EDGE('',*,*,#128,.F.);
#160=ORIENTED_EDGE('',*,*,#129,.F.);
#161=ORIENTED_EDGE('',*,*,#123,.T.);
#162=ORIENTED_EDGE('',*,*,#130,.T.);
#163=ORIENTED_EDGE('',*,*,#131,.T.);
#164=ORIENTED_EDGE('',*,*,#132,.F.);
#165=ORIENTED_EDGE('',*,*,#133,.F.);
#166=ORIENTED_EDGE('',*,*,#127,.T.);
#167=ORIENTED_EDGE('',*,*,#134,.F.);
#168=ORIENTED_EDGE('',*,*,#135,.T.);
#169=ORIENTED_EDGE('',*,*,#136,.F.);
#170=ORIENTED_EDGE('',*,*,#137,.F.);
#171=ORIENTED_EDGE('',*,*,#138,.F.);
#172=ORIENTED_EDGE('',*,*,#139,.T.);
#173=ORIENTED_EDGE('',*,*,#140,.F.);
#174=ORIENTED_EDGE('',*,*,#135,.F.);
#175=ORIENTED_EDGE('',*,*,#141,.F.);
#176=ORIENTED_EDGE('',*,*,#142,.T.);
#177=ORIENTED_EDGE('',*,*,#143,.F.);
#178=ORIENTED_EDGE('',*,*,#139,.F.);
#179=ORIENTED_EDGE('',*,*,#144,.F.);
#180=ORIENTED_EDGE('',*,*,#137,.T.);
#181=ORIENTED_EDGE('',*,*,#145,.F.);
#182=ORIENTED_EDGE('',*,*,#142,.F.);
#183=ORIENTED_EDGE('',*,*,#128,.T.);
#184=ORIENTED_EDGE('',*,*,#133,.T.);
#185=ORIENTED_EDGE('',*,*,#146,.T.);
#186=ORIENTED_EDGE('',*,*,#147,.T.);
#187=ORIENTED_EDGE('',*,*,#148,.F.);
#188=ORIENTED_EDGE('',*,*,#149,.F.);
#189=ORIENTED_EDGE('',*,*,#150,.F.);
#190=ORIENTED_EDGE('',*,*,#131,.F.);
#191=ORIENTED_EDGE('',*,*,#150,.T.);
#192=ORIENTED_EDGE('',*,*,#151,.F.);
#193=ORIENTED_EDGE('',*,*,#146,.F.);
#194=ORIENTED_EDGE('',*,*,#132,.T.);
#195=ORIENTED_EDGE('',*,*,#134,.T.);
#196=ORIENTED_EDGE('',*,*,#144,.T.);
#197=ORIENTED_EDGE('',*,*,#141,.T.);
#198=ORIENTED_EDGE('',*,*,#138,.T.);
#199=ORIENTED_EDGE('',*,*,#126,.T.);
#200=ORIENTED_EDGE('',*,*,#152,.T.);
#201=ORIENTED_EDGE('',*,*,#148,.T.);
#202=ORIENTED_EDGE('',*,*,#130,.F.);
#203=ORIENTED_EDGE('',*,*,#136,.T.);
#204=ORIENTED_EDGE('',*,*,#140,.T.);
#205=ORIENTED_EDGE('',*,*,#143,.T.);
#206=ORIENTED_EDGE('',*,*,#145,.T.);
#207=ORIENTED_EDGE('',*,*,#125,.T.);
#208=ORIENTED_EDGE('',*,*,#129,.T.);
#209=ORIENTED_EDGE('',*,*,#147,.F.);
#210=ORIENTED_EDGE('',*,*,#151,.T.);
#211=ORIENTED_EDGE('',*,*,#149,.T.);
#212=ORIENTED_EDGE('',*,*,#152,.F.);
#213=PLANE('',#251);
#214=PLANE('',#252);
#215=PLANE('',#253);
#216=PLANE('',#254);
#217=PLANE('',#255);
#218=PLANE('',#256);
#219=PLANE('',#257);
#220=PLANE('',#258);
#221=PLANE('',#259);
#222=PLANE('',#260);
#223=PLANE('',#261);
#224=PLANE('',#262);
#225=ADVANCED_FACE('',(#17),#213,.F.);
#226=ADVANCED_FACE('',(#18),#214,.F.);
#227=ADVANCED_FACE('',(#19),#215,.T.);
#228=ADVANCED_FACE('',(#20),#216,.F.);
#229=ADVANCED_FACE('',(#21),#217,.F.);
#230=ADVANCED_FACE('',(#22),#218,.F.);
#231=ADVANCED_FACE('',(#23),#219,.F.);
#232=ADVANCED_FACE('',(#24),#220,.T.);
#233=ADVANCED_FACE('',(#25),#221,.F.);
#234=ADVANCED_FACE('',(#26,#15),#222,.T.);
#235=ADVANCED_FACE('',(#27,#16),#223,.T.);
#236=ADVANCED_FACE('',(#28),#224,.T.);
#237=CLOSED_SHELL('',(#225,#226,#227,#228,#229,#230,#231,#232,#233,#234,
#235,#236));
#238=DERIVED_UNIT_ELEMENT(#240,1.);
#239=DERIVED_UNIT_ELEMENT(#387,-3.);
#240=(
MASS_UNIT()
NAMED_UNIT(*)
SI_UNIT(.KILO.,.GRAM.)
);
#241=DERIVED_UNIT((#238,#239));
#242=MEASURE_REPRESENTATION_ITEM('density measure',
POSITIVE_RATIO_MEASURE(7850.),#241);
#243=PROPERTY_DEFINITION_REPRESENTATION(#248,#245);
#244=PROPERTY_DEFINITION_REPRESENTATION(#249,#246);
#245=REPRESENTATION('material name',(#247),#384);
#246=REPRESENTATION('density',(#242),#384);
#247=DESCRIPTIVE_REPRESENTATION_ITEM('Steel','Steel');
#248=PROPERTY_DEFINITION('material property','material name',#394);
#249=PROPERTY_DEFINITION('material property','density of part',#394);
#250=AXIS2_PLACEMENT_3D('',#319,#263,#264);
#251=AXIS2_PLACEMENT_3D('',#320,#265,#266);
#252=AXIS2_PLACEMENT_3D('',#329,#271,#272);
#253=AXIS2_PLACEMENT_3D('',#335,#276,#277);
#254=AXIS2_PLACEMENT_3D('',#343,#282,#283);
#255=AXIS2_PLACEMENT_3D('',#352,#288,#289);
#256=AXIS2_PLACEMENT_3D('',#358,#293,#294);
#257=AXIS2_PLACEMENT_3D('',#364,#298,#299);
#258=AXIS2_PLACEMENT_3D('',#367,#302,#303);
#259=AXIS2_PLACEMENT_3D('',#371,#306,#307);
#260=AXIS2_PLACEMENT_3D('',#377,#311,#312);
#261=AXIS2_PLACEMENT_3D('',#379,#314,#315);
#262=AXIS2_PLACEMENT_3D('',#381,#317,#318);
#263=DIRECTION('axis',(0.,0.,1.));
#264=DIRECTION('refdir',(1.,0.,0.));
#265=DIRECTION('center_axis',(0.,0.,1.));
#266=DIRECTION('ref_axis',(1.,0.,0.));
#267=DIRECTION('',(-1.,0.,0.));
#268=DIRECTION('',(0.,1.,0.));
#269=DIRECTION('',(1.,0.,0.));
#270=DIRECTION('',(0.,1.,0.));
#271=DIRECTION('center_axis',(-1.,0.,0.));
#272=DIRECTION('ref_axis',(0.,0.,1.));
#273=DIRECTION('',(0.,0.,-1.));
#274=DIRECTION('',(0.,1.,0.));
#275=DIRECTION('',(0.,0.,1.));
#276=DIRECTION('center_axis',(0.,1.,0.));
#277=DIRECTION('ref_axis',(-1.,0.,0.));
#278=DIRECTION('',(0.,0.,-1.));
#279=DIRECTION('',(1.,0.,0.));
#280=DIRECTION('',(0.,0.,1.));
#281=DIRECTION('',(-1.,0.,0.));
#282=DIRECTION('center_axis',(0.,1.,0.));
#283=DIRECTION('ref_axis',(0.,0.,-1.));
#284=DIRECTION('',(0.,0.,-1.));
#285=DIRECTION('',(-1.,0.,0.));
#286=DIRECTION('',(0.,0.,-1.));
#287=DIRECTION('',(-1.,0.,0.));
#288=DIRECTION('center_axis',(0.,0.,1.));
#289=DIRECTION('ref_axis',(0.,1.,0.));
#290=DIRECTION('',(0.,1.,0.));
#291=DIRECTION('',(-1.,0.,0.));
#292=DIRECTION('',(0.,1.,0.));
#293=DIRECTION('center_axis',(0.,-1.,0.));
#294=DIRECTION('ref_axis',(0.,0.,1.));
#295=DIRECTION('',(0.,0.,1.));
#296=DIRECTION('',(-1.,0.,0.));
#297=DIRECTION('',(0.,0.,1.));
#298=DIRECTION('center_axis',(0.,0.,-1.));
#299=DIRECTION('ref_axis',(0.,-1.,0.));
#300=DIRECTION('',(0.,-1.,0.));
#301=DIRECTION('',(0.,-1.,0.));
#302=DIRECTION('center_axis',(0.,0.,1.));
#303=DIRECTION('ref_axis',(1.,0.,0.));
#304=DIRECTION('',(0.,-1.,0.));
#305=DIRECTION('',(1.,0.,0.));
#306=DIRECTION('center_axis',(0.,0.,-1.));
#307=DIRECTION('ref_axis',(-1.,0.,0.));
#308=DIRECTION('',(0.,-1.,0.));
#309=DIRECTION('',(-1.,0.,0.));
#310=DIRECTION('',(0.,-1.,0.));
#311=DIRECTION('center_axis',(1.,0.,0.));
#312=DIRECTION('ref_axis',(0.,1.,0.));
#313=DIRECTION('',(0.,0.,1.));
#314=DIRECTION('center_axis',(-1.,0.,0.));
#315=DIRECTION('ref_axis',(0.,-1.,0.));
#316=DIRECTION('',(0.,0.,1.));
#317=DIRECTION('center_axis',(0.,-1.,0.));
#318=DIRECTION('ref_axis',(1.,0.,0.));
#319=CARTESIAN_POINT('',(0.,0.,0.));
#320=CARTESIAN_POINT('Origin',(57.5,-82.5,2.));
#321=CARTESIAN_POINT('',(115.,0.,2.));
#322=CARTESIAN_POINT('',(2.,0.,2.));
#323=CARTESIAN_POINT('',(166.25,0.,2.));
#324=CARTESIAN_POINT('',(115.,-165.,2.));
#325=CARTESIAN_POINT('',(115.,-82.5,2.));
#326=CARTESIAN_POINT('',(2.,-165.,2.));
#327=CARTESIAN_POINT('',(28.75,-165.,2.));
#328=CARTESIAN_POINT('',(2.,-41.25,2.));
#329=CARTESIAN_POINT('Origin',(115.,-82.5,77.5));
#330=CARTESIAN_POINT('',(115.,0.,5.));
#331=CARTESIAN_POINT('',(115.,0.,38.75));
#332=CARTESIAN_POINT('',(115.,-165.,5.));
#333=CARTESIAN_POINT('',(115.,-82.5,5.));
#334=CARTESIAN_POINT('',(115.,-165.,38.75));
#335=CARTESIAN_POINT('Origin',(275.,0.,0.));
#336=CARTESIAN_POINT('',(2.,0.,100.));
#337=CARTESIAN_POINT('',(1.99999999999999,0.,0.));
#338=CARTESIAN_POINT('',(5.00000007450581,0.,100.));
#339=CARTESIAN_POINT('',(273.75,0.,100.));
#340=CARTESIAN_POINT('',(5.00000007450581,0.,5.));
#341=CARTESIAN_POINT('',(5.00000007450581,0.,5.));
#342=CARTESIAN_POINT('',(0.,0.,5.));
#343=CARTESIAN_POINT('Origin',(5.00000007450581,-15.,85.));
#344=CARTESIAN_POINT('',(5.00000007450581,-15.,85.));
#345=CARTESIAN_POINT('',(5.00000007450581,-15.,20.));
#346=CARTESIAN_POINT('',(5.00000007450581,-15.,45.));
#347=CARTESIAN_POINT('',(2.,-15.,85.));
#348=CARTESIAN_POINT('',(5.00000007450581,-15.,85.));
#349=CARTESIAN_POINT('',(2.,-15.,20.));
#350=CARTESIAN_POINT('',(2.,-15.,42.5));
#351=CARTESIAN_POINT('',(5.00000007450581,-15.,20.));
#352=CARTESIAN_POINT('Origin',(5.00000007450581,-150.,85.));
#353=CARTESIAN_POINT('',(5.00000007450581,-150.,85.));
#354=CARTESIAN_POINT('',(5.00000007450581,-157.5,85.));
#355=CARTESIAN_POINT('',(2.,-150.,85.));
#356=CARTESIAN_POINT('',(5.00000007450581,-150.,85.));
#357=CARTESIAN_POINT('',(2.,-75.,85.));
#358=CARTESIAN_POINT('Origin',(5.00000007450581,-150.,20.));
#359=CARTESIAN_POINT('',(5.00000007450581,-150.,20.));
#360=CARTESIAN_POINT('',(5.00000007450581,-150.,12.5));
#361=CARTESIAN_POINT('',(2.,-150.,20.));
#362=CARTESIAN_POINT('',(5.00000007450581,-150.,20.));
#363=CARTESIAN_POINT('',(2.,-150.,10.));
#364=CARTESIAN_POINT('Origin',(5.00000007450581,-15.,20.));
#365=CARTESIAN_POINT('',(5.00000007450581,-90.,20.));
#366=CARTESIAN_POINT('',(2.,-7.5,20.));
#367=CARTESIAN_POINT('Origin',(137.5,-82.5,5.));
#368=CARTESIAN_POINT('',(5.00000007450581,-165.,5.));
#369=CARTESIAN_POINT('',(5.00000007450581,-123.75,5.));
#370=CARTESIAN_POINT('',(275.,-165.,5.));
#371=CARTESIAN_POINT('Origin',(272.5,-82.5,100.));
#372=CARTESIAN_POINT('',(2.,-165.,100.));
#373=CARTESIAN_POINT('',(1.99999999999999,-41.25,100.));
#374=CARTESIAN_POINT('',(5.00000007450581,-165.,100.));
#375=CARTESIAN_POINT('',(136.25,-165.,100.));
#376=CARTESIAN_POINT('',(5.00000007450581,-123.75,100.));
#377=CARTESIAN_POINT('Origin',(5.00000007450581,-165.,5.));
#378=CARTESIAN_POINT('',(5.00000007450581,-165.,5.));
#379=CARTESIAN_POINT('Origin',(2.,0.,0.));
#380=CARTESIAN_POINT('',(2.,-165.,0.));
#381=CARTESIAN_POINT('Origin',(0.,-165.,0.));
#382=UNCERTAINTY_MEASURE_WITH_UNIT(LENGTH_MEASURE(0.01),#386,
'DISTANCE_ACCURACY_VALUE',
'Maximum model space distance between geometric entities at asserted c
onnectivities');
#383=UNCERTAINTY_MEASURE_WITH_UNIT(LENGTH_MEASURE(0.01),#386,
'DISTANCE_ACCURACY_VALUE',
'Maximum model space distance between geometric entities at asserted c
onnectivities');
#384=(
GEOMETRIC_REPRESENTATION_CONTEXT(3)
GLOBAL_UNCERTAINTY_ASSIGNED_CONTEXT((#382))
GLOBAL_UNIT_ASSIGNED_CONTEXT((#386,#388,#389))
REPRESENTATION_CONTEXT('','3D')
);
#385=(
GEOMETRIC_REPRESENTATION_CONTEXT(3)
GLOBAL_UNCERTAINTY_ASSIGNED_CONTEXT((#383))
GLOBAL_UNIT_ASSIGNED_CONTEXT((#386,#388,#389))
REPRESENTATION_CONTEXT('','3D')
);
#386=(
LENGTH_UNIT()
NAMED_UNIT(*)
SI_UNIT(.MILLI.,.METRE.)
);
#387=(
LENGTH_UNIT()
NAMED_UNIT(*)
SI_UNIT($,.METRE.)
);
#388=(
NAMED_UNIT(*)
PLANE_ANGLE_UNIT()
SI_UNIT($,.RADIAN.)
);
#389=(
NAMED_UNIT(*)
SI_UNIT($,.STERADIAN.)
SOLID_ANGLE_UNIT()
);
#390=SHAPE_DEFINITION_REPRESENTATION(#391,#392);
#391=PRODUCT_DEFINITION_SHAPE('',$,#394);
#392=SHAPE_REPRESENTATION('',(#250),#384);
#393=PRODUCT_DEFINITION_CONTEXT('part definition',#398,'design');
#394=PRODUCT_DEFINITION('2026-08-06-17-03-33-858','Haus SH Copy',#395,#393);
#395=PRODUCT_DEFINITION_FORMATION('',$,#400);
#396=PRODUCT_RELATED_PRODUCT_CATEGORY('Haus SH Copy','Haus SH Copy',(#400));
#397=APPLICATION_PROTOCOL_DEFINITION('international standard',
'automotive_design',2009,#398);
#398=APPLICATION_CONTEXT(
'Core Data for Automotive Mechanical Design Process');
#399=PRODUCT_CONTEXT('part definition',#398,'mechanical');
#400=PRODUCT('2026-08-06-17-03-33-858','Haus SH Copy',$,(#399));
#401=PRESENTATION_STYLE_ASSIGNMENT((#402));
#402=SURFACE_STYLE_USAGE(.BOTH.,#403);
#403=SURFACE_SIDE_STYLE('',(#404));
#404=SURFACE_STYLE_FILL_AREA(#405);
#405=FILL_AREA_STYLE('Steel - Satin',(#406));
#406=FILL_AREA_STYLE_COLOUR('Steel - Satin',#407);
#407=COLOUR_RGB('Steel - Satin',0.627450980392157,0.627450980392157,0.627450980392157);
ENDSEC;
END-ISO-10303-21;
