ISO-10303-21;
HEADER;
/* Generated by software containing ST-Developer
 * from STEP Tools, Inc. (www.steptools.com) 
 */

FILE_DESCRIPTION(
/* description */ (''),
/* implementation_level */ '2;1');

FILE_NAME(
/* name */ 'LCD Schutz.step',
/* time_stamp */ '2026-08-12T11:17:01+02:00',
/* author */ (''),
/* organization */ (''),
/* preprocessor_version */ 'ST-DEVELOPER v20.1',
/* originating_system */ 'Autodesk Translation Framework v15.8.0.0',
/* authorisation */ '');

FILE_SCHEMA (('AUTOMOTIVE_DESIGN { 1 0 10303 214 3 1 1 }'));
ENDSEC;

DATA;
#10=MECHANICAL_DESIGN_GEOMETRIC_PRESENTATION_REPRESENTATION('',(#13),#681);
#11=SHAPE_REPRESENTATION_RELATIONSHIP('SRR','None',#688,#12);
#12=ADVANCED_BREP_SHAPE_REPRESENTATION('',(#14),#680);
#13=STYLED_ITEM('',(#697),#14);
#14=MANIFOLD_SOLID_BREP('Body1',#427);
#15=FACE_BOUND('',#38,.T.);
#16=FACE_BOUND('',#49,.T.);
#17=FACE_OUTER_BOUND('',#37,.T.);
#18=FACE_OUTER_BOUND('',#39,.T.);
#19=FACE_OUTER_BOUND('',#40,.T.);
#20=FACE_OUTER_BOUND('',#41,.T.);
#21=FACE_OUTER_BOUND('',#42,.T.);
#22=FACE_OUTER_BOUND('',#43,.T.);
#23=FACE_OUTER_BOUND('',#44,.T.);
#24=FACE_OUTER_BOUND('',#45,.T.);
#25=FACE_OUTER_BOUND('',#46,.T.);
#26=FACE_OUTER_BOUND('',#47,.T.);
#27=FACE_OUTER_BOUND('',#48,.T.);
#28=FACE_OUTER_BOUND('',#50,.T.);
#29=FACE_OUTER_BOUND('',#51,.T.);
#30=FACE_OUTER_BOUND('',#52,.T.);
#31=FACE_OUTER_BOUND('',#53,.T.);
#32=FACE_OUTER_BOUND('',#54,.T.);
#33=FACE_OUTER_BOUND('',#55,.T.);
#34=FACE_OUTER_BOUND('',#56,.T.);
#35=FACE_OUTER_BOUND('',#57,.T.);
#36=FACE_OUTER_BOUND('',#58,.T.);
#37=EDGE_LOOP('',(#271,#272,#273,#274,#275,#276,#277,#278,#279,#280,#281,
#282));
#38=EDGE_LOOP('',(#283,#284,#285,#286));
#39=EDGE_LOOP('',(#287,#288,#289,#290,#291,#292));
#40=EDGE_LOOP('',(#293,#294,#295,#296));
#41=EDGE_LOOP('',(#297,#298,#299,#300));
#42=EDGE_LOOP('',(#301,#302,#303,#304));
#43=EDGE_LOOP('',(#305,#306,#307,#308));
#44=EDGE_LOOP('',(#309,#310,#311,#312));
#45=EDGE_LOOP('',(#313,#314,#315,#316));
#46=EDGE_LOOP('',(#317,#318,#319,#320));
#47=EDGE_LOOP('',(#321,#322,#323,#324));
#48=EDGE_LOOP('',(#325,#326,#327,#328));
#49=EDGE_LOOP('',(#329,#330,#331,#332));
#50=EDGE_LOOP('',(#333,#334,#335,#336));
#51=EDGE_LOOP('',(#337,#338,#339,#340,#341,#342,#343,#344));
#52=EDGE_LOOP('',(#345,#346,#347,#348));
#53=EDGE_LOOP('',(#349,#350,#351,#352,#353,#354));
#54=EDGE_LOOP('',(#355,#356,#357,#358,#359,#360,#361,#362,#363));
#55=EDGE_LOOP('',(#364,#365,#366,#367));
#56=EDGE_LOOP('',(#368,#369,#370,#371));
#57=EDGE_LOOP('',(#372,#373,#374,#375,#376,#377,#378,#379,#380));
#58=EDGE_LOOP('',(#381,#382,#383,#384,#385,#386));
#59=LINE('',#565,#117);
#60=LINE('',#567,#118);
#61=LINE('',#569,#119);
#62=LINE('',#571,#120);
#63=LINE('',#573,#121);
#64=LINE('',#575,#122);
#65=LINE('',#577,#123);
#66=LINE('',#579,#124);
#67=LINE('',#581,#125);
#68=LINE('',#583,#126);
#69=LINE('',#585,#127);
#70=LINE('',#586,#128);
#71=LINE('',#589,#129);
#72=LINE('',#591,#130);
#73=LINE('',#593,#131);
#74=LINE('',#594,#132);
#75=LINE('',#598,#133);
#76=LINE('',#600,#134);
#77=LINE('',#602,#135);
#78=LINE('',#604,#136);
#79=LINE('',#606,#137);
#80=LINE('',#607,#138);
#81=LINE('',#610,#139);
#82=LINE('',#612,#140);
#83=LINE('',#613,#141);
#84=LINE('',#617,#142);
#85=LINE('',#618,#143);
#86=LINE('',#619,#144);
#87=LINE('',#623,#145);
#88=LINE('',#624,#146);
#89=LINE('',#625,#147);
#90=LINE('',#628,#148);
#91=LINE('',#629,#149);
#92=LINE('',#632,#150);
#93=LINE('',#633,#151);
#94=LINE('',#635,#152);
#95=LINE('',#639,#153);
#96=LINE('',#640,#154);
#97=LINE('',#641,#155);
#98=LINE('',#645,#156);
#99=LINE('',#646,#157);
#100=LINE('',#647,#158);
#101=LINE('',#649,#159);
#102=LINE('',#650,#160);
#103=LINE('',#653,#161);
#104=LINE('',#655,#162);
#105=LINE('',#656,#163);
#106=LINE('',#658,#164);
#107=LINE('',#659,#165);
#108=LINE('',#661,#166);
#109=LINE('',#663,#167);
#110=LINE('',#664,#168);
#111=LINE('',#666,#169);
#112=LINE('',#667,#170);
#113=LINE('',#671,#171);
#114=LINE('',#672,#172);
#115=LINE('',#674,#173);
#116=LINE('',#675,#174);
#117=VECTOR('',#465,10.);
#118=VECTOR('',#466,10.);
#119=VECTOR('',#467,10.);
#120=VECTOR('',#468,10.);
#121=VECTOR('',#469,10.);
#122=VECTOR('',#470,10.);
#123=VECTOR('',#471,10.);
#124=VECTOR('',#472,10.);
#125=VECTOR('',#473,10.);
#126=VECTOR('',#474,10.);
#127=VECTOR('',#475,10.);
#128=VECTOR('',#476,10.);
#129=VECTOR('',#477,10.);
#130=VECTOR('',#478,10.);
#131=VECTOR('',#479,10.);
#132=VECTOR('',#480,10.);
#133=VECTOR('',#483,10.);
#134=VECTOR('',#484,10.);
#135=VECTOR('',#485,10.);
#136=VECTOR('',#486,10.);
#137=VECTOR('',#487,10.);
#138=VECTOR('',#488,10.);
#139=VECTOR('',#491,10.);
#140=VECTOR('',#492,10.);
#141=VECTOR('',#493,10.);
#142=VECTOR('',#496,10.);
#143=VECTOR('',#497,10.);
#144=VECTOR('',#498,10.);
#145=VECTOR('',#501,10.);
#146=VECTOR('',#502,10.);
#147=VECTOR('',#503,10.);
#148=VECTOR('',#506,10.);
#149=VECTOR('',#507,10.);
#150=VECTOR('',#510,10.);
#151=VECTOR('',#511,10.);
#152=VECTOR('',#514,10.);
#153=VECTOR('',#517,10.);
#154=VECTOR('',#518,10.);
#155=VECTOR('',#519,10.);
#156=VECTOR('',#522,10.);
#157=VECTOR('',#523,10.);
#158=VECTOR('',#524,10.);
#159=VECTOR('',#527,10.);
#160=VECTOR('',#528,10.);
#161=VECTOR('',#531,10.);
#162=VECTOR('',#532,10.);
#163=VECTOR('',#533,10.);
#164=VECTOR('',#536,10.);
#165=VECTOR('',#537,10.);
#166=VECTOR('',#538,10.);
#167=VECTOR('',#539,10.);
#168=VECTOR('',#540,10.);
#169=VECTOR('',#543,10.);
#170=VECTOR('',#544,10.);
#171=VECTOR('',#551,10.);
#172=VECTOR('',#552,10.);
#173=VECTOR('',#555,10.);
#174=VECTOR('',#556,10.);
#175=VERTEX_POINT('',#563);
#176=VERTEX_POINT('',#564);
#177=VERTEX_POINT('',#566);
#178=VERTEX_POINT('',#568);
#179=VERTEX_POINT('',#570);
#180=VERTEX_POINT('',#572);
#181=VERTEX_POINT('',#574);
#182=VERTEX_POINT('',#576);
#183=VERTEX_POINT('',#578);
#184=VERTEX_POINT('',#580);
#185=VERTEX_POINT('',#582);
#186=VERTEX_POINT('',#584);
#187=VERTEX_POINT('',#587);
#188=VERTEX_POINT('',#588);
#189=VERTEX_POINT('',#590);
#190=VERTEX_POINT('',#592);
#191=VERTEX_POINT('',#596);
#192=VERTEX_POINT('',#597);
#193=VERTEX_POINT('',#599);
#194=VERTEX_POINT('',#601);
#195=VERTEX_POINT('',#603);
#196=VERTEX_POINT('',#605);
#197=VERTEX_POINT('',#609);
#198=VERTEX_POINT('',#611);
#199=VERTEX_POINT('',#615);
#200=VERTEX_POINT('',#616);
#201=VERTEX_POINT('',#621);
#202=VERTEX_POINT('',#622);
#203=VERTEX_POINT('',#627);
#204=VERTEX_POINT('',#631);
#205=VERTEX_POINT('',#637);
#206=VERTEX_POINT('',#638);
#207=VERTEX_POINT('',#643);
#208=VERTEX_POINT('',#644);
#209=VERTEX_POINT('',#652);
#210=VERTEX_POINT('',#654);
#211=VERTEX_POINT('',#660);
#212=VERTEX_POINT('',#662);
#213=EDGE_CURVE('',#175,#176,#59,.T.);
#214=EDGE_CURVE('',#176,#177,#60,.T.);
#215=EDGE_CURVE('',#177,#178,#61,.T.);
#216=EDGE_CURVE('',#178,#179,#62,.T.);
#217=EDGE_CURVE('',#179,#180,#63,.T.);
#218=EDGE_CURVE('',#180,#181,#64,.T.);
#219=EDGE_CURVE('',#181,#182,#65,.T.);
#220=EDGE_CURVE('',#182,#183,#66,.T.);
#221=EDGE_CURVE('',#183,#184,#67,.T.);
#222=EDGE_CURVE('',#184,#185,#68,.T.);
#223=EDGE_CURVE('',#185,#186,#69,.T.);
#224=EDGE_CURVE('',#186,#175,#70,.T.);
#225=EDGE_CURVE('',#187,#188,#71,.T.);
#226=EDGE_CURVE('',#188,#189,#72,.T.);
#227=EDGE_CURVE('',#189,#190,#73,.T.);
#228=EDGE_CURVE('',#190,#187,#74,.T.);
#229=EDGE_CURVE('',#191,#192,#75,.T.);
#230=EDGE_CURVE('',#191,#193,#76,.T.);
#231=EDGE_CURVE('',#194,#193,#77,.T.);
#232=EDGE_CURVE('',#194,#195,#78,.T.);
#233=EDGE_CURVE('',#196,#195,#79,.T.);
#234=EDGE_CURVE('',#192,#196,#80,.T.);
#235=EDGE_CURVE('',#197,#193,#81,.T.);
#236=EDGE_CURVE('',#198,#191,#82,.T.);
#237=EDGE_CURVE('',#197,#198,#83,.T.);
#238=EDGE_CURVE('',#199,#200,#84,.T.);
#239=EDGE_CURVE('',#200,#196,#85,.T.);
#240=EDGE_CURVE('',#195,#199,#86,.T.);
#241=EDGE_CURVE('',#201,#202,#87,.T.);
#242=EDGE_CURVE('',#202,#187,#88,.T.);
#243=EDGE_CURVE('',#201,#190,#89,.T.);
#244=EDGE_CURVE('',#203,#201,#90,.T.);
#245=EDGE_CURVE('',#203,#189,#91,.T.);
#246=EDGE_CURVE('',#204,#203,#92,.T.);
#247=EDGE_CURVE('',#204,#188,#93,.T.);
#248=EDGE_CURVE('',#202,#204,#94,.T.);
#249=EDGE_CURVE('',#205,#206,#95,.T.);
#250=EDGE_CURVE('',#206,#182,#96,.T.);
#251=EDGE_CURVE('',#205,#181,#97,.T.);
#252=EDGE_CURVE('',#207,#208,#98,.T.);
#253=EDGE_CURVE('',#208,#176,#99,.T.);
#254=EDGE_CURVE('',#207,#175,#100,.T.);
#255=EDGE_CURVE('',#206,#207,#101,.T.);
#256=EDGE_CURVE('',#208,#205,#102,.T.);
#257=EDGE_CURVE('',#178,#209,#103,.T.);
#258=EDGE_CURVE('',#210,#177,#104,.T.);
#259=EDGE_CURVE('',#209,#210,#105,.T.);
#260=EDGE_CURVE('',#209,#199,#106,.T.);
#261=EDGE_CURVE('',#197,#210,#107,.T.);
#262=EDGE_CURVE('',#211,#198,#108,.T.);
#263=EDGE_CURVE('',#212,#211,#109,.T.);
#264=EDGE_CURVE('',#212,#200,#110,.T.);
#265=EDGE_CURVE('',#193,#180,#111,.T.);
#266=EDGE_CURVE('',#194,#179,#112,.T.);
#267=EDGE_CURVE('',#212,#185,#113,.T.);
#268=EDGE_CURVE('',#211,#186,#114,.T.);
#269=EDGE_CURVE('',#192,#184,#115,.T.);
#270=EDGE_CURVE('',#191,#183,#116,.T.);
#271=ORIENTED_EDGE('',*,*,#213,.T.);
#272=ORIENTED_EDGE('',*,*,#214,.T.);
#273=ORIENTED_EDGE('',*,*,#215,.T.);
#274=ORIENTED_EDGE('',*,*,#216,.T.);
#275=ORIENTED_EDGE('',*,*,#217,.T.);
#276=ORIENTED_EDGE('',*,*,#218,.T.);
#277=ORIENTED_EDGE('',*,*,#219,.T.);
#278=ORIENTED_EDGE('',*,*,#220,.T.);
#279=ORIENTED_EDGE('',*,*,#221,.T.);
#280=ORIENTED_EDGE('',*,*,#222,.T.);
#281=ORIENTED_EDGE('',*,*,#223,.T.);
#282=ORIENTED_EDGE('',*,*,#224,.T.);
#283=ORIENTED_EDGE('',*,*,#225,.T.);
#284=ORIENTED_EDGE('',*,*,#226,.T.);
#285=ORIENTED_EDGE('',*,*,#227,.T.);
#286=ORIENTED_EDGE('',*,*,#228,.T.);
#287=ORIENTED_EDGE('',*,*,#229,.F.);
#288=ORIENTED_EDGE('',*,*,#230,.T.);
#289=ORIENTED_EDGE('',*,*,#231,.F.);
#290=ORIENTED_EDGE('',*,*,#232,.T.);
#291=ORIENTED_EDGE('',*,*,#233,.F.);
#292=ORIENTED_EDGE('',*,*,#234,.F.);
#293=ORIENTED_EDGE('',*,*,#235,.T.);
#294=ORIENTED_EDGE('',*,*,#230,.F.);
#295=ORIENTED_EDGE('',*,*,#236,.F.);
#296=ORIENTED_EDGE('',*,*,#237,.F.);
#297=ORIENTED_EDGE('',*,*,#238,.T.);
#298=ORIENTED_EDGE('',*,*,#239,.T.);
#299=ORIENTED_EDGE('',*,*,#233,.T.);
#300=ORIENTED_EDGE('',*,*,#240,.T.);
#301=ORIENTED_EDGE('',*,*,#241,.T.);
#302=ORIENTED_EDGE('',*,*,#242,.T.);
#303=ORIENTED_EDGE('',*,*,#228,.F.);
#304=ORIENTED_EDGE('',*,*,#243,.F.);
#305=ORIENTED_EDGE('',*,*,#244,.T.);
#306=ORIENTED_EDGE('',*,*,#243,.T.);
#307=ORIENTED_EDGE('',*,*,#227,.F.);
#308=ORIENTED_EDGE('',*,*,#245,.F.);
#309=ORIENTED_EDGE('',*,*,#246,.T.);
#310=ORIENTED_EDGE('',*,*,#245,.T.);
#311=ORIENTED_EDGE('',*,*,#226,.F.);
#312=ORIENTED_EDGE('',*,*,#247,.F.);
#313=ORIENTED_EDGE('',*,*,#248,.T.);
#314=ORIENTED_EDGE('',*,*,#247,.T.);
#315=ORIENTED_EDGE('',*,*,#225,.F.);
#316=ORIENTED_EDGE('',*,*,#242,.F.);
#317=ORIENTED_EDGE('',*,*,#249,.T.);
#318=ORIENTED_EDGE('',*,*,#250,.T.);
#319=ORIENTED_EDGE('',*,*,#219,.F.);
#320=ORIENTED_EDGE('',*,*,#251,.F.);
#321=ORIENTED_EDGE('',*,*,#252,.T.);
#322=ORIENTED_EDGE('',*,*,#253,.T.);
#323=ORIENTED_EDGE('',*,*,#213,.F.);
#324=ORIENTED_EDGE('',*,*,#254,.F.);
#325=ORIENTED_EDGE('',*,*,#252,.F.);
#326=ORIENTED_EDGE('',*,*,#255,.F.);
#327=ORIENTED_EDGE('',*,*,#249,.F.);
#328=ORIENTED_EDGE('',*,*,#256,.F.);
#329=ORIENTED_EDGE('',*,*,#248,.F.);
#330=ORIENTED_EDGE('',*,*,#241,.F.);
#331=ORIENTED_EDGE('',*,*,#244,.F.);
#332=ORIENTED_EDGE('',*,*,#246,.F.);
#333=ORIENTED_EDGE('',*,*,#257,.F.);
#334=ORIENTED_EDGE('',*,*,#215,.F.);
#335=ORIENTED_EDGE('',*,*,#258,.F.);
#336=ORIENTED_EDGE('',*,*,#259,.F.);
#337=ORIENTED_EDGE('',*,*,#260,.F.);
#338=ORIENTED_EDGE('',*,*,#259,.T.);
#339=ORIENTED_EDGE('',*,*,#261,.F.);
#340=ORIENTED_EDGE('',*,*,#237,.T.);
#341=ORIENTED_EDGE('',*,*,#262,.F.);
#342=ORIENTED_EDGE('',*,*,#263,.F.);
#343=ORIENTED_EDGE('',*,*,#264,.T.);
#344=ORIENTED_EDGE('',*,*,#238,.F.);
#345=ORIENTED_EDGE('',*,*,#231,.T.);
#346=ORIENTED_EDGE('',*,*,#265,.T.);
#347=ORIENTED_EDGE('',*,*,#217,.F.);
#348=ORIENTED_EDGE('',*,*,#266,.F.);
#349=ORIENTED_EDGE('',*,*,#266,.T.);
#350=ORIENTED_EDGE('',*,*,#216,.F.);
#351=ORIENTED_EDGE('',*,*,#257,.T.);
#352=ORIENTED_EDGE('',*,*,#260,.T.);
#353=ORIENTED_EDGE('',*,*,#240,.F.);
#354=ORIENTED_EDGE('',*,*,#232,.F.);
#355=ORIENTED_EDGE('',*,*,#235,.F.);
#356=ORIENTED_EDGE('',*,*,#261,.T.);
#357=ORIENTED_EDGE('',*,*,#258,.T.);
#358=ORIENTED_EDGE('',*,*,#214,.F.);
#359=ORIENTED_EDGE('',*,*,#253,.F.);
#360=ORIENTED_EDGE('',*,*,#256,.T.);
#361=ORIENTED_EDGE('',*,*,#251,.T.);
#362=ORIENTED_EDGE('',*,*,#218,.F.);
#363=ORIENTED_EDGE('',*,*,#265,.F.);
#364=ORIENTED_EDGE('',*,*,#267,.F.);
#365=ORIENTED_EDGE('',*,*,#263,.T.);
#366=ORIENTED_EDGE('',*,*,#268,.T.);
#367=ORIENTED_EDGE('',*,*,#223,.F.);
#368=ORIENTED_EDGE('',*,*,#229,.T.);
#369=ORIENTED_EDGE('',*,*,#269,.T.);
#370=ORIENTED_EDGE('',*,*,#221,.F.);
#371=ORIENTED_EDGE('',*,*,#270,.F.);
#372=ORIENTED_EDGE('',*,*,#236,.T.);
#373=ORIENTED_EDGE('',*,*,#270,.T.);
#374=ORIENTED_EDGE('',*,*,#220,.F.);
#375=ORIENTED_EDGE('',*,*,#250,.F.);
#376=ORIENTED_EDGE('',*,*,#255,.T.);
#377=ORIENTED_EDGE('',*,*,#254,.T.);
#378=ORIENTED_EDGE('',*,*,#224,.F.);
#379=ORIENTED_EDGE('',*,*,#268,.F.);
#380=ORIENTED_EDGE('',*,*,#262,.T.);
#381=ORIENTED_EDGE('',*,*,#264,.F.);
#382=ORIENTED_EDGE('',*,*,#267,.T.);
#383=ORIENTED_EDGE('',*,*,#222,.F.);
#384=ORIENTED_EDGE('',*,*,#269,.F.);
#385=ORIENTED_EDGE('',*,*,#234,.T.);
#386=ORIENTED_EDGE('',*,*,#239,.F.);
#387=PLANE('',#441);
#388=PLANE('',#442);
#389=PLANE('',#443);
#390=PLANE('',#444);
#391=PLANE('',#445);
#392=PLANE('',#446);
#393=PLANE('',#447);
#394=PLANE('',#448);
#395=PLANE('',#449);
#396=PLANE('',#450);
#397=PLANE('',#451);
#398=PLANE('',#452);
#399=PLANE('',#453);
#400=PLANE('',#454);
#401=PLANE('',#455);
#402=PLANE('',#456);
#403=PLANE('',#457);
#404=PLANE('',#458);
#405=PLANE('',#459);
#406=PLANE('',#460);
#407=ADVANCED_FACE('',(#17,#15),#387,.T.);
#408=ADVANCED_FACE('',(#18),#388,.T.);
#409=ADVANCED_FACE('',(#19),#389,.T.);
#410=ADVANCED_FACE('',(#20),#390,.T.);
#411=ADVANCED_FACE('',(#21),#391,.T.);
#412=ADVANCED_FACE('',(#22),#392,.T.);
#413=ADVANCED_FACE('',(#23),#393,.T.);
#414=ADVANCED_FACE('',(#24),#394,.T.);
#415=ADVANCED_FACE('',(#25),#395,.T.);
#416=ADVANCED_FACE('',(#26),#396,.T.);
#417=ADVANCED_FACE('',(#27,#16),#397,.F.);
#418=ADVANCED_FACE('',(#28),#398,.T.);
#419=ADVANCED_FACE('',(#29),#399,.T.);
#420=ADVANCED_FACE('',(#30),#400,.T.);
#421=ADVANCED_FACE('',(#31),#401,.T.);
#422=ADVANCED_FACE('',(#32),#402,.T.);
#423=ADVANCED_FACE('',(#33),#403,.T.);
#424=ADVANCED_FACE('',(#34),#404,.T.);
#425=ADVANCED_FACE('',(#35),#405,.T.);
#426=ADVANCED_FACE('',(#36),#406,.F.);
#427=CLOSED_SHELL('',(#407,#408,#409,#410,#411,#412,#413,#414,#415,#416,
#417,#418,#419,#420,#421,#422,#423,#424,#425,#426));
#428=DERIVED_UNIT_ELEMENT(#430,1.);
#429=DERIVED_UNIT_ELEMENT(#683,-3.);
#430=(
MASS_UNIT()
NAMED_UNIT(*)
SI_UNIT(.KILO.,.GRAM.)
);
#431=DERIVED_UNIT((#428,#429));
#432=MEASURE_REPRESENTATION_ITEM('density measure',
POSITIVE_RATIO_MEASURE(7850.),#431);
#433=PROPERTY_DEFINITION_REPRESENTATION(#438,#435);
#434=PROPERTY_DEFINITION_REPRESENTATION(#439,#436);
#435=REPRESENTATION('material name',(#437),#680);
#436=REPRESENTATION('density',(#432),#680);
#437=DESCRIPTIVE_REPRESENTATION_ITEM('Steel','Steel');
#438=PROPERTY_DEFINITION('material property','material name',#690);
#439=PROPERTY_DEFINITION('material property','density of part',#690);
#440=AXIS2_PLACEMENT_3D('',#561,#461,#462);
#441=AXIS2_PLACEMENT_3D('',#562,#463,#464);
#442=AXIS2_PLACEMENT_3D('',#595,#481,#482);
#443=AXIS2_PLACEMENT_3D('',#608,#489,#490);
#444=AXIS2_PLACEMENT_3D('',#614,#494,#495);
#445=AXIS2_PLACEMENT_3D('',#620,#499,#500);
#446=AXIS2_PLACEMENT_3D('',#626,#504,#505);
#447=AXIS2_PLACEMENT_3D('',#630,#508,#509);
#448=AXIS2_PLACEMENT_3D('',#634,#512,#513);
#449=AXIS2_PLACEMENT_3D('',#636,#515,#516);
#450=AXIS2_PLACEMENT_3D('',#642,#520,#521);
#451=AXIS2_PLACEMENT_3D('',#648,#525,#526);
#452=AXIS2_PLACEMENT_3D('',#651,#529,#530);
#453=AXIS2_PLACEMENT_3D('',#657,#534,#535);
#454=AXIS2_PLACEMENT_3D('',#665,#541,#542);
#455=AXIS2_PLACEMENT_3D('',#668,#545,#546);
#456=AXIS2_PLACEMENT_3D('',#669,#547,#548);
#457=AXIS2_PLACEMENT_3D('',#670,#549,#550);
#458=AXIS2_PLACEMENT_3D('',#673,#553,#554);
#459=AXIS2_PLACEMENT_3D('',#676,#557,#558);
#460=AXIS2_PLACEMENT_3D('',#677,#559,#560);
#461=DIRECTION('axis',(0.,0.,1.));
#462=DIRECTION('refdir',(1.,0.,0.));
#463=DIRECTION('center_axis',(0.,0.,1.));
#464=DIRECTION('ref_axis',(1.,0.,0.));
#465=DIRECTION('',(0.,1.,0.));
#466=DIRECTION('',(1.,0.,0.));
#467=DIRECTION('',(0.,1.,0.));
#468=DIRECTION('',(-1.,0.,0.));
#469=DIRECTION('',(0.,-1.,0.));
#470=DIRECTION('',(1.,0.,0.));
#471=DIRECTION('',(0.,-1.,0.));
#472=DIRECTION('',(-1.,0.,0.));
#473=DIRECTION('',(0.,-1.,0.));
#474=DIRECTION('',(1.,0.,0.));
#475=DIRECTION('',(0.,1.,0.));
#476=DIRECTION('',(-1.,0.,0.));
#477=DIRECTION('',(0.,1.,0.));
#478=DIRECTION('',(1.,0.,0.));
#479=DIRECTION('',(0.,-1.,0.));
#480=DIRECTION('',(-1.,0.,0.));
#481=DIRECTION('center_axis',(0.,0.,1.));
#482=DIRECTION('ref_axis',(0.,1.,0.));
#483=DIRECTION('',(0.,-1.,0.));
#484=DIRECTION('',(0.,1.,0.));
#485=DIRECTION('',(0.,-1.,0.));
#486=DIRECTION('',(-1.,0.,0.));
#487=DIRECTION('',(0.,1.,0.));
#488=DIRECTION('',(-1.,0.,0.));
#489=DIRECTION('center_axis',(1.,0.,0.));
#490=DIRECTION('ref_axis',(0.,1.,0.));
#491=DIRECTION('',(0.,0.,1.));
#492=DIRECTION('',(0.,0.,1.));
#493=DIRECTION('',(0.,-1.,0.));
#494=DIRECTION('center_axis',(-1.,0.,0.));
#495=DIRECTION('ref_axis',(0.,0.,1.));
#496=DIRECTION('',(0.,-1.,0.));
#497=DIRECTION('',(0.,0.,1.));
#498=DIRECTION('',(0.,0.,-1.));
#499=DIRECTION('center_axis',(0.,1.,0.));
#500=DIRECTION('ref_axis',(-1.,0.,0.));
#501=DIRECTION('',(-1.,0.,0.));
#502=DIRECTION('',(0.,0.,1.));
#503=DIRECTION('',(0.,0.,1.));
#504=DIRECTION('center_axis',(-1.,0.,0.));
#505=DIRECTION('ref_axis',(0.,-1.,0.));
#506=DIRECTION('',(0.,-1.,0.));
#507=DIRECTION('',(0.,0.,1.));
#508=DIRECTION('center_axis',(0.,-1.,0.));
#509=DIRECTION('ref_axis',(1.,0.,0.));
#510=DIRECTION('',(1.,0.,0.));
#511=DIRECTION('',(0.,0.,1.));
#512=DIRECTION('center_axis',(1.,0.,0.));
#513=DIRECTION('ref_axis',(0.,1.,0.));
#514=DIRECTION('',(0.,1.,0.));
#515=DIRECTION('center_axis',(-1.,0.,0.));
#516=DIRECTION('ref_axis',(0.,-1.,0.));
#517=DIRECTION('',(0.,-1.,0.));
#518=DIRECTION('',(0.,0.,1.));
#519=DIRECTION('',(0.,0.,1.));
#520=DIRECTION('center_axis',(1.,0.,0.));
#521=DIRECTION('ref_axis',(0.,1.,0.));
#522=DIRECTION('',(0.,1.,0.));
#523=DIRECTION('',(0.,0.,1.));
#524=DIRECTION('',(0.,0.,1.));
#525=DIRECTION('center_axis',(0.,0.,1.));
#526=DIRECTION('ref_axis',(1.,0.,0.));
#527=DIRECTION('',(1.,0.,0.));
#528=DIRECTION('',(-1.,0.,0.));
#529=DIRECTION('center_axis',(1.,0.,0.));
#530=DIRECTION('ref_axis',(0.,0.,1.));
#531=DIRECTION('',(0.,0.,-1.));
#532=DIRECTION('',(0.,0.,1.));
#533=DIRECTION('',(0.,-1.,0.));
#534=DIRECTION('center_axis',(0.,0.,-1.));
#535=DIRECTION('ref_axis',(1.,0.,0.));
#536=DIRECTION('',(-1.,0.,0.));
#537=DIRECTION('',(1.,0.,0.));
#538=DIRECTION('',(-1.,0.,0.));
#539=DIRECTION('',(0.,1.,0.));
#540=DIRECTION('',(-1.,0.,0.));
#541=DIRECTION('center_axis',(-1.,0.,0.));
#542=DIRECTION('ref_axis',(0.,0.,-1.));
#543=DIRECTION('',(0.,0.,1.));
#544=DIRECTION('',(0.,0.,1.));
#545=DIRECTION('center_axis',(0.,1.,0.));
#546=DIRECTION('ref_axis',(1.,0.,0.));
#547=DIRECTION('center_axis',(0.,-1.,0.));
#548=DIRECTION('ref_axis',(0.,0.,-1.));
#549=DIRECTION('center_axis',(1.,0.,0.));
#550=DIRECTION('ref_axis',(0.,0.,-1.));
#551=DIRECTION('',(0.,0.,1.));
#552=DIRECTION('',(0.,0.,1.));
#553=DIRECTION('center_axis',(-1.,0.,0.));
#554=DIRECTION('ref_axis',(0.,0.,1.));
#555=DIRECTION('',(0.,0.,1.));
#556=DIRECTION('',(0.,0.,1.));
#557=DIRECTION('center_axis',(0.,1.,0.));
#558=DIRECTION('ref_axis',(0.,0.,1.));
#559=DIRECTION('center_axis',(0.,1.,0.));
#560=DIRECTION('ref_axis',(1.,0.,0.));
#561=CARTESIAN_POINT('',(0.,0.,0.));
#562=CARTESIAN_POINT('Origin',(37.,14.,2.));
#563=CARTESIAN_POINT('',(72.,1.99999999999999,2.));
#564=CARTESIAN_POINT('',(72.,26.,2.));
#565=CARTESIAN_POINT('',(72.,1.99999999999999,2.));
#566=CARTESIAN_POINT('',(74.,26.,2.));
#567=CARTESIAN_POINT('',(0.,26.,2.));
#568=CARTESIAN_POINT('',(74.,28.,2.));
#569=CARTESIAN_POINT('',(74.,28.,2.));
#570=CARTESIAN_POINT('',(0.,28.,2.));
#571=CARTESIAN_POINT('',(0.,28.,2.));
#572=CARTESIAN_POINT('',(0.,26.,2.));
#573=CARTESIAN_POINT('',(0.,28.,2.));
#574=CARTESIAN_POINT('',(2.,26.,2.));
#575=CARTESIAN_POINT('',(0.,26.,2.));
#576=CARTESIAN_POINT('',(2.,1.99999999999999,2.));
#577=CARTESIAN_POINT('',(2.,26.,2.));
#578=CARTESIAN_POINT('',(0.,2.,2.));
#579=CARTESIAN_POINT('',(0.,2.,2.));
#580=CARTESIAN_POINT('',(0.,0.,2.));
#581=CARTESIAN_POINT('',(0.,0.,2.));
#582=CARTESIAN_POINT('',(74.0000011026859,0.,2.));
#583=CARTESIAN_POINT('',(0.,0.,2.));
#584=CARTESIAN_POINT('',(74.0000011026859,2.,2.));
#585=CARTESIAN_POINT('',(74.0000011026859,0.,2.));
#586=CARTESIAN_POINT('',(0.,2.,2.));
#587=CARTESIAN_POINT('',(5.,7.,2.));
#588=CARTESIAN_POINT('',(5.,21.,2.));
#589=CARTESIAN_POINT('',(5.,21.,2.));
#590=CARTESIAN_POINT('',(69.,21.,2.));
#591=CARTESIAN_POINT('',(69.,21.,2.));
#592=CARTESIAN_POINT('',(69.,7.,2.));
#593=CARTESIAN_POINT('',(69.,7.,2.));
#594=CARTESIAN_POINT('',(5.,7.,2.));
#595=CARTESIAN_POINT('Origin',(0.,0.,0.));
#596=CARTESIAN_POINT('',(0.,2.,0.));
#597=CARTESIAN_POINT('',(0.,0.,0.));
#598=CARTESIAN_POINT('',(0.,0.,0.));
#599=CARTESIAN_POINT('',(0.,26.,0.));
#600=CARTESIAN_POINT('',(0.,0.,0.));
#601=CARTESIAN_POINT('',(0.,28.0000004172325,0.));
#602=CARTESIAN_POINT('',(0.,14.,0.));
#603=CARTESIAN_POINT('',(-1.,28.0000004172325,0.));
#604=CARTESIAN_POINT('',(0.,28.0000004172325,0.));
#605=CARTESIAN_POINT('',(-1.,0.,0.));
#606=CARTESIAN_POINT('',(-1.,0.,0.));
#607=CARTESIAN_POINT('',(0.,0.,0.));
#608=CARTESIAN_POINT('Origin',(0.,14.0000002086163,-3.50000005215406));
#609=CARTESIAN_POINT('',(0.,26.,-7.00000010430813));
#610=CARTESIAN_POINT('',(0.,26.,0.));
#611=CARTESIAN_POINT('',(0.,2.,-7.00000010430813));
#612=CARTESIAN_POINT('',(0.,2.,-7.00000010430813));
#613=CARTESIAN_POINT('',(0.,28.0000004172325,-7.00000010430813));
#614=CARTESIAN_POINT('Origin',(-1.,14.0000002086163,-3.50000005215406));
#615=CARTESIAN_POINT('',(-1.,28.0000004172325,-7.00000010430813));
#616=CARTESIAN_POINT('',(-1.,0.,-7.00000010430813));
#617=CARTESIAN_POINT('',(-1.,28.0000004172325,-7.00000010430813));
#618=CARTESIAN_POINT('',(-1.,0.,-7.00000010430813));
#619=CARTESIAN_POINT('',(-1.,28.0000004172325,0.));
#620=CARTESIAN_POINT('Origin',(69.,7.,0.));
#621=CARTESIAN_POINT('',(69.,7.,0.));
#622=CARTESIAN_POINT('',(5.,7.,0.));
#623=CARTESIAN_POINT('',(5.,7.,0.));
#624=CARTESIAN_POINT('',(5.,7.,0.));
#625=CARTESIAN_POINT('',(69.,7.,0.));
#626=CARTESIAN_POINT('Origin',(69.,21.,0.));
#627=CARTESIAN_POINT('',(69.,21.,0.));
#628=CARTESIAN_POINT('',(69.,7.,0.));
#629=CARTESIAN_POINT('',(69.,21.,0.));
#630=CARTESIAN_POINT('Origin',(5.,21.,0.));
#631=CARTESIAN_POINT('',(5.,21.,0.));
#632=CARTESIAN_POINT('',(69.,21.,0.));
#633=CARTESIAN_POINT('',(5.,21.,0.));
#634=CARTESIAN_POINT('Origin',(5.,7.,0.));
#635=CARTESIAN_POINT('',(5.,21.,0.));
#636=CARTESIAN_POINT('Origin',(2.,26.,0.));
#637=CARTESIAN_POINT('',(2.,26.,0.));
#638=CARTESIAN_POINT('',(2.,1.99999999999999,0.));
#639=CARTESIAN_POINT('',(2.,26.,0.));
#640=CARTESIAN_POINT('',(2.,1.99999999999999,0.));
#641=CARTESIAN_POINT('',(2.,26.,0.));
#642=CARTESIAN_POINT('Origin',(72.,1.99999999999999,0.));
#643=CARTESIAN_POINT('',(72.,1.99999999999999,0.));
#644=CARTESIAN_POINT('',(72.,26.,0.));
#645=CARTESIAN_POINT('',(72.,1.99999999999999,0.));
#646=CARTESIAN_POINT('',(72.,26.,0.));
#647=CARTESIAN_POINT('',(72.,1.99999999999999,0.));
#648=CARTESIAN_POINT('Origin',(37.,14.,0.));
#649=CARTESIAN_POINT('',(0.,2.,0.));
#650=CARTESIAN_POINT('',(0.,26.,0.));
#651=CARTESIAN_POINT('Origin',(74.,28.,-7.00000010430813));
#652=CARTESIAN_POINT('',(74.,28.,-7.00000010430813));
#653=CARTESIAN_POINT('',(74.,28.,0.));
#654=CARTESIAN_POINT('',(74.,26.,-7.00000010430813));
#655=CARTESIAN_POINT('',(74.,26.,0.));
#656=CARTESIAN_POINT('',(74.,28.,-7.00000010430813));
#657=CARTESIAN_POINT('Origin',(0.,28.,-7.00000010430813));
#658=CARTESIAN_POINT('',(0.,28.0000004172325,-7.00000010430813));
#659=CARTESIAN_POINT('',(74.,26.,-7.00000010430813));
#660=CARTESIAN_POINT('',(74.0000011026859,2.,-7.00000010430813));
#661=CARTESIAN_POINT('',(74.0000011026859,2.,-7.00000010430813));
#662=CARTESIAN_POINT('',(74.0000011026859,0.,-7.00000010430813));
#663=CARTESIAN_POINT('',(74.0000011026859,0.,-7.00000010430813));
#664=CARTESIAN_POINT('',(74.0000011026859,0.,-7.00000010430813));
#665=CARTESIAN_POINT('Origin',(0.,28.,0.));
#666=CARTESIAN_POINT('',(0.,26.,0.));
#667=CARTESIAN_POINT('',(0.,28.,-7.00000010430813));
#668=CARTESIAN_POINT('Origin',(37.,28.,-3.50000005215406));
#669=CARTESIAN_POINT('Origin',(37.,26.,-3.50000005215406));
#670=CARTESIAN_POINT('Origin',(74.0000011026859,0.,0.));
#671=CARTESIAN_POINT('',(74.0000011026859,0.,0.));
#672=CARTESIAN_POINT('',(74.0000011026859,2.,0.));
#673=CARTESIAN_POINT('Origin',(0.,0.,-7.00000010430813));
#674=CARTESIAN_POINT('',(0.,0.,-7.00000010430813));
#675=CARTESIAN_POINT('',(0.,2.,-7.00000010430813));
#676=CARTESIAN_POINT('Origin',(37.000000551343,2.,-3.50000005215406));
#677=CARTESIAN_POINT('Origin',(37.000000551343,0.,-3.50000005215406));
#678=UNCERTAINTY_MEASURE_WITH_UNIT(LENGTH_MEASURE(0.01),#682,
'DISTANCE_ACCURACY_VALUE',
'Maximum model space distance between geometric entities at asserted c
onnectivities');
#679=UNCERTAINTY_MEASURE_WITH_UNIT(LENGTH_MEASURE(0.01),#682,
'DISTANCE_ACCURACY_VALUE',
'Maximum model space distance between geometric entities at asserted c
onnectivities');
#680=(
GEOMETRIC_REPRESENTATION_CONTEXT(3)
GLOBAL_UNCERTAINTY_ASSIGNED_CONTEXT((#678))
GLOBAL_UNIT_ASSIGNED_CONTEXT((#682,#684,#685))
REPRESENTATION_CONTEXT('','3D')
);
#681=(
GEOMETRIC_REPRESENTATION_CONTEXT(3)
GLOBAL_UNCERTAINTY_ASSIGNED_CONTEXT((#679))
GLOBAL_UNIT_ASSIGNED_CONTEXT((#682,#684,#685))
REPRESENTATION_CONTEXT('','3D')
);
#682=(
LENGTH_UNIT()
NAMED_UNIT(*)
SI_UNIT(.MILLI.,.METRE.)
);
#683=(
LENGTH_UNIT()
NAMED_UNIT(*)
SI_UNIT($,.METRE.)
);
#684=(
NAMED_UNIT(*)
PLANE_ANGLE_UNIT()
SI_UNIT($,.RADIAN.)
);
#685=(
NAMED_UNIT(*)
SI_UNIT($,.STERADIAN.)
SOLID_ANGLE_UNIT()
);
#686=SHAPE_DEFINITION_REPRESENTATION(#687,#688);
#687=PRODUCT_DEFINITION_SHAPE('',$,#690);
#688=SHAPE_REPRESENTATION('',(#440),#680);
#689=PRODUCT_DEFINITION_CONTEXT('part definition',#694,'design');
#690=PRODUCT_DEFINITION('2026-08-05-17-31-47-959','LCD Schutz',#691,#689);
#691=PRODUCT_DEFINITION_FORMATION('',$,#696);
#692=PRODUCT_RELATED_PRODUCT_CATEGORY('LCD Schutz','LCD Schutz',(#696));
#693=APPLICATION_PROTOCOL_DEFINITION('international standard',
'automotive_design',2009,#694);
#694=APPLICATION_CONTEXT(
'Core Data for Automotive Mechanical Design Process');
#695=PRODUCT_CONTEXT('part definition',#694,'mechanical');
#696=PRODUCT('2026-08-05-17-31-47-959','LCD Schutz',$,(#695));
#697=PRESENTATION_STYLE_ASSIGNMENT((#698));
#698=SURFACE_STYLE_USAGE(.BOTH.,#699);
#699=SURFACE_SIDE_STYLE('',(#700));
#700=SURFACE_STYLE_FILL_AREA(#701);
#701=FILL_AREA_STYLE('Steel - Satin',(#702));
#702=FILL_AREA_STYLE_COLOUR('Steel - Satin',#703);
#703=COLOUR_RGB('Steel - Satin',0.627450980392157,0.627450980392157,0.627450980392157);
ENDSEC;
END-ISO-10303-21;
