ISO-10303-21;
HEADER;
/* Generated by software containing ST-Developer
 * from STEP Tools, Inc. (www.steptools.com) 
 */

FILE_DESCRIPTION(
/* description */ (''),
/* implementation_level */ '2;1');

FILE_NAME(
/* name */ 'Movement Sensor.step',
/* time_stamp */ '2026-08-12T11:16:15+02:00',
/* author */ (''),
/* organization */ (''),
/* preprocessor_version */ 'ST-DEVELOPER v20.1',
/* originating_system */ 'Autodesk Translation Framework v15.8.0.0',
/* authorisation */ '');

FILE_SCHEMA (('AUTOMOTIVE_DESIGN { 1 0 10303 214 3 1 1 }'));
ENDSEC;

DATA;
#10=MECHANICAL_DESIGN_GEOMETRIC_PRESENTATION_REPRESENTATION('',(#13),#738);
#11=SHAPE_REPRESENTATION_RELATIONSHIP('SRR','None',#745,#12);
#12=ADVANCED_BREP_SHAPE_REPRESENTATION('',(#14),#737);
#13=STYLED_ITEM('',(#754),#14);
#14=MANIFOLD_SOLID_BREP('Body1',#462);
#15=CYLINDRICAL_SURFACE('',#496,12.);
#16=CIRCLE('',#495,12.);
#17=CIRCLE('',#497,12.);
#18=FACE_BOUND('',#61,.T.);
#19=FACE_BOUND('',#62,.T.);
#20=FACE_BOUND('',#64,.T.);
#21=FACE_BOUND('',#67,.T.);
#22=FACE_OUTER_BOUND('',#43,.T.);
#23=FACE_OUTER_BOUND('',#44,.T.);
#24=FACE_OUTER_BOUND('',#45,.T.);
#25=FACE_OUTER_BOUND('',#46,.T.);
#26=FACE_OUTER_BOUND('',#47,.T.);
#27=FACE_OUTER_BOUND('',#48,.T.);
#28=FACE_OUTER_BOUND('',#49,.T.);
#29=FACE_OUTER_BOUND('',#50,.T.);
#30=FACE_OUTER_BOUND('',#51,.T.);
#31=FACE_OUTER_BOUND('',#52,.T.);
#32=FACE_OUTER_BOUND('',#53,.T.);
#33=FACE_OUTER_BOUND('',#54,.T.);
#34=FACE_OUTER_BOUND('',#55,.T.);
#35=FACE_OUTER_BOUND('',#56,.T.);
#36=FACE_OUTER_BOUND('',#57,.T.);
#37=FACE_OUTER_BOUND('',#58,.T.);
#38=FACE_OUTER_BOUND('',#59,.T.);
#39=FACE_OUTER_BOUND('',#60,.T.);
#40=FACE_OUTER_BOUND('',#63,.T.);
#41=FACE_OUTER_BOUND('',#65,.T.);
#42=FACE_OUTER_BOUND('',#66,.T.);
#43=EDGE_LOOP('',(#295,#296,#297,#298));
#44=EDGE_LOOP('',(#299,#300,#301,#302,#303,#304,#305,#306,#307,#308,#309,
#310));
#45=EDGE_LOOP('',(#311,#312,#313,#314));
#46=EDGE_LOOP('',(#315,#316,#317,#318,#319,#320,#321,#322,#323,#324,#325,
#326));
#47=EDGE_LOOP('',(#327,#328,#329,#330));
#48=EDGE_LOOP('',(#331,#332,#333,#334));
#49=EDGE_LOOP('',(#335,#336,#337,#338));
#50=EDGE_LOOP('',(#339,#340,#341,#342));
#51=EDGE_LOOP('',(#343,#344,#345,#346));
#52=EDGE_LOOP('',(#347,#348,#349,#350));
#53=EDGE_LOOP('',(#351,#352,#353,#354));
#54=EDGE_LOOP('',(#355,#356,#357,#358));
#55=EDGE_LOOP('',(#359,#360,#361,#362));
#56=EDGE_LOOP('',(#363,#364,#365,#366));
#57=EDGE_LOOP('',(#367,#368,#369,#370,#371,#372,#373,#374,#375,#376,#377,
#378));
#58=EDGE_LOOP('',(#379,#380,#381,#382));
#59=EDGE_LOOP('',(#383,#384,#385,#386));
#60=EDGE_LOOP('',(#387,#388,#389,#390));
#61=EDGE_LOOP('',(#391,#392,#393,#394));
#62=EDGE_LOOP('',(#395,#396,#397,#398));
#63=EDGE_LOOP('',(#399,#400,#401,#402,#403,#404,#405,#406,#407,#408,#409,
#410));
#64=EDGE_LOOP('',(#411));
#65=EDGE_LOOP('',(#412,#413,#414,#415));
#66=EDGE_LOOP('',(#416,#417,#418,#419));
#67=EDGE_LOOP('',(#420));
#68=LINE('',#612,#129);
#69=LINE('',#614,#130);
#70=LINE('',#616,#131);
#71=LINE('',#617,#132);
#72=LINE('',#620,#133);
#73=LINE('',#622,#134);
#74=LINE('',#624,#135);
#75=LINE('',#626,#136);
#76=LINE('',#628,#137);
#77=LINE('',#630,#138);
#78=LINE('',#632,#139);
#79=LINE('',#634,#140);
#80=LINE('',#636,#141);
#81=LINE('',#638,#142);
#82=LINE('',#639,#143);
#83=LINE('',#642,#144);
#84=LINE('',#643,#145);
#85=LINE('',#646,#146);
#86=LINE('',#648,#147);
#87=LINE('',#650,#148);
#88=LINE('',#652,#149);
#89=LINE('',#654,#150);
#90=LINE('',#656,#151);
#91=LINE('',#658,#152);
#92=LINE('',#660,#153);
#93=LINE('',#662,#154);
#94=LINE('',#663,#155);
#95=LINE('',#665,#156);
#96=LINE('',#667,#157);
#97=LINE('',#668,#158);
#98=LINE('',#673,#159);
#99=LINE('',#675,#160);
#100=LINE('',#677,#161);
#101=LINE('',#678,#162);
#102=LINE('',#682,#163);
#103=LINE('',#684,#164);
#104=LINE('',#686,#165);
#105=LINE('',#687,#166);
#106=LINE('',#690,#167);
#107=LINE('',#692,#168);
#108=LINE('',#693,#169);
#109=LINE('',#696,#170);
#110=LINE('',#698,#171);
#111=LINE('',#699,#172);
#112=LINE('',#701,#173);
#113=LINE('',#702,#174);
#114=LINE('',#706,#175);
#115=LINE('',#708,#176);
#116=LINE('',#710,#177);
#117=LINE('',#711,#178);
#118=LINE('',#713,#179);
#119=LINE('',#714,#180);
#120=LINE('',#716,#181);
#121=LINE('',#717,#182);
#122=LINE('',#718,#183);
#123=LINE('',#720,#184);
#124=LINE('',#722,#185);
#125=LINE('',#724,#186);
#126=LINE('',#725,#187);
#127=LINE('',#726,#188);
#128=LINE('',#733,#189);
#129=VECTOR('',#503,10.);
#130=VECTOR('',#504,10.);
#131=VECTOR('',#505,10.);
#132=VECTOR('',#506,10.);
#133=VECTOR('',#509,10.);
#134=VECTOR('',#510,10.);
#135=VECTOR('',#511,10.);
#136=VECTOR('',#512,10.);
#137=VECTOR('',#513,10.);
#138=VECTOR('',#514,10.);
#139=VECTOR('',#515,10.);
#140=VECTOR('',#516,10.);
#141=VECTOR('',#517,10.);
#142=VECTOR('',#518,10.);
#143=VECTOR('',#519,10.);
#144=VECTOR('',#522,10.);
#145=VECTOR('',#523,10.);
#146=VECTOR('',#526,10.);
#147=VECTOR('',#527,10.);
#148=VECTOR('',#528,10.);
#149=VECTOR('',#529,10.);
#150=VECTOR('',#530,10.);
#151=VECTOR('',#531,10.);
#152=VECTOR('',#532,10.);
#153=VECTOR('',#533,10.);
#154=VECTOR('',#534,10.);
#155=VECTOR('',#535,10.);
#156=VECTOR('',#538,10.);
#157=VECTOR('',#541,10.);
#158=VECTOR('',#542,10.);
#159=VECTOR('',#547,10.);
#160=VECTOR('',#548,10.);
#161=VECTOR('',#549,10.);
#162=VECTOR('',#550,10.);
#163=VECTOR('',#553,10.);
#164=VECTOR('',#554,10.);
#165=VECTOR('',#555,10.);
#166=VECTOR('',#556,10.);
#167=VECTOR('',#559,10.);
#168=VECTOR('',#560,10.);
#169=VECTOR('',#561,10.);
#170=VECTOR('',#564,10.);
#171=VECTOR('',#565,10.);
#172=VECTOR('',#566,10.);
#173=VECTOR('',#569,10.);
#174=VECTOR('',#570,10.);
#175=VECTOR('',#573,10.);
#176=VECTOR('',#574,10.);
#177=VECTOR('',#575,10.);
#178=VECTOR('',#576,10.);
#179=VECTOR('',#579,10.);
#180=VECTOR('',#580,10.);
#181=VECTOR('',#583,10.);
#182=VECTOR('',#584,10.);
#183=VECTOR('',#585,10.);
#184=VECTOR('',#588,10.);
#185=VECTOR('',#591,10.);
#186=VECTOR('',#594,10.);
#187=VECTOR('',#595,10.);
#188=VECTOR('',#596,10.);
#189=VECTOR('',#605,12.);
#190=VERTEX_POINT('',#610);
#191=VERTEX_POINT('',#611);
#192=VERTEX_POINT('',#613);
#193=VERTEX_POINT('',#615);
#194=VERTEX_POINT('',#619);
#195=VERTEX_POINT('',#621);
#196=VERTEX_POINT('',#623);
#197=VERTEX_POINT('',#625);
#198=VERTEX_POINT('',#627);
#199=VERTEX_POINT('',#629);
#200=VERTEX_POINT('',#631);
#201=VERTEX_POINT('',#633);
#202=VERTEX_POINT('',#635);
#203=VERTEX_POINT('',#637);
#204=VERTEX_POINT('',#641);
#205=VERTEX_POINT('',#645);
#206=VERTEX_POINT('',#647);
#207=VERTEX_POINT('',#649);
#208=VERTEX_POINT('',#651);
#209=VERTEX_POINT('',#653);
#210=VERTEX_POINT('',#655);
#211=VERTEX_POINT('',#657);
#212=VERTEX_POINT('',#659);
#213=VERTEX_POINT('',#661);
#214=VERTEX_POINT('',#671);
#215=VERTEX_POINT('',#672);
#216=VERTEX_POINT('',#674);
#217=VERTEX_POINT('',#676);
#218=VERTEX_POINT('',#680);
#219=VERTEX_POINT('',#681);
#220=VERTEX_POINT('',#683);
#221=VERTEX_POINT('',#685);
#222=VERTEX_POINT('',#689);
#223=VERTEX_POINT('',#691);
#224=VERTEX_POINT('',#695);
#225=VERTEX_POINT('',#697);
#226=VERTEX_POINT('',#704);
#227=VERTEX_POINT('',#705);
#228=VERTEX_POINT('',#707);
#229=VERTEX_POINT('',#709);
#230=VERTEX_POINT('',#728);
#231=VERTEX_POINT('',#731);
#232=EDGE_CURVE('',#190,#191,#68,.T.);
#233=EDGE_CURVE('',#192,#190,#69,.T.);
#234=EDGE_CURVE('',#193,#192,#70,.T.);
#235=EDGE_CURVE('',#191,#193,#71,.T.);
#236=EDGE_CURVE('',#192,#194,#72,.T.);
#237=EDGE_CURVE('',#195,#194,#73,.T.);
#238=EDGE_CURVE('',#196,#195,#74,.T.);
#239=EDGE_CURVE('',#196,#197,#75,.T.);
#240=EDGE_CURVE('',#198,#197,#76,.T.);
#241=EDGE_CURVE('',#199,#198,#77,.T.);
#242=EDGE_CURVE('',#199,#200,#78,.T.);
#243=EDGE_CURVE('',#201,#200,#79,.T.);
#244=EDGE_CURVE('',#202,#201,#80,.T.);
#245=EDGE_CURVE('',#203,#202,#81,.T.);
#246=EDGE_CURVE('',#203,#193,#82,.T.);
#247=EDGE_CURVE('',#190,#204,#83,.T.);
#248=EDGE_CURVE('',#204,#194,#84,.T.);
#249=EDGE_CURVE('',#191,#205,#85,.T.);
#250=EDGE_CURVE('',#205,#206,#86,.T.);
#251=EDGE_CURVE('',#206,#207,#87,.T.);
#252=EDGE_CURVE('',#208,#207,#88,.T.);
#253=EDGE_CURVE('',#209,#208,#89,.T.);
#254=EDGE_CURVE('',#209,#210,#90,.T.);
#255=EDGE_CURVE('',#211,#210,#91,.T.);
#256=EDGE_CURVE('',#211,#212,#92,.T.);
#257=EDGE_CURVE('',#213,#212,#93,.T.);
#258=EDGE_CURVE('',#213,#204,#94,.T.);
#259=EDGE_CURVE('',#195,#213,#95,.T.);
#260=EDGE_CURVE('',#202,#206,#96,.T.);
#261=EDGE_CURVE('',#205,#203,#97,.T.);
#262=EDGE_CURVE('',#214,#215,#98,.T.);
#263=EDGE_CURVE('',#214,#216,#99,.T.);
#264=EDGE_CURVE('',#217,#216,#100,.T.);
#265=EDGE_CURVE('',#215,#217,#101,.T.);
#266=EDGE_CURVE('',#218,#219,#102,.T.);
#267=EDGE_CURVE('',#220,#218,#103,.T.);
#268=EDGE_CURVE('',#221,#220,#104,.T.);
#269=EDGE_CURVE('',#219,#221,#105,.T.);
#270=EDGE_CURVE('',#219,#222,#106,.T.);
#271=EDGE_CURVE('',#223,#221,#107,.T.);
#272=EDGE_CURVE('',#222,#223,#108,.T.);
#273=EDGE_CURVE('',#222,#224,#109,.T.);
#274=EDGE_CURVE('',#225,#223,#110,.T.);
#275=EDGE_CURVE('',#224,#225,#111,.T.);
#276=EDGE_CURVE('',#199,#209,#112,.T.);
#277=EDGE_CURVE('',#210,#198,#113,.T.);
#278=EDGE_CURVE('',#226,#227,#114,.T.);
#279=EDGE_CURVE('',#228,#226,#115,.T.);
#280=EDGE_CURVE('',#229,#228,#116,.T.);
#281=EDGE_CURVE('',#227,#229,#117,.T.);
#282=EDGE_CURVE('',#227,#214,#118,.T.);
#283=EDGE_CURVE('',#216,#229,#119,.T.);
#284=EDGE_CURVE('',#211,#228,#120,.T.);
#285=EDGE_CURVE('',#225,#197,#121,.T.);
#286=EDGE_CURVE('',#217,#220,#122,.T.);
#287=EDGE_CURVE('',#196,#212,#123,.T.);
#288=EDGE_CURVE('',#207,#201,#124,.T.);
#289=EDGE_CURVE('',#200,#208,#125,.T.);
#290=EDGE_CURVE('',#215,#226,#126,.T.);
#291=EDGE_CURVE('',#224,#218,#127,.T.);
#292=EDGE_CURVE('',#230,#230,#16,.T.);
#293=EDGE_CURVE('',#231,#231,#17,.T.);
#294=EDGE_CURVE('',#231,#230,#128,.T.);
#295=ORIENTED_EDGE('',*,*,#232,.F.);
#296=ORIENTED_EDGE('',*,*,#233,.F.);
#297=ORIENTED_EDGE('',*,*,#234,.F.);
#298=ORIENTED_EDGE('',*,*,#235,.F.);
#299=ORIENTED_EDGE('',*,*,#234,.T.);
#300=ORIENTED_EDGE('',*,*,#236,.T.);
#301=ORIENTED_EDGE('',*,*,#237,.F.);
#302=ORIENTED_EDGE('',*,*,#238,.F.);
#303=ORIENTED_EDGE('',*,*,#239,.T.);
#304=ORIENTED_EDGE('',*,*,#240,.F.);
#305=ORIENTED_EDGE('',*,*,#241,.F.);
#306=ORIENTED_EDGE('',*,*,#242,.T.);
#307=ORIENTED_EDGE('',*,*,#243,.F.);
#308=ORIENTED_EDGE('',*,*,#244,.F.);
#309=ORIENTED_EDGE('',*,*,#245,.F.);
#310=ORIENTED_EDGE('',*,*,#246,.T.);
#311=ORIENTED_EDGE('',*,*,#233,.T.);
#312=ORIENTED_EDGE('',*,*,#247,.T.);
#313=ORIENTED_EDGE('',*,*,#248,.T.);
#314=ORIENTED_EDGE('',*,*,#236,.F.);
#315=ORIENTED_EDGE('',*,*,#232,.T.);
#316=ORIENTED_EDGE('',*,*,#249,.T.);
#317=ORIENTED_EDGE('',*,*,#250,.T.);
#318=ORIENTED_EDGE('',*,*,#251,.T.);
#319=ORIENTED_EDGE('',*,*,#252,.F.);
#320=ORIENTED_EDGE('',*,*,#253,.F.);
#321=ORIENTED_EDGE('',*,*,#254,.T.);
#322=ORIENTED_EDGE('',*,*,#255,.F.);
#323=ORIENTED_EDGE('',*,*,#256,.T.);
#324=ORIENTED_EDGE('',*,*,#257,.F.);
#325=ORIENTED_EDGE('',*,*,#258,.T.);
#326=ORIENTED_EDGE('',*,*,#247,.F.);
#327=ORIENTED_EDGE('',*,*,#259,.F.);
#328=ORIENTED_EDGE('',*,*,#237,.T.);
#329=ORIENTED_EDGE('',*,*,#248,.F.);
#330=ORIENTED_EDGE('',*,*,#258,.F.);
#331=ORIENTED_EDGE('',*,*,#245,.T.);
#332=ORIENTED_EDGE('',*,*,#260,.T.);
#333=ORIENTED_EDGE('',*,*,#250,.F.);
#334=ORIENTED_EDGE('',*,*,#261,.T.);
#335=ORIENTED_EDGE('',*,*,#235,.T.);
#336=ORIENTED_EDGE('',*,*,#246,.F.);
#337=ORIENTED_EDGE('',*,*,#261,.F.);
#338=ORIENTED_EDGE('',*,*,#249,.F.);
#339=ORIENTED_EDGE('',*,*,#262,.F.);
#340=ORIENTED_EDGE('',*,*,#263,.T.);
#341=ORIENTED_EDGE('',*,*,#264,.F.);
#342=ORIENTED_EDGE('',*,*,#265,.F.);
#343=ORIENTED_EDGE('',*,*,#266,.F.);
#344=ORIENTED_EDGE('',*,*,#267,.F.);
#345=ORIENTED_EDGE('',*,*,#268,.F.);
#346=ORIENTED_EDGE('',*,*,#269,.F.);
#347=ORIENTED_EDGE('',*,*,#270,.F.);
#348=ORIENTED_EDGE('',*,*,#269,.T.);
#349=ORIENTED_EDGE('',*,*,#271,.F.);
#350=ORIENTED_EDGE('',*,*,#272,.F.);
#351=ORIENTED_EDGE('',*,*,#273,.F.);
#352=ORIENTED_EDGE('',*,*,#272,.T.);
#353=ORIENTED_EDGE('',*,*,#274,.F.);
#354=ORIENTED_EDGE('',*,*,#275,.F.);
#355=ORIENTED_EDGE('',*,*,#276,.F.);
#356=ORIENTED_EDGE('',*,*,#241,.T.);
#357=ORIENTED_EDGE('',*,*,#277,.F.);
#358=ORIENTED_EDGE('',*,*,#254,.F.);
#359=ORIENTED_EDGE('',*,*,#278,.F.);
#360=ORIENTED_EDGE('',*,*,#279,.F.);
#361=ORIENTED_EDGE('',*,*,#280,.F.);
#362=ORIENTED_EDGE('',*,*,#281,.F.);
#363=ORIENTED_EDGE('',*,*,#282,.F.);
#364=ORIENTED_EDGE('',*,*,#281,.T.);
#365=ORIENTED_EDGE('',*,*,#283,.F.);
#366=ORIENTED_EDGE('',*,*,#263,.F.);
#367=ORIENTED_EDGE('',*,*,#283,.T.);
#368=ORIENTED_EDGE('',*,*,#280,.T.);
#369=ORIENTED_EDGE('',*,*,#284,.F.);
#370=ORIENTED_EDGE('',*,*,#255,.T.);
#371=ORIENTED_EDGE('',*,*,#277,.T.);
#372=ORIENTED_EDGE('',*,*,#240,.T.);
#373=ORIENTED_EDGE('',*,*,#285,.F.);
#374=ORIENTED_EDGE('',*,*,#274,.T.);
#375=ORIENTED_EDGE('',*,*,#271,.T.);
#376=ORIENTED_EDGE('',*,*,#268,.T.);
#377=ORIENTED_EDGE('',*,*,#286,.F.);
#378=ORIENTED_EDGE('',*,*,#264,.T.);
#379=ORIENTED_EDGE('',*,*,#287,.F.);
#380=ORIENTED_EDGE('',*,*,#238,.T.);
#381=ORIENTED_EDGE('',*,*,#259,.T.);
#382=ORIENTED_EDGE('',*,*,#257,.T.);
#383=ORIENTED_EDGE('',*,*,#244,.T.);
#384=ORIENTED_EDGE('',*,*,#288,.F.);
#385=ORIENTED_EDGE('',*,*,#251,.F.);
#386=ORIENTED_EDGE('',*,*,#260,.F.);
#387=ORIENTED_EDGE('',*,*,#242,.F.);
#388=ORIENTED_EDGE('',*,*,#276,.T.);
#389=ORIENTED_EDGE('',*,*,#253,.T.);
#390=ORIENTED_EDGE('',*,*,#289,.F.);
#391=ORIENTED_EDGE('',*,*,#290,.T.);
#392=ORIENTED_EDGE('',*,*,#278,.T.);
#393=ORIENTED_EDGE('',*,*,#282,.T.);
#394=ORIENTED_EDGE('',*,*,#262,.T.);
#395=ORIENTED_EDGE('',*,*,#266,.T.);
#396=ORIENTED_EDGE('',*,*,#270,.T.);
#397=ORIENTED_EDGE('',*,*,#273,.T.);
#398=ORIENTED_EDGE('',*,*,#291,.T.);
#399=ORIENTED_EDGE('',*,*,#267,.T.);
#400=ORIENTED_EDGE('',*,*,#291,.F.);
#401=ORIENTED_EDGE('',*,*,#275,.T.);
#402=ORIENTED_EDGE('',*,*,#285,.T.);
#403=ORIENTED_EDGE('',*,*,#239,.F.);
#404=ORIENTED_EDGE('',*,*,#287,.T.);
#405=ORIENTED_EDGE('',*,*,#256,.F.);
#406=ORIENTED_EDGE('',*,*,#284,.T.);
#407=ORIENTED_EDGE('',*,*,#279,.T.);
#408=ORIENTED_EDGE('',*,*,#290,.F.);
#409=ORIENTED_EDGE('',*,*,#265,.T.);
#410=ORIENTED_EDGE('',*,*,#286,.T.);
#411=ORIENTED_EDGE('',*,*,#292,.F.);
#412=ORIENTED_EDGE('',*,*,#293,.F.);
#413=ORIENTED_EDGE('',*,*,#294,.T.);
#414=ORIENTED_EDGE('',*,*,#292,.T.);
#415=ORIENTED_EDGE('',*,*,#294,.F.);
#416=ORIENTED_EDGE('',*,*,#243,.T.);
#417=ORIENTED_EDGE('',*,*,#289,.T.);
#418=ORIENTED_EDGE('',*,*,#252,.T.);
#419=ORIENTED_EDGE('',*,*,#288,.T.);
#420=ORIENTED_EDGE('',*,*,#293,.T.);
#421=PLANE('',#476);
#422=PLANE('',#477);
#423=PLANE('',#478);
#424=PLANE('',#479);
#425=PLANE('',#480);
#426=PLANE('',#481);
#427=PLANE('',#482);
#428=PLANE('',#483);
#429=PLANE('',#484);
#430=PLANE('',#485);
#431=PLANE('',#486);
#432=PLANE('',#487);
#433=PLANE('',#488);
#434=PLANE('',#489);
#435=PLANE('',#490);
#436=PLANE('',#491);
#437=PLANE('',#492);
#438=PLANE('',#493);
#439=PLANE('',#494);
#440=PLANE('',#498);
#441=ADVANCED_FACE('',(#22),#421,.F.);
#442=ADVANCED_FACE('',(#23),#422,.T.);
#443=ADVANCED_FACE('',(#24),#423,.T.);
#444=ADVANCED_FACE('',(#25),#424,.T.);
#445=ADVANCED_FACE('',(#26),#425,.T.);
#446=ADVANCED_FACE('',(#27),#426,.T.);
#447=ADVANCED_FACE('',(#28),#427,.T.);
#448=ADVANCED_FACE('',(#29),#428,.T.);
#449=ADVANCED_FACE('',(#30),#429,.T.);
#450=ADVANCED_FACE('',(#31),#430,.T.);
#451=ADVANCED_FACE('',(#32),#431,.T.);
#452=ADVANCED_FACE('',(#33),#432,.T.);
#453=ADVANCED_FACE('',(#34),#433,.T.);
#454=ADVANCED_FACE('',(#35),#434,.T.);
#455=ADVANCED_FACE('',(#36),#435,.T.);
#456=ADVANCED_FACE('',(#37),#436,.T.);
#457=ADVANCED_FACE('',(#38),#437,.T.);
#458=ADVANCED_FACE('',(#39,#18,#19),#438,.T.);
#459=ADVANCED_FACE('',(#40,#20),#439,.F.);
#460=ADVANCED_FACE('',(#41),#15,.F.);
#461=ADVANCED_FACE('',(#42,#21),#440,.T.);
#462=CLOSED_SHELL('',(#441,#442,#443,#444,#445,#446,#447,#448,#449,#450,
#451,#452,#453,#454,#455,#456,#457,#458,#459,#460,#461));
#463=DERIVED_UNIT_ELEMENT(#465,1.);
#464=DERIVED_UNIT_ELEMENT(#740,-3.);
#465=(
MASS_UNIT()
NAMED_UNIT(*)
SI_UNIT(.KILO.,.GRAM.)
);
#466=DERIVED_UNIT((#463,#464));
#467=MEASURE_REPRESENTATION_ITEM('density measure',
POSITIVE_RATIO_MEASURE(7850.),#466);
#468=PROPERTY_DEFINITION_REPRESENTATION(#473,#470);
#469=PROPERTY_DEFINITION_REPRESENTATION(#474,#471);
#470=REPRESENTATION('material name',(#472),#737);
#471=REPRESENTATION('density',(#467),#737);
#472=DESCRIPTIVE_REPRESENTATION_ITEM('Steel','Steel');
#473=PROPERTY_DEFINITION('material property','material name',#747);
#474=PROPERTY_DEFINITION('material property','density of part',#747);
#475=AXIS2_PLACEMENT_3D('',#608,#499,#500);
#476=AXIS2_PLACEMENT_3D('',#609,#501,#502);
#477=AXIS2_PLACEMENT_3D('',#618,#507,#508);
#478=AXIS2_PLACEMENT_3D('',#640,#520,#521);
#479=AXIS2_PLACEMENT_3D('',#644,#524,#525);
#480=AXIS2_PLACEMENT_3D('',#664,#536,#537);
#481=AXIS2_PLACEMENT_3D('',#666,#539,#540);
#482=AXIS2_PLACEMENT_3D('',#669,#543,#544);
#483=AXIS2_PLACEMENT_3D('',#670,#545,#546);
#484=AXIS2_PLACEMENT_3D('',#679,#551,#552);
#485=AXIS2_PLACEMENT_3D('',#688,#557,#558);
#486=AXIS2_PLACEMENT_3D('',#694,#562,#563);
#487=AXIS2_PLACEMENT_3D('',#700,#567,#568);
#488=AXIS2_PLACEMENT_3D('',#703,#571,#572);
#489=AXIS2_PLACEMENT_3D('',#712,#577,#578);
#490=AXIS2_PLACEMENT_3D('',#715,#581,#582);
#491=AXIS2_PLACEMENT_3D('',#719,#586,#587);
#492=AXIS2_PLACEMENT_3D('',#721,#589,#590);
#493=AXIS2_PLACEMENT_3D('',#723,#592,#593);
#494=AXIS2_PLACEMENT_3D('',#727,#597,#598);
#495=AXIS2_PLACEMENT_3D('',#729,#599,#600);
#496=AXIS2_PLACEMENT_3D('',#730,#601,#602);
#497=AXIS2_PLACEMENT_3D('',#732,#603,#604);
#498=AXIS2_PLACEMENT_3D('',#734,#606,#607);
#499=DIRECTION('axis',(0.,0.,1.));
#500=DIRECTION('refdir',(1.,0.,0.));
#501=DIRECTION('center_axis',(0.,0.,-1.));
#502=DIRECTION('ref_axis',(0.,-1.,0.));
#503=DIRECTION('',(0.,-1.,0.));
#504=DIRECTION('',(1.,0.,0.));
#505=DIRECTION('',(2.82469725176795E-33,1.,0.));
#506=DIRECTION('',(-1.,0.,0.));
#507=DIRECTION('center_axis',(-1.,2.82469725176795E-33,0.));
#508=DIRECTION('ref_axis',(-2.82469725176795E-33,-1.,0.));
#509=DIRECTION('',(0.,0.,-1.));
#510=DIRECTION('',(0.,-1.,0.));
#511=DIRECTION('',(0.,0.,-1.));
#512=DIRECTION('',(-2.82469725176795E-33,-1.,0.));
#513=DIRECTION('',(0.,0.,1.));
#514=DIRECTION('',(0.,1.,0.));
#515=DIRECTION('',(0.,0.,1.));
#516=DIRECTION('',(-2.82469725176795E-33,-1.,0.));
#517=DIRECTION('',(0.,0.,1.));
#518=DIRECTION('',(0.,1.,0.));
#519=DIRECTION('',(0.,0.,1.));
#520=DIRECTION('center_axis',(0.,1.,0.));
#521=DIRECTION('ref_axis',(0.,0.,1.));
#522=DIRECTION('',(0.,0.,-1.));
#523=DIRECTION('',(-1.,0.,0.));
#524=DIRECTION('center_axis',(1.,0.,0.));
#525=DIRECTION('ref_axis',(0.,1.,0.));
#526=DIRECTION('',(0.,0.,-1.));
#527=DIRECTION('',(0.,1.,0.));
#528=DIRECTION('',(0.,0.,1.));
#529=DIRECTION('',(0.,1.,0.));
#530=DIRECTION('',(0.,0.,1.));
#531=DIRECTION('',(0.,1.,0.));
#532=DIRECTION('',(0.,0.,-1.));
#533=DIRECTION('',(0.,1.,0.));
#534=DIRECTION('',(0.,-2.22044604925031E-16,1.));
#535=DIRECTION('',(0.,-1.,0.));
#536=DIRECTION('center_axis',(0.,0.,1.));
#537=DIRECTION('ref_axis',(0.,-1.,0.));
#538=DIRECTION('',(1.,0.,0.));
#539=DIRECTION('center_axis',(0.,0.,-1.));
#540=DIRECTION('ref_axis',(-1.,0.,0.));
#541=DIRECTION('',(1.,0.,0.));
#542=DIRECTION('',(-1.,0.,0.));
#543=DIRECTION('center_axis',(0.,-1.,0.));
#544=DIRECTION('ref_axis',(0.,0.,-1.));
#545=DIRECTION('center_axis',(1.,0.,0.));
#546=DIRECTION('ref_axis',(0.,0.,-1.));
#547=DIRECTION('',(0.,0.,1.));
#548=DIRECTION('',(0.,1.,0.));
#549=DIRECTION('',(0.,0.,-1.));
#550=DIRECTION('',(0.,1.,0.));
#551=DIRECTION('center_axis',(-1.,0.,0.));
#552=DIRECTION('ref_axis',(0.,0.,1.));
#553=DIRECTION('',(0.,0.,-1.));
#554=DIRECTION('',(0.,-1.,0.));
#555=DIRECTION('',(0.,0.,1.));
#556=DIRECTION('',(0.,1.,0.));
#557=DIRECTION('center_axis',(0.,0.,1.));
#558=DIRECTION('ref_axis',(1.,0.,0.));
#559=DIRECTION('',(-1.,0.,0.));
#560=DIRECTION('',(1.,0.,0.));
#561=DIRECTION('',(0.,1.,0.));
#562=DIRECTION('center_axis',(1.,0.,0.));
#563=DIRECTION('ref_axis',(0.,0.,-1.));
#564=DIRECTION('',(0.,0.,1.));
#565=DIRECTION('',(0.,0.,-1.));
#566=DIRECTION('',(0.,1.,0.));
#567=DIRECTION('center_axis',(0.,0.,-1.));
#568=DIRECTION('ref_axis',(-1.,0.,0.));
#569=DIRECTION('',(1.,0.,0.));
#570=DIRECTION('',(-1.,0.,0.));
#571=DIRECTION('center_axis',(-1.,0.,0.));
#572=DIRECTION('ref_axis',(0.,0.,1.));
#573=DIRECTION('',(0.,0.,-1.));
#574=DIRECTION('',(0.,-1.,0.));
#575=DIRECTION('',(0.,0.,1.));
#576=DIRECTION('',(0.,1.,0.));
#577=DIRECTION('center_axis',(0.,0.,1.));
#578=DIRECTION('ref_axis',(1.,0.,0.));
#579=DIRECTION('',(-1.,0.,0.));
#580=DIRECTION('',(1.,0.,0.));
#581=DIRECTION('center_axis',(0.,1.,0.));
#582=DIRECTION('ref_axis',(0.,0.,1.));
#583=DIRECTION('',(-1.,0.,0.));
#584=DIRECTION('',(-1.,0.,0.));
#585=DIRECTION('',(-1.,0.,0.));
#586=DIRECTION('center_axis',(0.,-1.,-2.22044604925031E-16));
#587=DIRECTION('ref_axis',(0.,2.22044604925031E-16,-1.));
#588=DIRECTION('',(1.,0.,0.));
#589=DIRECTION('center_axis',(0.,1.,0.));
#590=DIRECTION('ref_axis',(-1.,0.,0.));
#591=DIRECTION('',(-1.,0.,0.));
#592=DIRECTION('center_axis',(0.,-1.,0.));
#593=DIRECTION('ref_axis',(1.,0.,0.));
#594=DIRECTION('',(1.,0.,0.));
#595=DIRECTION('',(1.,0.,0.));
#596=DIRECTION('',(1.,0.,0.));
#597=DIRECTION('center_axis',(0.,0.,1.));
#598=DIRECTION('ref_axis',(1.,0.,0.));
#599=DIRECTION('center_axis',(0.,0.,-1.));
#600=DIRECTION('ref_axis',(1.,0.,0.));
#601=DIRECTION('center_axis',(0.,0.,1.));
#602=DIRECTION('ref_axis',(1.,0.,0.));
#603=DIRECTION('center_axis',(0.,0.,-1.));
#604=DIRECTION('ref_axis',(1.,0.,0.));
#605=DIRECTION('',(0.,0.,-1.));
#606=DIRECTION('center_axis',(0.,0.,1.));
#607=DIRECTION('ref_axis',(1.,0.,0.));
#608=CARTESIAN_POINT('',(0.,0.,0.));
#609=CARTESIAN_POINT('Origin',(38.,21.0000003129244,-15.0000002235174));
#610=CARTESIAN_POINT('',(38.,21.0000003129244,-15.0000002235174));
#611=CARTESIAN_POINT('',(38.,8.00000011920929,-15.0000002235174));
#612=CARTESIAN_POINT('',(38.,10.5000001564622,-15.0000002235174));
#613=CARTESIAN_POINT('',(0.,21.0000003129244,-15.0000002235174));
#614=CARTESIAN_POINT('',(19.,21.0000004470348,-15.0000002235174));
#615=CARTESIAN_POINT('',(0.,8.00000011920929,-15.0000002235174));
#616=CARTESIAN_POINT('',(0.,25.5000001564622,-15.0000002235174));
#617=CARTESIAN_POINT('',(19.,8.,-15.0000002235174));
#618=CARTESIAN_POINT('Origin',(8.47409175530384E-32,30.,0.));
#619=CARTESIAN_POINT('',(0.,21.0000003129244,-20.0000002980232));
#620=CARTESIAN_POINT('',(0.,21.0000004470348,-20.));
#621=CARTESIAN_POINT('',(0.,28.0000004470348,-20.));
#622=CARTESIAN_POINT('',(0.,30.0000004470348,-20.0000002980232));
#623=CARTESIAN_POINT('',(0.,28.0000004470348,-4.44089209850062E-16));
#624=CARTESIAN_POINT('',(0.,28.0000004470348,-4.44089209850062E-16));
#625=CARTESIAN_POINT('',(0.,2.,0.));
#626=CARTESIAN_POINT('',(8.47409175530384E-32,30.,0.));
#627=CARTESIAN_POINT('',(0.,2.,-20.));
#628=CARTESIAN_POINT('',(0.,2.,2.));
#629=CARTESIAN_POINT('',(0.,0.,-20.));
#630=CARTESIAN_POINT('',(0.,0.,-20.));
#631=CARTESIAN_POINT('',(0.,0.,2.));
#632=CARTESIAN_POINT('',(0.,0.,0.));
#633=CARTESIAN_POINT('',(0.,30.,2.));
#634=CARTESIAN_POINT('',(8.47409175530384E-32,30.,2.));
#635=CARTESIAN_POINT('',(0.,30.0000004470348,-22.0000003278255));
#636=CARTESIAN_POINT('',(0.,30.,-20.));
#637=CARTESIAN_POINT('',(0.,8.,-22.));
#638=CARTESIAN_POINT('',(0.,21.0000004470348,-22.));
#639=CARTESIAN_POINT('',(0.,8.,-20.));
#640=CARTESIAN_POINT('Origin',(0.,21.0000004470348,-20.));
#641=CARTESIAN_POINT('',(38.,21.0000003129244,-20.0000002980232));
#642=CARTESIAN_POINT('',(38.,21.0000004470348,-20.));
#643=CARTESIAN_POINT('',(0.,21.0000004470348,-20.0000002980232));
#644=CARTESIAN_POINT('Origin',(38.,0.,0.));
#645=CARTESIAN_POINT('',(38.,8.,-22.));
#646=CARTESIAN_POINT('',(38.,8.,-20.));
#647=CARTESIAN_POINT('',(38.,30.0000004470348,-22.0000003278255));
#648=CARTESIAN_POINT('',(38.,21.0000003129244,-22.0000003278255));
#649=CARTESIAN_POINT('',(38.,30.,2.));
#650=CARTESIAN_POINT('',(38.,30.,0.));
#651=CARTESIAN_POINT('',(38.,0.,2.));
#652=CARTESIAN_POINT('',(38.,0.,2.));
#653=CARTESIAN_POINT('',(38.,0.,-20.));
#654=CARTESIAN_POINT('',(38.,0.,0.));
#655=CARTESIAN_POINT('',(38.,2.,-20.));
#656=CARTESIAN_POINT('',(38.,0.,-20.));
#657=CARTESIAN_POINT('',(38.0000005662441,2.,0.));
#658=CARTESIAN_POINT('',(38.,2.,-20.));
#659=CARTESIAN_POINT('',(38.,28.0000004470348,-4.44089209850064E-16));
#660=CARTESIAN_POINT('',(38.,15.,0.));
#661=CARTESIAN_POINT('',(38.,28.0000004470348,-20.));
#662=CARTESIAN_POINT('',(38.,28.0000004470348,-20.));
#663=CARTESIAN_POINT('',(38.,30.0000004470348,-20.0000002980232));
#664=CARTESIAN_POINT('Origin',(0.,30.0000004470348,-20.0000002980232));
#665=CARTESIAN_POINT('',(0.,28.0000004470348,-20.));
#666=CARTESIAN_POINT('Origin',(0.,8.,-22.));
#667=CARTESIAN_POINT('',(0.,30.0000004470348,-22.0000003278255));
#668=CARTESIAN_POINT('',(0.,8.,-22.));
#669=CARTESIAN_POINT('Origin',(0.,8.,-5.));
#670=CARTESIAN_POINT('Origin',(24.0000003576279,0.,0.));
#671=CARTESIAN_POINT('',(24.0000003576279,0.,-5.00000007450581));
#672=CARTESIAN_POINT('',(24.0000003576279,0.,0.));
#673=CARTESIAN_POINT('',(24.0000003576279,0.,-5.00000007450581));
#674=CARTESIAN_POINT('',(24.0000003576279,2.,-5.00000007450581));
#675=CARTESIAN_POINT('',(24.0000003576279,0.,-5.00000007450581));
#676=CARTESIAN_POINT('',(24.0000003576279,2.,0.));
#677=CARTESIAN_POINT('',(24.0000003576279,2.,-5.00000007450581));
#678=CARTESIAN_POINT('',(24.0000003576279,0.,0.));
#679=CARTESIAN_POINT('Origin',(14.,0.,-5.));
#680=CARTESIAN_POINT('',(14.,0.,0.));
#681=CARTESIAN_POINT('',(14.,0.,-5.));
#682=CARTESIAN_POINT('',(14.,0.,0.));
#683=CARTESIAN_POINT('',(14.,2.,0.));
#684=CARTESIAN_POINT('',(14.,0.,0.));
#685=CARTESIAN_POINT('',(14.,2.,-5.));
#686=CARTESIAN_POINT('',(14.,2.,0.));
#687=CARTESIAN_POINT('',(14.,0.,-5.));
#688=CARTESIAN_POINT('Origin',(8.00000011920929,0.,-5.));
#689=CARTESIAN_POINT('',(8.00000011920929,0.,-5.));
#690=CARTESIAN_POINT('',(14.,0.,-5.));
#691=CARTESIAN_POINT('',(8.00000011920929,2.,-5.));
#692=CARTESIAN_POINT('',(14.,2.,-5.));
#693=CARTESIAN_POINT('',(8.00000011920929,0.,-5.));
#694=CARTESIAN_POINT('Origin',(8.00000011920929,0.,0.));
#695=CARTESIAN_POINT('',(8.00000011920929,0.,0.));
#696=CARTESIAN_POINT('',(8.00000011920929,0.,-5.));
#697=CARTESIAN_POINT('',(8.00000011920929,2.,0.));
#698=CARTESIAN_POINT('',(8.00000011920929,2.,-5.));
#699=CARTESIAN_POINT('',(8.00000011920929,0.,0.));
#700=CARTESIAN_POINT('Origin',(38.,0.,-20.));
#701=CARTESIAN_POINT('',(0.,0.,-20.));
#702=CARTESIAN_POINT('',(0.,2.,-20.));
#703=CARTESIAN_POINT('Origin',(30.0000004470348,0.,-5.00000007450581));
#704=CARTESIAN_POINT('',(30.0000004470348,0.,0.));
#705=CARTESIAN_POINT('',(30.0000004470348,0.,-5.00000007450581));
#706=CARTESIAN_POINT('',(30.0000004470348,0.,0.));
#707=CARTESIAN_POINT('',(30.0000004470348,2.,0.));
#708=CARTESIAN_POINT('',(30.0000004470348,0.,0.));
#709=CARTESIAN_POINT('',(30.0000004470348,2.,-5.00000007450581));
#710=CARTESIAN_POINT('',(30.0000004470348,2.,0.));
#711=CARTESIAN_POINT('',(30.0000004470348,0.,-5.00000007450581));
#712=CARTESIAN_POINT('Origin',(24.0000003576279,0.,-5.00000007450581));
#713=CARTESIAN_POINT('',(30.0000004470348,0.,-5.00000007450581));
#714=CARTESIAN_POINT('',(30.0000004470348,2.,-5.00000007450581));
#715=CARTESIAN_POINT('Origin',(19.0000002831221,2.,-10.));
#716=CARTESIAN_POINT('',(13.5000002011657,2.,0.));
#717=CARTESIAN_POINT('',(13.5000002011657,2.,0.));
#718=CARTESIAN_POINT('',(13.5000002011657,2.,0.));
#719=CARTESIAN_POINT('Origin',(19.,28.0000004470348,-10.));
#720=CARTESIAN_POINT('',(13.5000000596046,28.0000004470348,0.));
#721=CARTESIAN_POINT('Origin',(38.,30.,0.));
#722=CARTESIAN_POINT('',(38.,30.,2.));
#723=CARTESIAN_POINT('Origin',(0.,0.,0.));
#724=CARTESIAN_POINT('',(0.,0.,2.));
#725=CARTESIAN_POINT('',(4.00000005960464,0.,0.));
#726=CARTESIAN_POINT('',(4.00000005960464,0.,0.));
#727=CARTESIAN_POINT('Origin',(8.00000011920929,0.,0.));
#728=CARTESIAN_POINT('',(8.,15.0000005066036,0.));
#729=CARTESIAN_POINT('Origin',(20.,15.0000005066036,0.));
#730=CARTESIAN_POINT('Origin',(20.,15.0000005066036,0.));
#731=CARTESIAN_POINT('',(8.,15.0000005066036,2.));
#732=CARTESIAN_POINT('Origin',(20.,15.0000005066036,2.));
#733=CARTESIAN_POINT('',(8.,15.0000005066036,0.));
#734=CARTESIAN_POINT('Origin',(19.,15.,2.));
#735=UNCERTAINTY_MEASURE_WITH_UNIT(LENGTH_MEASURE(0.01),#739,
'DISTANCE_ACCURACY_VALUE',
'Maximum model space distance between geometric entities at asserted c
onnectivities');
#736=UNCERTAINTY_MEASURE_WITH_UNIT(LENGTH_MEASURE(0.01),#739,
'DISTANCE_ACCURACY_VALUE',
'Maximum model space distance between geometric entities at asserted c
onnectivities');
#737=(
GEOMETRIC_REPRESENTATION_CONTEXT(3)
GLOBAL_UNCERTAINTY_ASSIGNED_CONTEXT((#735))
GLOBAL_UNIT_ASSIGNED_CONTEXT((#739,#741,#742))
REPRESENTATION_CONTEXT('','3D')
);
#738=(
GEOMETRIC_REPRESENTATION_CONTEXT(3)
GLOBAL_UNCERTAINTY_ASSIGNED_CONTEXT((#736))
GLOBAL_UNIT_ASSIGNED_CONTEXT((#739,#741,#742))
REPRESENTATION_CONTEXT('','3D')
);
#739=(
LENGTH_UNIT()
NAMED_UNIT(*)
SI_UNIT(.MILLI.,.METRE.)
);
#740=(
LENGTH_UNIT()
NAMED_UNIT(*)
SI_UNIT($,.METRE.)
);
#741=(
NAMED_UNIT(*)
PLANE_ANGLE_UNIT()
SI_UNIT($,.RADIAN.)
);
#742=(
NAMED_UNIT(*)
SI_UNIT($,.STERADIAN.)
SOLID_ANGLE_UNIT()
);
#743=SHAPE_DEFINITION_REPRESENTATION(#744,#745);
#744=PRODUCT_DEFINITION_SHAPE('',$,#747);
#745=SHAPE_REPRESENTATION('',(#475),#737);
#746=PRODUCT_DEFINITION_CONTEXT('part definition',#751,'design');
#747=PRODUCT_DEFINITION('2026-08-05-21-35-21-258','Movement Sensor',#748,
#746);
#748=PRODUCT_DEFINITION_FORMATION('',$,#753);
#749=PRODUCT_RELATED_PRODUCT_CATEGORY('Movement Sensor',
'Movement Sensor',(#753));
#750=APPLICATION_PROTOCOL_DEFINITION('international standard',
'automotive_design',2009,#751);
#751=APPLICATION_CONTEXT(
'Core Data for Automotive Mechanical Design Process');
#752=PRODUCT_CONTEXT('part definition',#751,'mechanical');
#753=PRODUCT('2026-08-05-21-35-21-258','Movement Sensor',$,(#752));
#754=PRESENTATION_STYLE_ASSIGNMENT((#755));
#755=SURFACE_STYLE_USAGE(.BOTH.,#756);
#756=SURFACE_SIDE_STYLE('',(#757));
#757=SURFACE_STYLE_FILL_AREA(#758);
#758=FILL_AREA_STYLE('Steel - Satin',(#759));
#759=FILL_AREA_STYLE_COLOUR('Steel - Satin',#760);
#760=COLOUR_RGB('Steel - Satin',0.627450980392157,0.627450980392157,0.627450980392157);
ENDSEC;
END-ISO-10303-21;
