ISO-10303-21;
HEADER;
/* Generated by software containing ST-Developer
 * from STEP Tools, Inc. (www.steptools.com) 
 */

FILE_DESCRIPTION(
/* description */ (''),
/* implementation_level */ '2;1');

FILE_NAME(
/* name */ 'Ventilator Halterung andere Mae.step',
/* time_stamp */ '2026-08-12T11:16:50+02:00',
/* author */ (''),
/* organization */ (''),
/* preprocessor_version */ 'ST-DEVELOPER v20.1',
/* originating_system */ 'Autodesk Translation Framework v15.8.0.0',
/* authorisation */ '');

FILE_SCHEMA (('AUTOMOTIVE_DESIGN { 1 0 10303 214 3 1 1 }'));
ENDSEC;

DATA;
#10=MECHANICAL_DESIGN_GEOMETRIC_PRESENTATION_REPRESENTATION('',(#13),#1049);
#11=SHAPE_REPRESENTATION_RELATIONSHIP('SRR','None',#1056,#12);
#12=ADVANCED_BREP_SHAPE_REPRESENTATION('',(#14),#1048);
#13=STYLED_ITEM('',(#1065),#14);
#14=MANIFOLD_SOLID_BREP('Body1',#661);
#15=FACE_BOUND('',#82,.T.);
#16=FACE_BOUND('',#83,.T.);
#17=FACE_BOUND('',#85,.T.);
#18=FACE_BOUND('',#86,.T.);
#19=FACE_OUTER_BOUND('',#51,.T.);
#20=FACE_OUTER_BOUND('',#52,.T.);
#21=FACE_OUTER_BOUND('',#53,.T.);
#22=FACE_OUTER_BOUND('',#54,.T.);
#23=FACE_OUTER_BOUND('',#55,.T.);
#24=FACE_OUTER_BOUND('',#56,.T.);
#25=FACE_OUTER_BOUND('',#57,.T.);
#26=FACE_OUTER_BOUND('',#58,.T.);
#27=FACE_OUTER_BOUND('',#59,.T.);
#28=FACE_OUTER_BOUND('',#60,.T.);
#29=FACE_OUTER_BOUND('',#61,.T.);
#30=FACE_OUTER_BOUND('',#62,.T.);
#31=FACE_OUTER_BOUND('',#63,.T.);
#32=FACE_OUTER_BOUND('',#64,.T.);
#33=FACE_OUTER_BOUND('',#65,.T.);
#34=FACE_OUTER_BOUND('',#66,.T.);
#35=FACE_OUTER_BOUND('',#67,.T.);
#36=FACE_OUTER_BOUND('',#68,.T.);
#37=FACE_OUTER_BOUND('',#69,.T.);
#38=FACE_OUTER_BOUND('',#70,.T.);
#39=FACE_OUTER_BOUND('',#71,.T.);
#40=FACE_OUTER_BOUND('',#72,.T.);
#41=FACE_OUTER_BOUND('',#73,.T.);
#42=FACE_OUTER_BOUND('',#74,.T.);
#43=FACE_OUTER_BOUND('',#75,.T.);
#44=FACE_OUTER_BOUND('',#76,.T.);
#45=FACE_OUTER_BOUND('',#77,.T.);
#46=FACE_OUTER_BOUND('',#78,.T.);
#47=FACE_OUTER_BOUND('',#79,.T.);
#48=FACE_OUTER_BOUND('',#80,.T.);
#49=FACE_OUTER_BOUND('',#81,.T.);
#50=FACE_OUTER_BOUND('',#84,.T.);
#51=EDGE_LOOP('',(#417,#418,#419,#420));
#52=EDGE_LOOP('',(#421,#422,#423,#424));
#53=EDGE_LOOP('',(#425,#426,#427,#428));
#54=EDGE_LOOP('',(#429,#430,#431,#432));
#55=EDGE_LOOP('',(#433,#434,#435,#436));
#56=EDGE_LOOP('',(#437,#438,#439,#440));
#57=EDGE_LOOP('',(#441,#442,#443,#444));
#58=EDGE_LOOP('',(#445,#446,#447,#448,#449,#450));
#59=EDGE_LOOP('',(#451,#452,#453,#454));
#60=EDGE_LOOP('',(#455,#456,#457,#458));
#61=EDGE_LOOP('',(#459,#460,#461,#462));
#62=EDGE_LOOP('',(#463,#464,#465,#466,#467,#468));
#63=EDGE_LOOP('',(#469,#470,#471,#472));
#64=EDGE_LOOP('',(#473,#474,#475,#476,#477,#478,#479,#480));
#65=EDGE_LOOP('',(#481,#482,#483,#484));
#66=EDGE_LOOP('',(#485,#486,#487,#488,#489,#490,#491,#492));
#67=EDGE_LOOP('',(#493,#494,#495,#496));
#68=EDGE_LOOP('',(#497,#498,#499,#500));
#69=EDGE_LOOP('',(#501,#502,#503,#504));
#70=EDGE_LOOP('',(#505,#506,#507,#508));
#71=EDGE_LOOP('',(#509,#510,#511,#512));
#72=EDGE_LOOP('',(#513,#514,#515,#516));
#73=EDGE_LOOP('',(#517,#518,#519,#520));
#74=EDGE_LOOP('',(#521,#522,#523,#524));
#75=EDGE_LOOP('',(#525,#526,#527,#528));
#76=EDGE_LOOP('',(#529,#530,#531,#532));
#77=EDGE_LOOP('',(#533,#534,#535,#536,#537,#538,#539,#540));
#78=EDGE_LOOP('',(#541,#542,#543,#544));
#79=EDGE_LOOP('',(#545,#546,#547,#548,#549,#550,#551,#552));
#80=EDGE_LOOP('',(#553,#554,#555,#556));
#81=EDGE_LOOP('',(#557,#558,#559,#560));
#82=EDGE_LOOP('',(#561,#562,#563,#564));
#83=EDGE_LOOP('',(#565,#566,#567,#568));
#84=EDGE_LOOP('',(#569,#570,#571,#572,#573,#574,#575,#576,#577,#578,#579,
#580,#581,#582,#583,#584,#585,#586,#587,#588));
#85=EDGE_LOOP('',(#589,#590,#591,#592));
#86=EDGE_LOOP('',(#593,#594,#595,#596));
#87=LINE('',#867,#177);
#88=LINE('',#869,#178);
#89=LINE('',#871,#179);
#90=LINE('',#872,#180);
#91=LINE('',#875,#181);
#92=LINE('',#877,#182);
#93=LINE('',#878,#183);
#94=LINE('',#882,#184);
#95=LINE('',#884,#185);
#96=LINE('',#886,#186);
#97=LINE('',#887,#187);
#98=LINE('',#890,#188);
#99=LINE('',#892,#189);
#100=LINE('',#893,#190);
#101=LINE('',#897,#191);
#102=LINE('',#899,#192);
#103=LINE('',#901,#193);
#104=LINE('',#902,#194);
#105=LINE('',#905,#195);
#106=LINE('',#907,#196);
#107=LINE('',#908,#197);
#108=LINE('',#911,#198);
#109=LINE('',#912,#199);
#110=LINE('',#915,#200);
#111=LINE('',#917,#201);
#112=LINE('',#919,#202);
#113=LINE('',#920,#203);
#114=LINE('',#924,#204);
#115=LINE('',#926,#205);
#116=LINE('',#928,#206);
#117=LINE('',#929,#207);
#118=LINE('',#932,#208);
#119=LINE('',#934,#209);
#120=LINE('',#935,#210);
#121=LINE('',#938,#211);
#122=LINE('',#939,#212);
#123=LINE('',#942,#213);
#124=LINE('',#944,#214);
#125=LINE('',#946,#215);
#126=LINE('',#947,#216);
#127=LINE('',#949,#217);
#128=LINE('',#950,#218);
#129=LINE('',#952,#219);
#130=LINE('',#955,#220);
#131=LINE('',#957,#221);
#132=LINE('',#958,#222);
#133=LINE('',#961,#223);
#134=LINE('',#962,#224);
#135=LINE('',#963,#225);
#136=LINE('',#966,#226);
#137=LINE('',#967,#227);
#138=LINE('',#969,#228);
#139=LINE('',#973,#229);
#140=LINE('',#975,#230);
#141=LINE('',#977,#231);
#142=LINE('',#978,#232);
#143=LINE('',#981,#233);
#144=LINE('',#983,#234);
#145=LINE('',#984,#235);
#146=LINE('',#987,#236);
#147=LINE('',#989,#237);
#148=LINE('',#990,#238);
#149=LINE('',#992,#239);
#150=LINE('',#993,#240);
#151=LINE('',#997,#241);
#152=LINE('',#999,#242);
#153=LINE('',#1001,#243);
#154=LINE('',#1002,#244);
#155=LINE('',#1005,#245);
#156=LINE('',#1007,#246);
#157=LINE('',#1008,#247);
#158=LINE('',#1011,#248);
#159=LINE('',#1013,#249);
#160=LINE('',#1014,#250);
#161=LINE('',#1016,#251);
#162=LINE('',#1017,#252);
#163=LINE('',#1020,#253);
#164=LINE('',#1022,#254);
#165=LINE('',#1024,#255);
#166=LINE('',#1026,#256);
#167=LINE('',#1027,#257);
#168=LINE('',#1030,#258);
#169=LINE('',#1032,#259);
#170=LINE('',#1033,#260);
#171=LINE('',#1035,#261);
#172=LINE('',#1037,#262);
#173=LINE('',#1039,#263);
#174=LINE('',#1040,#264);
#175=LINE('',#1042,#265);
#176=LINE('',#1043,#266);
#177=VECTOR('',#711,10.);
#178=VECTOR('',#712,10.);
#179=VECTOR('',#713,10.);
#180=VECTOR('',#714,10.);
#181=VECTOR('',#717,10.);
#182=VECTOR('',#718,10.);
#183=VECTOR('',#719,10.);
#184=VECTOR('',#722,10.);
#185=VECTOR('',#723,10.);
#186=VECTOR('',#724,10.);
#187=VECTOR('',#725,10.);
#188=VECTOR('',#728,10.);
#189=VECTOR('',#729,10.);
#190=VECTOR('',#730,10.);
#191=VECTOR('',#733,10.);
#192=VECTOR('',#734,10.);
#193=VECTOR('',#735,10.);
#194=VECTOR('',#736,10.);
#195=VECTOR('',#739,10.);
#196=VECTOR('',#740,10.);
#197=VECTOR('',#741,10.);
#198=VECTOR('',#744,10.);
#199=VECTOR('',#745,10.);
#200=VECTOR('',#748,10.);
#201=VECTOR('',#749,10.);
#202=VECTOR('',#750,10.);
#203=VECTOR('',#751,10.);
#204=VECTOR('',#754,10.);
#205=VECTOR('',#755,10.);
#206=VECTOR('',#756,10.);
#207=VECTOR('',#757,10.);
#208=VECTOR('',#760,10.);
#209=VECTOR('',#761,10.);
#210=VECTOR('',#762,10.);
#211=VECTOR('',#765,10.);
#212=VECTOR('',#766,10.);
#213=VECTOR('',#769,10.);
#214=VECTOR('',#770,10.);
#215=VECTOR('',#771,10.);
#216=VECTOR('',#772,10.);
#217=VECTOR('',#775,10.);
#218=VECTOR('',#776,10.);
#219=VECTOR('',#779,10.);
#220=VECTOR('',#782,10.);
#221=VECTOR('',#783,10.);
#222=VECTOR('',#784,10.);
#223=VECTOR('',#787,10.);
#224=VECTOR('',#788,10.);
#225=VECTOR('',#789,10.);
#226=VECTOR('',#792,10.);
#227=VECTOR('',#793,10.);
#228=VECTOR('',#796,10.);
#229=VECTOR('',#799,10.);
#230=VECTOR('',#800,10.);
#231=VECTOR('',#801,10.);
#232=VECTOR('',#802,10.);
#233=VECTOR('',#805,10.);
#234=VECTOR('',#806,10.);
#235=VECTOR('',#807,10.);
#236=VECTOR('',#810,10.);
#237=VECTOR('',#811,10.);
#238=VECTOR('',#812,10.);
#239=VECTOR('',#815,10.);
#240=VECTOR('',#816,10.);
#241=VECTOR('',#819,10.);
#242=VECTOR('',#820,10.);
#243=VECTOR('',#821,10.);
#244=VECTOR('',#822,10.);
#245=VECTOR('',#825,10.);
#246=VECTOR('',#826,10.);
#247=VECTOR('',#827,10.);
#248=VECTOR('',#830,10.);
#249=VECTOR('',#831,10.);
#250=VECTOR('',#832,10.);
#251=VECTOR('',#835,10.);
#252=VECTOR('',#836,10.);
#253=VECTOR('',#839,10.);
#254=VECTOR('',#840,10.);
#255=VECTOR('',#841,10.);
#256=VECTOR('',#842,10.);
#257=VECTOR('',#843,10.);
#258=VECTOR('',#846,10.);
#259=VECTOR('',#847,10.);
#260=VECTOR('',#848,10.);
#261=VECTOR('',#851,10.);
#262=VECTOR('',#852,10.);
#263=VECTOR('',#853,10.);
#264=VECTOR('',#854,10.);
#265=VECTOR('',#857,10.);
#266=VECTOR('',#858,10.);
#267=VERTEX_POINT('',#865);
#268=VERTEX_POINT('',#866);
#269=VERTEX_POINT('',#868);
#270=VERTEX_POINT('',#870);
#271=VERTEX_POINT('',#874);
#272=VERTEX_POINT('',#876);
#273=VERTEX_POINT('',#880);
#274=VERTEX_POINT('',#881);
#275=VERTEX_POINT('',#883);
#276=VERTEX_POINT('',#885);
#277=VERTEX_POINT('',#889);
#278=VERTEX_POINT('',#891);
#279=VERTEX_POINT('',#895);
#280=VERTEX_POINT('',#896);
#281=VERTEX_POINT('',#898);
#282=VERTEX_POINT('',#900);
#283=VERTEX_POINT('',#904);
#284=VERTEX_POINT('',#906);
#285=VERTEX_POINT('',#910);
#286=VERTEX_POINT('',#914);
#287=VERTEX_POINT('',#916);
#288=VERTEX_POINT('',#918);
#289=VERTEX_POINT('',#922);
#290=VERTEX_POINT('',#923);
#291=VERTEX_POINT('',#925);
#292=VERTEX_POINT('',#927);
#293=VERTEX_POINT('',#931);
#294=VERTEX_POINT('',#933);
#295=VERTEX_POINT('',#937);
#296=VERTEX_POINT('',#941);
#297=VERTEX_POINT('',#943);
#298=VERTEX_POINT('',#945);
#299=VERTEX_POINT('',#954);
#300=VERTEX_POINT('',#956);
#301=VERTEX_POINT('',#960);
#302=VERTEX_POINT('',#965);
#303=VERTEX_POINT('',#971);
#304=VERTEX_POINT('',#972);
#305=VERTEX_POINT('',#974);
#306=VERTEX_POINT('',#976);
#307=VERTEX_POINT('',#980);
#308=VERTEX_POINT('',#982);
#309=VERTEX_POINT('',#986);
#310=VERTEX_POINT('',#988);
#311=VERTEX_POINT('',#995);
#312=VERTEX_POINT('',#996);
#313=VERTEX_POINT('',#998);
#314=VERTEX_POINT('',#1000);
#315=VERTEX_POINT('',#1004);
#316=VERTEX_POINT('',#1006);
#317=VERTEX_POINT('',#1010);
#318=VERTEX_POINT('',#1012);
#319=VERTEX_POINT('',#1019);
#320=VERTEX_POINT('',#1021);
#321=VERTEX_POINT('',#1023);
#322=VERTEX_POINT('',#1025);
#323=VERTEX_POINT('',#1029);
#324=VERTEX_POINT('',#1031);
#325=VERTEX_POINT('',#1036);
#326=VERTEX_POINT('',#1038);
#327=EDGE_CURVE('',#267,#268,#87,.T.);
#328=EDGE_CURVE('',#267,#269,#88,.T.);
#329=EDGE_CURVE('',#270,#269,#89,.T.);
#330=EDGE_CURVE('',#268,#270,#90,.T.);
#331=EDGE_CURVE('',#269,#271,#91,.T.);
#332=EDGE_CURVE('',#271,#272,#92,.T.);
#333=EDGE_CURVE('',#272,#270,#93,.T.);
#334=EDGE_CURVE('',#273,#274,#94,.T.);
#335=EDGE_CURVE('',#273,#275,#95,.T.);
#336=EDGE_CURVE('',#276,#275,#96,.T.);
#337=EDGE_CURVE('',#274,#276,#97,.T.);
#338=EDGE_CURVE('',#277,#276,#98,.T.);
#339=EDGE_CURVE('',#275,#278,#99,.T.);
#340=EDGE_CURVE('',#278,#277,#100,.T.);
#341=EDGE_CURVE('',#279,#280,#101,.T.);
#342=EDGE_CURVE('',#279,#281,#102,.T.);
#343=EDGE_CURVE('',#282,#281,#103,.T.);
#344=EDGE_CURVE('',#280,#282,#104,.T.);
#345=EDGE_CURVE('',#280,#283,#105,.T.);
#346=EDGE_CURVE('',#284,#282,#106,.T.);
#347=EDGE_CURVE('',#283,#284,#107,.T.);
#348=EDGE_CURVE('',#281,#285,#108,.T.);
#349=EDGE_CURVE('',#285,#284,#109,.T.);
#350=EDGE_CURVE('',#286,#283,#110,.T.);
#351=EDGE_CURVE('',#287,#286,#111,.T.);
#352=EDGE_CURVE('',#287,#288,#112,.T.);
#353=EDGE_CURVE('',#279,#288,#113,.T.);
#354=EDGE_CURVE('',#289,#290,#114,.T.);
#355=EDGE_CURVE('',#289,#291,#115,.T.);
#356=EDGE_CURVE('',#292,#291,#116,.T.);
#357=EDGE_CURVE('',#290,#292,#117,.T.);
#358=EDGE_CURVE('',#290,#293,#118,.T.);
#359=EDGE_CURVE('',#294,#292,#119,.T.);
#360=EDGE_CURVE('',#293,#294,#120,.T.);
#361=EDGE_CURVE('',#291,#295,#121,.T.);
#362=EDGE_CURVE('',#295,#294,#122,.T.);
#363=EDGE_CURVE('',#296,#293,#123,.T.);
#364=EDGE_CURVE('',#297,#296,#124,.T.);
#365=EDGE_CURVE('',#298,#297,#125,.T.);
#366=EDGE_CURVE('',#298,#289,#126,.T.);
#367=EDGE_CURVE('',#297,#287,#127,.T.);
#368=EDGE_CURVE('',#288,#296,#128,.T.);
#369=EDGE_CURVE('',#285,#295,#129,.T.);
#370=EDGE_CURVE('',#299,#268,#130,.T.);
#371=EDGE_CURVE('',#300,#299,#131,.T.);
#372=EDGE_CURVE('',#300,#267,#132,.T.);
#373=EDGE_CURVE('',#299,#301,#133,.T.);
#374=EDGE_CURVE('',#272,#278,#134,.T.);
#375=EDGE_CURVE('',#301,#273,#135,.T.);
#376=EDGE_CURVE('',#302,#274,#136,.T.);
#377=EDGE_CURVE('',#301,#302,#137,.T.);
#378=EDGE_CURVE('',#277,#271,#138,.T.);
#379=EDGE_CURVE('',#303,#304,#139,.T.);
#380=EDGE_CURVE('',#304,#305,#140,.T.);
#381=EDGE_CURVE('',#306,#305,#141,.T.);
#382=EDGE_CURVE('',#303,#306,#142,.T.);
#383=EDGE_CURVE('',#307,#303,#143,.T.);
#384=EDGE_CURVE('',#308,#306,#144,.T.);
#385=EDGE_CURVE('',#307,#308,#145,.T.);
#386=EDGE_CURVE('',#309,#307,#146,.T.);
#387=EDGE_CURVE('',#310,#308,#147,.T.);
#388=EDGE_CURVE('',#309,#310,#148,.T.);
#389=EDGE_CURVE('',#304,#309,#149,.T.);
#390=EDGE_CURVE('',#305,#310,#150,.T.);
#391=EDGE_CURVE('',#311,#312,#151,.T.);
#392=EDGE_CURVE('',#312,#313,#152,.T.);
#393=EDGE_CURVE('',#314,#313,#153,.T.);
#394=EDGE_CURVE('',#311,#314,#154,.T.);
#395=EDGE_CURVE('',#315,#311,#155,.T.);
#396=EDGE_CURVE('',#316,#314,#156,.T.);
#397=EDGE_CURVE('',#315,#316,#157,.T.);
#398=EDGE_CURVE('',#317,#315,#158,.T.);
#399=EDGE_CURVE('',#318,#316,#159,.T.);
#400=EDGE_CURVE('',#317,#318,#160,.T.);
#401=EDGE_CURVE('',#312,#317,#161,.T.);
#402=EDGE_CURVE('',#313,#318,#162,.T.);
#403=EDGE_CURVE('',#286,#319,#163,.T.);
#404=EDGE_CURVE('',#319,#320,#164,.T.);
#405=EDGE_CURVE('',#321,#320,#165,.T.);
#406=EDGE_CURVE('',#322,#321,#166,.T.);
#407=EDGE_CURVE('',#322,#298,#167,.T.);
#408=EDGE_CURVE('',#323,#322,#168,.T.);
#409=EDGE_CURVE('',#324,#321,#169,.T.);
#410=EDGE_CURVE('',#323,#324,#170,.T.);
#411=EDGE_CURVE('',#302,#323,#171,.T.);
#412=EDGE_CURVE('',#325,#324,#172,.T.);
#413=EDGE_CURVE('',#326,#325,#173,.T.);
#414=EDGE_CURVE('',#326,#300,#174,.T.);
#415=EDGE_CURVE('',#319,#326,#175,.T.);
#416=EDGE_CURVE('',#320,#325,#176,.T.);
#417=ORIENTED_EDGE('',*,*,#327,.F.);
#418=ORIENTED_EDGE('',*,*,#328,.T.);
#419=ORIENTED_EDGE('',*,*,#329,.F.);
#420=ORIENTED_EDGE('',*,*,#330,.F.);
#421=ORIENTED_EDGE('',*,*,#331,.T.);
#422=ORIENTED_EDGE('',*,*,#332,.T.);
#423=ORIENTED_EDGE('',*,*,#333,.T.);
#424=ORIENTED_EDGE('',*,*,#329,.T.);
#425=ORIENTED_EDGE('',*,*,#334,.F.);
#426=ORIENTED_EDGE('',*,*,#335,.T.);
#427=ORIENTED_EDGE('',*,*,#336,.F.);
#428=ORIENTED_EDGE('',*,*,#337,.F.);
#429=ORIENTED_EDGE('',*,*,#338,.T.);
#430=ORIENTED_EDGE('',*,*,#336,.T.);
#431=ORIENTED_EDGE('',*,*,#339,.T.);
#432=ORIENTED_EDGE('',*,*,#340,.T.);
#433=ORIENTED_EDGE('',*,*,#341,.F.);
#434=ORIENTED_EDGE('',*,*,#342,.T.);
#435=ORIENTED_EDGE('',*,*,#343,.F.);
#436=ORIENTED_EDGE('',*,*,#344,.F.);
#437=ORIENTED_EDGE('',*,*,#345,.F.);
#438=ORIENTED_EDGE('',*,*,#344,.T.);
#439=ORIENTED_EDGE('',*,*,#346,.F.);
#440=ORIENTED_EDGE('',*,*,#347,.F.);
#441=ORIENTED_EDGE('',*,*,#346,.T.);
#442=ORIENTED_EDGE('',*,*,#343,.T.);
#443=ORIENTED_EDGE('',*,*,#348,.T.);
#444=ORIENTED_EDGE('',*,*,#349,.T.);
#445=ORIENTED_EDGE('',*,*,#341,.T.);
#446=ORIENTED_EDGE('',*,*,#345,.T.);
#447=ORIENTED_EDGE('',*,*,#350,.F.);
#448=ORIENTED_EDGE('',*,*,#351,.F.);
#449=ORIENTED_EDGE('',*,*,#352,.T.);
#450=ORIENTED_EDGE('',*,*,#353,.F.);
#451=ORIENTED_EDGE('',*,*,#354,.F.);
#452=ORIENTED_EDGE('',*,*,#355,.T.);
#453=ORIENTED_EDGE('',*,*,#356,.F.);
#454=ORIENTED_EDGE('',*,*,#357,.F.);
#455=ORIENTED_EDGE('',*,*,#358,.F.);
#456=ORIENTED_EDGE('',*,*,#357,.T.);
#457=ORIENTED_EDGE('',*,*,#359,.F.);
#458=ORIENTED_EDGE('',*,*,#360,.F.);
#459=ORIENTED_EDGE('',*,*,#361,.T.);
#460=ORIENTED_EDGE('',*,*,#362,.T.);
#461=ORIENTED_EDGE('',*,*,#359,.T.);
#462=ORIENTED_EDGE('',*,*,#356,.T.);
#463=ORIENTED_EDGE('',*,*,#358,.T.);
#464=ORIENTED_EDGE('',*,*,#363,.F.);
#465=ORIENTED_EDGE('',*,*,#364,.F.);
#466=ORIENTED_EDGE('',*,*,#365,.F.);
#467=ORIENTED_EDGE('',*,*,#366,.T.);
#468=ORIENTED_EDGE('',*,*,#354,.T.);
#469=ORIENTED_EDGE('',*,*,#367,.F.);
#470=ORIENTED_EDGE('',*,*,#364,.T.);
#471=ORIENTED_EDGE('',*,*,#368,.F.);
#472=ORIENTED_EDGE('',*,*,#352,.F.);
#473=ORIENTED_EDGE('',*,*,#369,.F.);
#474=ORIENTED_EDGE('',*,*,#348,.F.);
#475=ORIENTED_EDGE('',*,*,#342,.F.);
#476=ORIENTED_EDGE('',*,*,#353,.T.);
#477=ORIENTED_EDGE('',*,*,#368,.T.);
#478=ORIENTED_EDGE('',*,*,#363,.T.);
#479=ORIENTED_EDGE('',*,*,#360,.T.);
#480=ORIENTED_EDGE('',*,*,#362,.F.);
#481=ORIENTED_EDGE('',*,*,#327,.T.);
#482=ORIENTED_EDGE('',*,*,#370,.F.);
#483=ORIENTED_EDGE('',*,*,#371,.F.);
#484=ORIENTED_EDGE('',*,*,#372,.T.);
#485=ORIENTED_EDGE('',*,*,#373,.F.);
#486=ORIENTED_EDGE('',*,*,#370,.T.);
#487=ORIENTED_EDGE('',*,*,#330,.T.);
#488=ORIENTED_EDGE('',*,*,#333,.F.);
#489=ORIENTED_EDGE('',*,*,#374,.T.);
#490=ORIENTED_EDGE('',*,*,#339,.F.);
#491=ORIENTED_EDGE('',*,*,#335,.F.);
#492=ORIENTED_EDGE('',*,*,#375,.F.);
#493=ORIENTED_EDGE('',*,*,#334,.T.);
#494=ORIENTED_EDGE('',*,*,#376,.F.);
#495=ORIENTED_EDGE('',*,*,#377,.F.);
#496=ORIENTED_EDGE('',*,*,#375,.T.);
#497=ORIENTED_EDGE('',*,*,#378,.F.);
#498=ORIENTED_EDGE('',*,*,#340,.F.);
#499=ORIENTED_EDGE('',*,*,#374,.F.);
#500=ORIENTED_EDGE('',*,*,#332,.F.);
#501=ORIENTED_EDGE('',*,*,#379,.T.);
#502=ORIENTED_EDGE('',*,*,#380,.T.);
#503=ORIENTED_EDGE('',*,*,#381,.F.);
#504=ORIENTED_EDGE('',*,*,#382,.F.);
#505=ORIENTED_EDGE('',*,*,#383,.T.);
#506=ORIENTED_EDGE('',*,*,#382,.T.);
#507=ORIENTED_EDGE('',*,*,#384,.F.);
#508=ORIENTED_EDGE('',*,*,#385,.F.);
#509=ORIENTED_EDGE('',*,*,#386,.T.);
#510=ORIENTED_EDGE('',*,*,#385,.T.);
#511=ORIENTED_EDGE('',*,*,#387,.F.);
#512=ORIENTED_EDGE('',*,*,#388,.F.);
#513=ORIENTED_EDGE('',*,*,#389,.T.);
#514=ORIENTED_EDGE('',*,*,#388,.T.);
#515=ORIENTED_EDGE('',*,*,#390,.F.);
#516=ORIENTED_EDGE('',*,*,#380,.F.);
#517=ORIENTED_EDGE('',*,*,#391,.T.);
#518=ORIENTED_EDGE('',*,*,#392,.T.);
#519=ORIENTED_EDGE('',*,*,#393,.F.);
#520=ORIENTED_EDGE('',*,*,#394,.F.);
#521=ORIENTED_EDGE('',*,*,#395,.T.);
#522=ORIENTED_EDGE('',*,*,#394,.T.);
#523=ORIENTED_EDGE('',*,*,#396,.F.);
#524=ORIENTED_EDGE('',*,*,#397,.F.);
#525=ORIENTED_EDGE('',*,*,#398,.T.);
#526=ORIENTED_EDGE('',*,*,#397,.T.);
#527=ORIENTED_EDGE('',*,*,#399,.F.);
#528=ORIENTED_EDGE('',*,*,#400,.F.);
#529=ORIENTED_EDGE('',*,*,#401,.T.);
#530=ORIENTED_EDGE('',*,*,#400,.T.);
#531=ORIENTED_EDGE('',*,*,#402,.F.);
#532=ORIENTED_EDGE('',*,*,#392,.F.);
#533=ORIENTED_EDGE('',*,*,#351,.T.);
#534=ORIENTED_EDGE('',*,*,#403,.T.);
#535=ORIENTED_EDGE('',*,*,#404,.T.);
#536=ORIENTED_EDGE('',*,*,#405,.F.);
#537=ORIENTED_EDGE('',*,*,#406,.F.);
#538=ORIENTED_EDGE('',*,*,#407,.T.);
#539=ORIENTED_EDGE('',*,*,#365,.T.);
#540=ORIENTED_EDGE('',*,*,#367,.T.);
#541=ORIENTED_EDGE('',*,*,#408,.T.);
#542=ORIENTED_EDGE('',*,*,#406,.T.);
#543=ORIENTED_EDGE('',*,*,#409,.F.);
#544=ORIENTED_EDGE('',*,*,#410,.F.);
#545=ORIENTED_EDGE('',*,*,#377,.T.);
#546=ORIENTED_EDGE('',*,*,#411,.T.);
#547=ORIENTED_EDGE('',*,*,#410,.T.);
#548=ORIENTED_EDGE('',*,*,#412,.F.);
#549=ORIENTED_EDGE('',*,*,#413,.F.);
#550=ORIENTED_EDGE('',*,*,#414,.T.);
#551=ORIENTED_EDGE('',*,*,#371,.T.);
#552=ORIENTED_EDGE('',*,*,#373,.T.);
#553=ORIENTED_EDGE('',*,*,#415,.T.);
#554=ORIENTED_EDGE('',*,*,#413,.T.);
#555=ORIENTED_EDGE('',*,*,#416,.F.);
#556=ORIENTED_EDGE('',*,*,#404,.F.);
#557=ORIENTED_EDGE('',*,*,#416,.T.);
#558=ORIENTED_EDGE('',*,*,#412,.T.);
#559=ORIENTED_EDGE('',*,*,#409,.T.);
#560=ORIENTED_EDGE('',*,*,#405,.T.);
#561=ORIENTED_EDGE('',*,*,#402,.T.);
#562=ORIENTED_EDGE('',*,*,#399,.T.);
#563=ORIENTED_EDGE('',*,*,#396,.T.);
#564=ORIENTED_EDGE('',*,*,#393,.T.);
#565=ORIENTED_EDGE('',*,*,#390,.T.);
#566=ORIENTED_EDGE('',*,*,#387,.T.);
#567=ORIENTED_EDGE('',*,*,#384,.T.);
#568=ORIENTED_EDGE('',*,*,#381,.T.);
#569=ORIENTED_EDGE('',*,*,#415,.F.);
#570=ORIENTED_EDGE('',*,*,#403,.F.);
#571=ORIENTED_EDGE('',*,*,#350,.T.);
#572=ORIENTED_EDGE('',*,*,#347,.T.);
#573=ORIENTED_EDGE('',*,*,#349,.F.);
#574=ORIENTED_EDGE('',*,*,#369,.T.);
#575=ORIENTED_EDGE('',*,*,#361,.F.);
#576=ORIENTED_EDGE('',*,*,#355,.F.);
#577=ORIENTED_EDGE('',*,*,#366,.F.);
#578=ORIENTED_EDGE('',*,*,#407,.F.);
#579=ORIENTED_EDGE('',*,*,#408,.F.);
#580=ORIENTED_EDGE('',*,*,#411,.F.);
#581=ORIENTED_EDGE('',*,*,#376,.T.);
#582=ORIENTED_EDGE('',*,*,#337,.T.);
#583=ORIENTED_EDGE('',*,*,#338,.F.);
#584=ORIENTED_EDGE('',*,*,#378,.T.);
#585=ORIENTED_EDGE('',*,*,#331,.F.);
#586=ORIENTED_EDGE('',*,*,#328,.F.);
#587=ORIENTED_EDGE('',*,*,#372,.F.);
#588=ORIENTED_EDGE('',*,*,#414,.F.);
#589=ORIENTED_EDGE('',*,*,#401,.F.);
#590=ORIENTED_EDGE('',*,*,#391,.F.);
#591=ORIENTED_EDGE('',*,*,#395,.F.);
#592=ORIENTED_EDGE('',*,*,#398,.F.);
#593=ORIENTED_EDGE('',*,*,#389,.F.);
#594=ORIENTED_EDGE('',*,*,#379,.F.);
#595=ORIENTED_EDGE('',*,*,#383,.F.);
#596=ORIENTED_EDGE('',*,*,#386,.F.);
#597=PLANE('',#675);
#598=PLANE('',#676);
#599=PLANE('',#677);
#600=PLANE('',#678);
#601=PLANE('',#679);
#602=PLANE('',#680);
#603=PLANE('',#681);
#604=PLANE('',#682);
#605=PLANE('',#683);
#606=PLANE('',#684);
#607=PLANE('',#685);
#608=PLANE('',#686);
#609=PLANE('',#687);
#610=PLANE('',#688);
#611=PLANE('',#689);
#612=PLANE('',#690);
#613=PLANE('',#691);
#614=PLANE('',#692);
#615=PLANE('',#693);
#616=PLANE('',#694);
#617=PLANE('',#695);
#618=PLANE('',#696);
#619=PLANE('',#697);
#620=PLANE('',#698);
#621=PLANE('',#699);
#622=PLANE('',#700);
#623=PLANE('',#701);
#624=PLANE('',#702);
#625=PLANE('',#703);
#626=PLANE('',#704);
#627=PLANE('',#705);
#628=PLANE('',#706);
#629=ADVANCED_FACE('',(#19),#597,.T.);
#630=ADVANCED_FACE('',(#20),#598,.T.);
#631=ADVANCED_FACE('',(#21),#599,.T.);
#632=ADVANCED_FACE('',(#22),#600,.T.);
#633=ADVANCED_FACE('',(#23),#601,.T.);
#634=ADVANCED_FACE('',(#24),#602,.T.);
#635=ADVANCED_FACE('',(#25),#603,.T.);
#636=ADVANCED_FACE('',(#26),#604,.T.);
#637=ADVANCED_FACE('',(#27),#605,.T.);
#638=ADVANCED_FACE('',(#28),#606,.T.);
#639=ADVANCED_FACE('',(#29),#607,.T.);
#640=ADVANCED_FACE('',(#30),#608,.T.);
#641=ADVANCED_FACE('',(#31),#609,.T.);
#642=ADVANCED_FACE('',(#32),#610,.T.);
#643=ADVANCED_FACE('',(#33),#611,.T.);
#644=ADVANCED_FACE('',(#34),#612,.T.);
#645=ADVANCED_FACE('',(#35),#613,.T.);
#646=ADVANCED_FACE('',(#36),#614,.T.);
#647=ADVANCED_FACE('',(#37),#615,.T.);
#648=ADVANCED_FACE('',(#38),#616,.T.);
#649=ADVANCED_FACE('',(#39),#617,.T.);
#650=ADVANCED_FACE('',(#40),#618,.T.);
#651=ADVANCED_FACE('',(#41),#619,.T.);
#652=ADVANCED_FACE('',(#42),#620,.T.);
#653=ADVANCED_FACE('',(#43),#621,.T.);
#654=ADVANCED_FACE('',(#44),#622,.T.);
#655=ADVANCED_FACE('',(#45),#623,.T.);
#656=ADVANCED_FACE('',(#46),#624,.T.);
#657=ADVANCED_FACE('',(#47),#625,.T.);
#658=ADVANCED_FACE('',(#48),#626,.T.);
#659=ADVANCED_FACE('',(#49,#15,#16),#627,.T.);
#660=ADVANCED_FACE('',(#50,#17,#18),#628,.F.);
#661=CLOSED_SHELL('',(#629,#630,#631,#632,#633,#634,#635,#636,#637,#638,
#639,#640,#641,#642,#643,#644,#645,#646,#647,#648,#649,#650,#651,#652,#653,
#654,#655,#656,#657,#658,#659,#660));
#662=DERIVED_UNIT_ELEMENT(#664,1.);
#663=DERIVED_UNIT_ELEMENT(#1051,-3.);
#664=(
MASS_UNIT()
NAMED_UNIT(*)
SI_UNIT(.KILO.,.GRAM.)
);
#665=DERIVED_UNIT((#662,#663));
#666=MEASURE_REPRESENTATION_ITEM('density measure',
POSITIVE_RATIO_MEASURE(7850.),#665);
#667=PROPERTY_DEFINITION_REPRESENTATION(#672,#669);
#668=PROPERTY_DEFINITION_REPRESENTATION(#673,#670);
#669=REPRESENTATION('material name',(#671),#1048);
#670=REPRESENTATION('density',(#666),#1048);
#671=DESCRIPTIVE_REPRESENTATION_ITEM('Steel','Steel');
#672=PROPERTY_DEFINITION('material property','material name',#1058);
#673=PROPERTY_DEFINITION('material property','density of part',#1058);
#674=AXIS2_PLACEMENT_3D('',#863,#707,#708);
#675=AXIS2_PLACEMENT_3D('',#864,#709,#710);
#676=AXIS2_PLACEMENT_3D('',#873,#715,#716);
#677=AXIS2_PLACEMENT_3D('',#879,#720,#721);
#678=AXIS2_PLACEMENT_3D('',#888,#726,#727);
#679=AXIS2_PLACEMENT_3D('',#894,#731,#732);
#680=AXIS2_PLACEMENT_3D('',#903,#737,#738);
#681=AXIS2_PLACEMENT_3D('',#909,#742,#743);
#682=AXIS2_PLACEMENT_3D('',#913,#746,#747);
#683=AXIS2_PLACEMENT_3D('',#921,#752,#753);
#684=AXIS2_PLACEMENT_3D('',#930,#758,#759);
#685=AXIS2_PLACEMENT_3D('',#936,#763,#764);
#686=AXIS2_PLACEMENT_3D('',#940,#767,#768);
#687=AXIS2_PLACEMENT_3D('',#948,#773,#774);
#688=AXIS2_PLACEMENT_3D('',#951,#777,#778);
#689=AXIS2_PLACEMENT_3D('',#953,#780,#781);
#690=AXIS2_PLACEMENT_3D('',#959,#785,#786);
#691=AXIS2_PLACEMENT_3D('',#964,#790,#791);
#692=AXIS2_PLACEMENT_3D('',#968,#794,#795);
#693=AXIS2_PLACEMENT_3D('',#970,#797,#798);
#694=AXIS2_PLACEMENT_3D('',#979,#803,#804);
#695=AXIS2_PLACEMENT_3D('',#985,#808,#809);
#696=AXIS2_PLACEMENT_3D('',#991,#813,#814);
#697=AXIS2_PLACEMENT_3D('',#994,#817,#818);
#698=AXIS2_PLACEMENT_3D('',#1003,#823,#824);
#699=AXIS2_PLACEMENT_3D('',#1009,#828,#829);
#700=AXIS2_PLACEMENT_3D('',#1015,#833,#834);
#701=AXIS2_PLACEMENT_3D('',#1018,#837,#838);
#702=AXIS2_PLACEMENT_3D('',#1028,#844,#845);
#703=AXIS2_PLACEMENT_3D('',#1034,#849,#850);
#704=AXIS2_PLACEMENT_3D('',#1041,#855,#856);
#705=AXIS2_PLACEMENT_3D('',#1044,#859,#860);
#706=AXIS2_PLACEMENT_3D('',#1045,#861,#862);
#707=DIRECTION('axis',(0.,0.,1.));
#708=DIRECTION('refdir',(1.,0.,0.));
#709=DIRECTION('center_axis',(0.,1.,0.));
#710=DIRECTION('ref_axis',(0.,0.,-1.));
#711=DIRECTION('',(0.,0.,1.));
#712=DIRECTION('',(-1.,0.,0.));
#713=DIRECTION('',(0.,0.,-1.));
#714=DIRECTION('',(-1.,0.,0.));
#715=DIRECTION('center_axis',(-1.,0.,0.));
#716=DIRECTION('ref_axis',(0.,0.,1.));
#717=DIRECTION('',(0.,-1.,0.));
#718=DIRECTION('',(0.,0.,1.));
#719=DIRECTION('',(0.,1.,0.));
#720=DIRECTION('center_axis',(0.,1.,0.));
#721=DIRECTION('ref_axis',(0.,0.,1.));
#722=DIRECTION('',(0.,0.,-1.));
#723=DIRECTION('',(1.,0.,0.));
#724=DIRECTION('',(0.,0.,1.));
#725=DIRECTION('',(1.,0.,0.));
#726=DIRECTION('center_axis',(1.,0.,0.));
#727=DIRECTION('ref_axis',(0.,0.,-1.));
#728=DIRECTION('',(0.,1.,0.));
#729=DIRECTION('',(0.,-1.,0.));
#730=DIRECTION('',(0.,0.,-1.));
#731=DIRECTION('center_axis',(0.,0.,1.));
#732=DIRECTION('ref_axis',(0.,1.,0.));
#733=DIRECTION('',(0.,-1.,0.));
#734=DIRECTION('',(-1.,0.,0.));
#735=DIRECTION('',(0.,1.,0.));
#736=DIRECTION('',(-1.,0.,0.));
#737=DIRECTION('center_axis',(0.,-1.,0.));
#738=DIRECTION('ref_axis',(0.,0.,1.));
#739=DIRECTION('',(0.,0.,-1.));
#740=DIRECTION('',(0.,0.,1.));
#741=DIRECTION('',(-1.,0.,0.));
#742=DIRECTION('center_axis',(-1.,0.,0.));
#743=DIRECTION('ref_axis',(0.,0.,1.));
#744=DIRECTION('',(0.,0.,-1.));
#745=DIRECTION('',(0.,-1.,0.));
#746=DIRECTION('center_axis',(-1.,0.,0.));
#747=DIRECTION('ref_axis',(0.,0.,1.));
#748=DIRECTION('',(0.,1.,0.));
#749=DIRECTION('',(0.,0.,-1.));
#750=DIRECTION('',(0.,1.,0.));
#751=DIRECTION('',(0.,0.,1.));
#752=DIRECTION('center_axis',(0.,-1.,0.));
#753=DIRECTION('ref_axis',(0.,0.,-1.));
#754=DIRECTION('',(0.,0.,1.));
#755=DIRECTION('',(1.,0.,0.));
#756=DIRECTION('',(0.,0.,-1.));
#757=DIRECTION('',(1.,0.,0.));
#758=DIRECTION('center_axis',(0.,0.,1.));
#759=DIRECTION('ref_axis',(0.,-1.,0.));
#760=DIRECTION('',(0.,1.,0.));
#761=DIRECTION('',(0.,-1.,0.));
#762=DIRECTION('',(1.,0.,0.));
#763=DIRECTION('center_axis',(1.,0.,0.));
#764=DIRECTION('ref_axis',(0.,0.,-1.));
#765=DIRECTION('',(0.,1.,0.));
#766=DIRECTION('',(0.,0.,1.));
#767=DIRECTION('center_axis',(1.,0.,0.));
#768=DIRECTION('ref_axis',(0.,0.,-1.));
#769=DIRECTION('',(0.,0.,-1.));
#770=DIRECTION('',(0.,1.,0.));
#771=DIRECTION('',(0.,0.,1.));
#772=DIRECTION('',(0.,1.,0.));
#773=DIRECTION('center_axis',(0.,0.,1.));
#774=DIRECTION('ref_axis',(1.,0.,0.));
#775=DIRECTION('',(-1.,0.,0.));
#776=DIRECTION('',(1.,0.,0.));
#777=DIRECTION('center_axis',(0.,1.,0.));
#778=DIRECTION('ref_axis',(0.,0.,1.));
#779=DIRECTION('',(1.,0.,0.));
#780=DIRECTION('center_axis',(-1.,0.,0.));
#781=DIRECTION('ref_axis',(0.,0.,-1.));
#782=DIRECTION('',(0.,-1.,0.));
#783=DIRECTION('',(0.,0.,1.));
#784=DIRECTION('',(0.,-1.,0.));
#785=DIRECTION('center_axis',(0.,0.,1.));
#786=DIRECTION('ref_axis',(-1.,0.,0.));
#787=DIRECTION('',(1.,0.,0.));
#788=DIRECTION('',(1.,0.,0.));
#789=DIRECTION('',(0.,-1.,0.));
#790=DIRECTION('center_axis',(1.,0.,0.));
#791=DIRECTION('ref_axis',(0.,0.,1.));
#792=DIRECTION('',(0.,-1.,0.));
#793=DIRECTION('',(0.,0.,-1.));
#794=DIRECTION('center_axis',(0.,-1.,0.));
#795=DIRECTION('ref_axis',(0.,0.,-1.));
#796=DIRECTION('',(-1.,0.,0.));
#797=DIRECTION('center_axis',(-1.,0.,0.));
#798=DIRECTION('ref_axis',(0.,-1.,0.));
#799=DIRECTION('',(0.,-1.,0.));
#800=DIRECTION('',(0.,0.,1.));
#801=DIRECTION('',(0.,-1.,0.));
#802=DIRECTION('',(0.,0.,1.));
#803=DIRECTION('center_axis',(0.,-1.,0.));
#804=DIRECTION('ref_axis',(1.,0.,0.));
#805=DIRECTION('',(1.,0.,0.));
#806=DIRECTION('',(1.,0.,0.));
#807=DIRECTION('',(0.,0.,1.));
#808=DIRECTION('center_axis',(1.,0.,0.));
#809=DIRECTION('ref_axis',(0.,1.,0.));
#810=DIRECTION('',(0.,1.,0.));
#811=DIRECTION('',(0.,1.,0.));
#812=DIRECTION('',(0.,0.,1.));
#813=DIRECTION('center_axis',(0.,1.,0.));
#814=DIRECTION('ref_axis',(-1.,0.,0.));
#815=DIRECTION('',(-1.,0.,0.));
#816=DIRECTION('',(-1.,0.,0.));
#817=DIRECTION('center_axis',(-1.,0.,0.));
#818=DIRECTION('ref_axis',(0.,-1.,0.));
#819=DIRECTION('',(0.,-1.,0.));
#820=DIRECTION('',(0.,0.,1.));
#821=DIRECTION('',(0.,-1.,0.));
#822=DIRECTION('',(0.,0.,1.));
#823=DIRECTION('center_axis',(0.,-1.,0.));
#824=DIRECTION('ref_axis',(1.,0.,0.));
#825=DIRECTION('',(1.,0.,0.));
#826=DIRECTION('',(1.,0.,0.));
#827=DIRECTION('',(0.,0.,1.));
#828=DIRECTION('center_axis',(1.,0.,0.));
#829=DIRECTION('ref_axis',(0.,1.,0.));
#830=DIRECTION('',(0.,1.,0.));
#831=DIRECTION('',(0.,1.,0.));
#832=DIRECTION('',(0.,0.,1.));
#833=DIRECTION('center_axis',(0.,1.,0.));
#834=DIRECTION('ref_axis',(-1.,0.,0.));
#835=DIRECTION('',(-1.,0.,0.));
#836=DIRECTION('',(-1.,0.,0.));
#837=DIRECTION('center_axis',(0.,1.,0.));
#838=DIRECTION('ref_axis',(-1.,0.,0.));
#839=DIRECTION('',(-1.,0.,0.));
#840=DIRECTION('',(0.,0.,1.));
#841=DIRECTION('',(-1.,0.,0.));
#842=DIRECTION('',(0.,0.,1.));
#843=DIRECTION('',(-1.,0.,0.));
#844=DIRECTION('center_axis',(1.,0.,0.));
#845=DIRECTION('ref_axis',(0.,1.,0.));
#846=DIRECTION('',(0.,1.,0.));
#847=DIRECTION('',(0.,1.,0.));
#848=DIRECTION('',(0.,0.,1.));
#849=DIRECTION('center_axis',(0.,-1.,0.));
#850=DIRECTION('ref_axis',(1.,0.,0.));
#851=DIRECTION('',(1.,0.,0.));
#852=DIRECTION('',(1.,0.,0.));
#853=DIRECTION('',(0.,0.,1.));
#854=DIRECTION('',(1.,0.,0.));
#855=DIRECTION('center_axis',(-1.,0.,0.));
#856=DIRECTION('ref_axis',(0.,-1.,0.));
#857=DIRECTION('',(0.,-1.,0.));
#858=DIRECTION('',(0.,-1.,0.));
#859=DIRECTION('center_axis',(0.,0.,1.));
#860=DIRECTION('ref_axis',(1.,0.,0.));
#861=DIRECTION('center_axis',(0.,0.,1.));
#862=DIRECTION('ref_axis',(1.,0.,0.));
#863=CARTESIAN_POINT('',(0.,0.,0.));
#864=CARTESIAN_POINT('Origin',(25.000000372529,-25.000000372529,2.00000002980232));
#865=CARTESIAN_POINT('',(25.000000372529,-25.000000372529,0.));
#866=CARTESIAN_POINT('',(25.000000372529,-25.000000372529,2.00000002980232));
#867=CARTESIAN_POINT('',(25.000000372529,-25.000000372529,2.00000002980232));
#868=CARTESIAN_POINT('',(-4.99999962747097,-25.000000372529,0.));
#869=CARTESIAN_POINT('',(25.000000372529,-25.000000372529,0.));
#870=CARTESIAN_POINT('',(-4.99999962747097,-25.000000372529,2.00000002980232));
#871=CARTESIAN_POINT('',(-4.99999962747097,-25.000000372529,0.));
#872=CARTESIAN_POINT('',(25.000000372529,-25.000000372529,2.00000002980232));
#873=CARTESIAN_POINT('Origin',(-4.99999962747097,-27.5000001862645,1.00000001490116));
#874=CARTESIAN_POINT('',(-4.99999962747097,-30.,0.));
#875=CARTESIAN_POINT('',(-4.99999962747097,-30.,0.));
#876=CARTESIAN_POINT('',(-4.99999962747097,-30.,2.00000002980232));
#877=CARTESIAN_POINT('',(-4.99999962747097,-30.,2.00000002980232));
#878=CARTESIAN_POINT('',(-4.99999962747097,-25.000000372529,2.00000002980232));
#879=CARTESIAN_POINT('Origin',(35.000000372529,-25.000000372529,0.));
#880=CARTESIAN_POINT('',(35.000000372529,-25.000000372529,2.00000002980232));
#881=CARTESIAN_POINT('',(35.000000372529,-25.000000372529,0.));
#882=CARTESIAN_POINT('',(35.000000372529,-25.000000372529,0.));
#883=CARTESIAN_POINT('',(65.000000372529,-25.000000372529,2.00000002980232));
#884=CARTESIAN_POINT('',(35.000000372529,-25.000000372529,2.00000002980232));
#885=CARTESIAN_POINT('',(65.000000372529,-25.000000372529,0.));
#886=CARTESIAN_POINT('',(65.000000372529,-25.000000372529,2.00000002980232));
#887=CARTESIAN_POINT('',(35.000000372529,-25.000000372529,0.));
#888=CARTESIAN_POINT('Origin',(65.000000372529,-27.5000001862645,1.00000001490116));
#889=CARTESIAN_POINT('',(65.000000372529,-30.,0.));
#890=CARTESIAN_POINT('',(65.000000372529,-25.000000372529,0.));
#891=CARTESIAN_POINT('',(65.000000372529,-30.,2.00000002980232));
#892=CARTESIAN_POINT('',(65.000000372529,-30.,2.00000002980232));
#893=CARTESIAN_POINT('',(65.000000372529,-30.,0.));
#894=CARTESIAN_POINT('Origin',(25.000000372529,50.0000007450581,1.00000001490116));
#895=CARTESIAN_POINT('',(25.000000372529,55.,1.00000001490116));
#896=CARTESIAN_POINT('',(25.000000372529,50.0000007450581,1.00000001490116));
#897=CARTESIAN_POINT('',(25.000000372529,37.500000372529,1.00000001490116));
#898=CARTESIAN_POINT('',(-4.99999962747097,55.,1.00000001490116));
#899=CARTESIAN_POINT('',(25.000000372529,55.,1.00000001490116));
#900=CARTESIAN_POINT('',(-4.99999962747097,50.0000007450581,1.00000001490116));
#901=CARTESIAN_POINT('',(-4.99999962747097,50.0000007450581,1.00000001490116));
#902=CARTESIAN_POINT('',(25.000000372529,50.0000007450581,1.00000001490116));
#903=CARTESIAN_POINT('Origin',(25.000000372529,50.0000007450581,0.));
#904=CARTESIAN_POINT('',(25.000000372529,50.0000007450581,0.));
#905=CARTESIAN_POINT('',(25.000000372529,50.0000007450581,0.));
#906=CARTESIAN_POINT('',(-4.99999962747097,50.0000007450581,0.));
#907=CARTESIAN_POINT('',(-4.99999962747097,50.0000007450581,0.));
#908=CARTESIAN_POINT('',(25.000000372529,50.0000007450581,0.));
#909=CARTESIAN_POINT('Origin',(-4.99999962747097,52.500000372529,0.500000007450581));
#910=CARTESIAN_POINT('',(-4.99999962747097,55.,0.));
#911=CARTESIAN_POINT('',(-4.99999962747097,55.,1.00000001490116));
#912=CARTESIAN_POINT('',(-4.99999962747097,55.,0.));
#913=CARTESIAN_POINT('Origin',(25.000000372529,25.,0.));
#914=CARTESIAN_POINT('',(25.000000372529,25.,0.));
#915=CARTESIAN_POINT('',(25.000000372529,25.,0.));
#916=CARTESIAN_POINT('',(25.000000372529,25.,2.00000002980232));
#917=CARTESIAN_POINT('',(25.000000372529,25.,0.));
#918=CARTESIAN_POINT('',(25.000000372529,55.,2.00000002980232));
#919=CARTESIAN_POINT('',(25.000000372529,25.,2.00000002980232));
#920=CARTESIAN_POINT('',(25.000000372529,55.,2.00000002980232));
#921=CARTESIAN_POINT('Origin',(35.0000005215406,50.0000007450581,1.00000001490116));
#922=CARTESIAN_POINT('',(35.0000005215406,50.0000007450581,0.));
#923=CARTESIAN_POINT('',(35.0000005215406,50.0000007450581,1.00000001490116));
#924=CARTESIAN_POINT('',(35.0000005215406,50.0000007450581,1.50000002235174));
#925=CARTESIAN_POINT('',(65.0000005215406,50.0000007450581,0.));
#926=CARTESIAN_POINT('',(35.0000005215406,50.0000007450581,0.));
#927=CARTESIAN_POINT('',(65.0000005215406,50.0000007450581,1.00000001490116));
#928=CARTESIAN_POINT('',(65.0000005215406,50.0000007450581,0.));
#929=CARTESIAN_POINT('',(35.0000005215406,50.0000007450581,1.00000001490116));
#930=CARTESIAN_POINT('Origin',(35.0000005215406,55.,1.00000001490116));
#931=CARTESIAN_POINT('',(35.0000005215406,55.,1.00000001490116));
#932=CARTESIAN_POINT('',(35.0000005215406,40.,1.00000001490116));
#933=CARTESIAN_POINT('',(65.0000005215406,55.,1.00000001490116));
#934=CARTESIAN_POINT('',(65.0000005215406,50.0000007450581,1.00000001490116));
#935=CARTESIAN_POINT('',(35.0000005215406,55.,1.00000001490116));
#936=CARTESIAN_POINT('Origin',(65.0000005215406,52.500000372529,0.500000007450581));
#937=CARTESIAN_POINT('',(65.0000005215406,55.,0.));
#938=CARTESIAN_POINT('',(65.0000005215406,55.,0.));
#939=CARTESIAN_POINT('',(65.0000005215406,55.,1.00000001490116));
#940=CARTESIAN_POINT('Origin',(35.0000005215406,25.,2.00000002980232));
#941=CARTESIAN_POINT('',(35.0000005215406,55.,2.00000002980232));
#942=CARTESIAN_POINT('',(35.0000005215406,55.,0.));
#943=CARTESIAN_POINT('',(35.0000005215406,25.,2.00000002980232));
#944=CARTESIAN_POINT('',(35.0000005215406,25.,2.00000002980232));
#945=CARTESIAN_POINT('',(35.0000005215406,25.,0.));
#946=CARTESIAN_POINT('',(35.0000005215406,25.,1.00000001490116));
#947=CARTESIAN_POINT('',(35.0000005215406,25.,0.));
#948=CARTESIAN_POINT('Origin',(25.000000372529,25.,2.00000002980232));
#949=CARTESIAN_POINT('',(42.5000001862645,25.,2.00000002980232));
#950=CARTESIAN_POINT('',(35.0000005215406,55.,2.00000002980232));
#951=CARTESIAN_POINT('Origin',(30.0000004470348,55.,1.00000001490116));
#952=CARTESIAN_POINT('',(35.0000005215406,55.,0.));
#953=CARTESIAN_POINT('Origin',(25.000000372529,0.,2.00000002980232));
#954=CARTESIAN_POINT('',(25.000000372529,0.,2.00000002980232));
#955=CARTESIAN_POINT('',(25.000000372529,0.,2.00000002980232));
#956=CARTESIAN_POINT('',(25.000000372529,0.,0.));
#957=CARTESIAN_POINT('',(25.000000372529,0.,1.00000001490116));
#958=CARTESIAN_POINT('',(25.000000372529,0.,0.));
#959=CARTESIAN_POINT('Origin',(35.000000372529,0.,2.00000002980232));
#960=CARTESIAN_POINT('',(35.000000372529,0.,2.00000002980232));
#961=CARTESIAN_POINT('',(17.5000001862645,0.,2.00000002980232));
#962=CARTESIAN_POINT('',(35.000000372529,-30.,2.00000002980232));
#963=CARTESIAN_POINT('',(35.000000372529,0.,2.00000002980232));
#964=CARTESIAN_POINT('Origin',(35.000000372529,0.,0.));
#965=CARTESIAN_POINT('',(35.000000372529,0.,0.));
#966=CARTESIAN_POINT('',(35.000000372529,0.,0.));
#967=CARTESIAN_POINT('',(35.000000372529,0.,0.));
#968=CARTESIAN_POINT('Origin',(30.000000372529,-30.,1.00000001490116));
#969=CARTESIAN_POINT('',(25.000000372529,-30.,0.));
#970=CARTESIAN_POINT('Origin',(17.5,16.,0.));
#971=CARTESIAN_POINT('',(17.5,16.,0.));
#972=CARTESIAN_POINT('',(17.5,9.,0.));
#973=CARTESIAN_POINT('',(17.5,16.,0.));
#974=CARTESIAN_POINT('',(17.5,9.,3.));
#975=CARTESIAN_POINT('',(17.5,9.,0.));
#976=CARTESIAN_POINT('',(17.5,16.,3.));
#977=CARTESIAN_POINT('',(17.5,16.,3.));
#978=CARTESIAN_POINT('',(17.5,16.,0.));
#979=CARTESIAN_POINT('Origin',(10.5,16.,0.));
#980=CARTESIAN_POINT('',(10.5,16.,0.));
#981=CARTESIAN_POINT('',(10.5,16.,0.));
#982=CARTESIAN_POINT('',(10.5,16.,3.));
#983=CARTESIAN_POINT('',(10.5,16.,3.));
#984=CARTESIAN_POINT('',(10.5,16.,0.));
#985=CARTESIAN_POINT('Origin',(10.5,9.,0.));
#986=CARTESIAN_POINT('',(10.5,9.,0.));
#987=CARTESIAN_POINT('',(10.5,9.,0.));
#988=CARTESIAN_POINT('',(10.5,9.,3.));
#989=CARTESIAN_POINT('',(10.5,9.,3.));
#990=CARTESIAN_POINT('',(10.5,9.,0.));
#991=CARTESIAN_POINT('Origin',(17.5,9.,0.));
#992=CARTESIAN_POINT('',(17.5,9.,0.));
#993=CARTESIAN_POINT('',(17.5,9.,3.));
#994=CARTESIAN_POINT('Origin',(49.5,16.,0.));
#995=CARTESIAN_POINT('',(49.5,16.,0.));
#996=CARTESIAN_POINT('',(49.5,9.,0.));
#997=CARTESIAN_POINT('',(49.5,16.,0.));
#998=CARTESIAN_POINT('',(49.5,9.,3.));
#999=CARTESIAN_POINT('',(49.5,9.,0.));
#1000=CARTESIAN_POINT('',(49.5,16.,3.));
#1001=CARTESIAN_POINT('',(49.5,16.,3.));
#1002=CARTESIAN_POINT('',(49.5,16.,0.));
#1003=CARTESIAN_POINT('Origin',(42.5,16.,0.));
#1004=CARTESIAN_POINT('',(42.5,16.,0.));
#1005=CARTESIAN_POINT('',(42.5,16.,0.));
#1006=CARTESIAN_POINT('',(42.5,16.,3.));
#1007=CARTESIAN_POINT('',(42.5,16.,3.));
#1008=CARTESIAN_POINT('',(42.5,16.,0.));
#1009=CARTESIAN_POINT('Origin',(42.5,9.,0.));
#1010=CARTESIAN_POINT('',(42.5,9.,0.));
#1011=CARTESIAN_POINT('',(42.5,9.,0.));
#1012=CARTESIAN_POINT('',(42.5,9.,3.));
#1013=CARTESIAN_POINT('',(42.5,9.,3.));
#1014=CARTESIAN_POINT('',(42.5,9.,0.));
#1015=CARTESIAN_POINT('Origin',(49.5,9.,0.));
#1016=CARTESIAN_POINT('',(49.5,9.,0.));
#1017=CARTESIAN_POINT('',(49.5,9.,3.));
#1018=CARTESIAN_POINT('Origin',(60.,25.,0.));
#1019=CARTESIAN_POINT('',(0.,25.,0.));
#1020=CARTESIAN_POINT('',(60.,25.,0.));
#1021=CARTESIAN_POINT('',(0.,25.,3.));
#1022=CARTESIAN_POINT('',(0.,25.,0.));
#1023=CARTESIAN_POINT('',(60.,25.,3.));
#1024=CARTESIAN_POINT('',(60.,25.,3.));
#1025=CARTESIAN_POINT('',(60.,25.,0.));
#1026=CARTESIAN_POINT('',(60.,25.,0.));
#1027=CARTESIAN_POINT('',(60.,25.,0.));
#1028=CARTESIAN_POINT('Origin',(60.,0.,0.));
#1029=CARTESIAN_POINT('',(60.,0.,0.));
#1030=CARTESIAN_POINT('',(60.,0.,0.));
#1031=CARTESIAN_POINT('',(60.,0.,3.));
#1032=CARTESIAN_POINT('',(60.,0.,3.));
#1033=CARTESIAN_POINT('',(60.,0.,0.));
#1034=CARTESIAN_POINT('Origin',(0.,0.,0.));
#1035=CARTESIAN_POINT('',(0.,0.,0.));
#1036=CARTESIAN_POINT('',(0.,0.,3.));
#1037=CARTESIAN_POINT('',(0.,0.,3.));
#1038=CARTESIAN_POINT('',(0.,0.,0.));
#1039=CARTESIAN_POINT('',(0.,0.,0.));
#1040=CARTESIAN_POINT('',(0.,0.,0.));
#1041=CARTESIAN_POINT('Origin',(0.,25.,0.));
#1042=CARTESIAN_POINT('',(0.,25.,0.));
#1043=CARTESIAN_POINT('',(0.,25.,3.));
#1044=CARTESIAN_POINT('Origin',(30.,12.5,3.));
#1045=CARTESIAN_POINT('Origin',(30.,12.5,0.));
#1046=UNCERTAINTY_MEASURE_WITH_UNIT(LENGTH_MEASURE(0.01),#1050,
'DISTANCE_ACCURACY_VALUE',
'Maximum model space distance between geometric entities at asserted c
onnectivities');
#1047=UNCERTAINTY_MEASURE_WITH_UNIT(LENGTH_MEASURE(0.01),#1050,
'DISTANCE_ACCURACY_VALUE',
'Maximum model space distance between geometric entities at asserted c
onnectivities');
#1048=(
GEOMETRIC_REPRESENTATION_CONTEXT(3)
GLOBAL_UNCERTAINTY_ASSIGNED_CONTEXT((#1046))
GLOBAL_UNIT_ASSIGNED_CONTEXT((#1050,#1052,#1053))
REPRESENTATION_CONTEXT('','3D')
);
#1049=(
GEOMETRIC_REPRESENTATION_CONTEXT(3)
GLOBAL_UNCERTAINTY_ASSIGNED_CONTEXT((#1047))
GLOBAL_UNIT_ASSIGNED_CONTEXT((#1050,#1052,#1053))
REPRESENTATION_CONTEXT('','3D')
);
#1050=(
LENGTH_UNIT()
NAMED_UNIT(*)
SI_UNIT(.MILLI.,.METRE.)
);
#1051=(
LENGTH_UNIT()
NAMED_UNIT(*)
SI_UNIT($,.METRE.)
);
#1052=(
NAMED_UNIT(*)
PLANE_ANGLE_UNIT()
SI_UNIT($,.RADIAN.)
);
#1053=(
NAMED_UNIT(*)
SI_UNIT($,.STERADIAN.)
SOLID_ANGLE_UNIT()
);
#1054=SHAPE_DEFINITION_REPRESENTATION(#1055,#1056);
#1055=PRODUCT_DEFINITION_SHAPE('',$,#1058);
#1056=SHAPE_REPRESENTATION('',(#674),#1048);
#1057=PRODUCT_DEFINITION_CONTEXT('part definition',#1062,'design');
#1058=PRODUCT_DEFINITION('2026-08-07-16-50-58-000',
'Ventilator Halterung andere Ma\X\DFe',#1059,#1057);
#1059=PRODUCT_DEFINITION_FORMATION('',$,#1064);
#1060=PRODUCT_RELATED_PRODUCT_CATEGORY(
'Ventilator Halterung andere Ma\X\DFe',
'Ventilator Halterung andere Ma\X\DFe',(#1064));
#1061=APPLICATION_PROTOCOL_DEFINITION('international standard',
'automotive_design',2009,#1062);
#1062=APPLICATION_CONTEXT(
'Core Data for Automotive Mechanical Design Process');
#1063=PRODUCT_CONTEXT('part definition',#1062,'mechanical');
#1064=PRODUCT('2026-08-07-16-50-58-000',
'Ventilator Halterung andere Ma\X\DFe',$,(#1063));
#1065=PRESENTATION_STYLE_ASSIGNMENT((#1066));
#1066=SURFACE_STYLE_USAGE(.BOTH.,#1067);
#1067=SURFACE_SIDE_STYLE('',(#1068));
#1068=SURFACE_STYLE_FILL_AREA(#1069);
#1069=FILL_AREA_STYLE('Steel - Satin',(#1070));
#1070=FILL_AREA_STYLE_COLOUR('Steel - Satin',#1071);
#1071=COLOUR_RGB('Steel - Satin',0.627450980392157,0.627450980392157,0.627450980392157);
ENDSEC;
END-ISO-10303-21;
