ISO-10303-21;
HEADER;
/* Generated by software containing ST-Developer
 * from STEP Tools, Inc. (www.steptools.com) 
 */

FILE_DESCRIPTION(
/* description */ (''),
/* implementation_level */ '2;1');

FILE_NAME(
/* name */ 'Ventillator Halterung.step',
/* time_stamp */ '2026-08-12T11:17:16+02:00',
/* author */ (''),
/* organization */ (''),
/* preprocessor_version */ 'ST-DEVELOPER v20.1',
/* originating_system */ 'Autodesk Translation Framework v15.8.0.0',
/* authorisation */ '');

FILE_SCHEMA (('AUTOMOTIVE_DESIGN { 1 0 10303 214 3 1 1 }'));
ENDSEC;

DATA;
#10=MECHANICAL_DESIGN_GEOMETRIC_PRESENTATION_REPRESENTATION('',(#13),#1125);
#11=SHAPE_REPRESENTATION_RELATIONSHIP('SRR','None',#1132,#12);
#12=ADVANCED_BREP_SHAPE_REPRESENTATION('',(#14),#1124);
#13=STYLED_ITEM('',(#1141),#14);
#14=MANIFOLD_SOLID_BREP('Body1',#709);
#15=FACE_BOUND('',#86,.T.);
#16=FACE_BOUND('',#87,.T.);
#17=FACE_BOUND('',#91,.T.);
#18=FACE_BOUND('',#93,.T.);
#19=FACE_BOUND('',#94,.T.);
#20=FACE_OUTER_BOUND('',#55,.T.);
#21=FACE_OUTER_BOUND('',#56,.T.);
#22=FACE_OUTER_BOUND('',#57,.T.);
#23=FACE_OUTER_BOUND('',#58,.T.);
#24=FACE_OUTER_BOUND('',#59,.T.);
#25=FACE_OUTER_BOUND('',#60,.T.);
#26=FACE_OUTER_BOUND('',#61,.T.);
#27=FACE_OUTER_BOUND('',#62,.T.);
#28=FACE_OUTER_BOUND('',#63,.T.);
#29=FACE_OUTER_BOUND('',#64,.T.);
#30=FACE_OUTER_BOUND('',#65,.T.);
#31=FACE_OUTER_BOUND('',#66,.T.);
#32=FACE_OUTER_BOUND('',#67,.T.);
#33=FACE_OUTER_BOUND('',#68,.T.);
#34=FACE_OUTER_BOUND('',#69,.T.);
#35=FACE_OUTER_BOUND('',#70,.T.);
#36=FACE_OUTER_BOUND('',#71,.T.);
#37=FACE_OUTER_BOUND('',#72,.T.);
#38=FACE_OUTER_BOUND('',#73,.T.);
#39=FACE_OUTER_BOUND('',#74,.T.);
#40=FACE_OUTER_BOUND('',#75,.T.);
#41=FACE_OUTER_BOUND('',#76,.T.);
#42=FACE_OUTER_BOUND('',#77,.T.);
#43=FACE_OUTER_BOUND('',#78,.T.);
#44=FACE_OUTER_BOUND('',#79,.T.);
#45=FACE_OUTER_BOUND('',#80,.T.);
#46=FACE_OUTER_BOUND('',#81,.T.);
#47=FACE_OUTER_BOUND('',#82,.T.);
#48=FACE_OUTER_BOUND('',#83,.T.);
#49=FACE_OUTER_BOUND('',#84,.T.);
#50=FACE_OUTER_BOUND('',#85,.T.);
#51=FACE_OUTER_BOUND('',#88,.T.);
#52=FACE_OUTER_BOUND('',#89,.T.);
#53=FACE_OUTER_BOUND('',#90,.T.);
#54=FACE_OUTER_BOUND('',#92,.T.);
#55=EDGE_LOOP('',(#447,#448,#449,#450));
#56=EDGE_LOOP('',(#451,#452,#453,#454));
#57=EDGE_LOOP('',(#455,#456,#457,#458));
#58=EDGE_LOOP('',(#459,#460,#461,#462));
#59=EDGE_LOOP('',(#463,#464,#465,#466));
#60=EDGE_LOOP('',(#467,#468,#469,#470));
#61=EDGE_LOOP('',(#471,#472,#473,#474));
#62=EDGE_LOOP('',(#475,#476,#477,#478));
#63=EDGE_LOOP('',(#479,#480,#481,#482));
#64=EDGE_LOOP('',(#483,#484,#485,#486,#487,#488,#489,#490));
#65=EDGE_LOOP('',(#491,#492,#493,#494));
#66=EDGE_LOOP('',(#495,#496,#497,#498));
#67=EDGE_LOOP('',(#499,#500,#501,#502,#503,#504,#505,#506));
#68=EDGE_LOOP('',(#507,#508,#509,#510));
#69=EDGE_LOOP('',(#511,#512,#513,#514));
#70=EDGE_LOOP('',(#515,#516,#517,#518));
#71=EDGE_LOOP('',(#519,#520,#521,#522,#523,#524,#525,#526));
#72=EDGE_LOOP('',(#527,#528,#529,#530,#531,#532,#533,#534));
#73=EDGE_LOOP('',(#535,#536,#537,#538));
#74=EDGE_LOOP('',(#539,#540,#541,#542));
#75=EDGE_LOOP('',(#543,#544,#545,#546));
#76=EDGE_LOOP('',(#547,#548,#549,#550));
#77=EDGE_LOOP('',(#551,#552,#553,#554));
#78=EDGE_LOOP('',(#555,#556,#557,#558));
#79=EDGE_LOOP('',(#559,#560,#561,#562));
#80=EDGE_LOOP('',(#563,#564,#565,#566));
#81=EDGE_LOOP('',(#567,#568,#569,#570));
#82=EDGE_LOOP('',(#571,#572,#573,#574));
#83=EDGE_LOOP('',(#575,#576,#577,#578));
#84=EDGE_LOOP('',(#579,#580,#581,#582));
#85=EDGE_LOOP('',(#583,#584,#585,#586));
#86=EDGE_LOOP('',(#587,#588,#589,#590));
#87=EDGE_LOOP('',(#591,#592,#593,#594));
#88=EDGE_LOOP('',(#595,#596,#597,#598));
#89=EDGE_LOOP('',(#599,#600,#601,#602));
#90=EDGE_LOOP('',(#603,#604,#605,#606));
#91=EDGE_LOOP('',(#607,#608,#609,#610));
#92=EDGE_LOOP('',(#611,#612,#613,#614,#615,#616,#617,#618,#619,#620,#621,
#622,#623,#624,#625,#626,#627,#628,#629,#630));
#93=EDGE_LOOP('',(#631,#632,#633,#634));
#94=EDGE_LOOP('',(#635,#636,#637,#638));
#95=LINE('',#930,#191);
#96=LINE('',#932,#192);
#97=LINE('',#934,#193);
#98=LINE('',#935,#194);
#99=LINE('',#938,#195);
#100=LINE('',#940,#196);
#101=LINE('',#941,#197);
#102=LINE('',#945,#198);
#103=LINE('',#947,#199);
#104=LINE('',#949,#200);
#105=LINE('',#950,#201);
#106=LINE('',#953,#202);
#107=LINE('',#955,#203);
#108=LINE('',#956,#204);
#109=LINE('',#960,#205);
#110=LINE('',#962,#206);
#111=LINE('',#964,#207);
#112=LINE('',#965,#208);
#113=LINE('',#968,#209);
#114=LINE('',#970,#210);
#115=LINE('',#971,#211);
#116=LINE('',#975,#212);
#117=LINE('',#977,#213);
#118=LINE('',#979,#214);
#119=LINE('',#980,#215);
#120=LINE('',#983,#216);
#121=LINE('',#985,#217);
#122=LINE('',#986,#218);
#123=LINE('',#989,#219);
#124=LINE('',#991,#220);
#125=LINE('',#992,#221);
#126=LINE('',#995,#222);
#127=LINE('',#996,#223);
#128=LINE('',#997,#224);
#129=LINE('',#1000,#225);
#130=LINE('',#1001,#226);
#131=LINE('',#1003,#227);
#132=LINE('',#1007,#228);
#133=LINE('',#1008,#229);
#134=LINE('',#1009,#230);
#135=LINE('',#1010,#231);
#136=LINE('',#1013,#232);
#137=LINE('',#1014,#233);
#138=LINE('',#1017,#234);
#139=LINE('',#1018,#235);
#140=LINE('',#1020,#236);
#141=LINE('',#1023,#237);
#142=LINE('',#1025,#238);
#143=LINE('',#1027,#239);
#144=LINE('',#1029,#240);
#145=LINE('',#1030,#241);
#146=LINE('',#1033,#242);
#147=LINE('',#1035,#243);
#148=LINE('',#1037,#244);
#149=LINE('',#1039,#245);
#150=LINE('',#1040,#246);
#151=LINE('',#1044,#247);
#152=LINE('',#1046,#248);
#153=LINE('',#1048,#249);
#154=LINE('',#1049,#250);
#155=LINE('',#1052,#251);
#156=LINE('',#1054,#252);
#157=LINE('',#1055,#253);
#158=LINE('',#1059,#254);
#159=LINE('',#1061,#255);
#160=LINE('',#1063,#256);
#161=LINE('',#1064,#257);
#162=LINE('',#1067,#258);
#163=LINE('',#1069,#259);
#164=LINE('',#1070,#260);
#165=LINE('',#1073,#261);
#166=LINE('',#1075,#262);
#167=LINE('',#1076,#263);
#168=LINE('',#1078,#264);
#169=LINE('',#1079,#265);
#170=LINE('',#1083,#266);
#171=LINE('',#1085,#267);
#172=LINE('',#1087,#268);
#173=LINE('',#1088,#269);
#174=LINE('',#1091,#270);
#175=LINE('',#1093,#271);
#176=LINE('',#1094,#272);
#177=LINE('',#1097,#273);
#178=LINE('',#1099,#274);
#179=LINE('',#1100,#275);
#180=LINE('',#1102,#276);
#181=LINE('',#1103,#277);
#182=LINE('',#1106,#278);
#183=LINE('',#1108,#279);
#184=LINE('',#1109,#280);
#185=LINE('',#1111,#281);
#186=LINE('',#1112,#282);
#187=LINE('',#1115,#283);
#188=LINE('',#1116,#284);
#189=LINE('',#1118,#285);
#190=LINE('',#1119,#286);
#191=VECTOR('',#762,10.);
#192=VECTOR('',#763,10.);
#193=VECTOR('',#764,10.);
#194=VECTOR('',#765,10.);
#195=VECTOR('',#768,10.);
#196=VECTOR('',#769,10.);
#197=VECTOR('',#770,10.);
#198=VECTOR('',#773,10.);
#199=VECTOR('',#774,10.);
#200=VECTOR('',#775,10.);
#201=VECTOR('',#776,10.);
#202=VECTOR('',#779,10.);
#203=VECTOR('',#780,10.);
#204=VECTOR('',#781,10.);
#205=VECTOR('',#784,10.);
#206=VECTOR('',#785,10.);
#207=VECTOR('',#786,10.);
#208=VECTOR('',#787,10.);
#209=VECTOR('',#790,10.);
#210=VECTOR('',#791,10.);
#211=VECTOR('',#792,10.);
#212=VECTOR('',#795,10.);
#213=VECTOR('',#796,10.);
#214=VECTOR('',#797,10.);
#215=VECTOR('',#798,10.);
#216=VECTOR('',#801,10.);
#217=VECTOR('',#802,10.);
#218=VECTOR('',#803,10.);
#219=VECTOR('',#806,10.);
#220=VECTOR('',#807,10.);
#221=VECTOR('',#808,10.);
#222=VECTOR('',#811,10.);
#223=VECTOR('',#812,10.);
#224=VECTOR('',#813,10.);
#225=VECTOR('',#816,10.);
#226=VECTOR('',#817,10.);
#227=VECTOR('',#820,10.);
#228=VECTOR('',#823,10.);
#229=VECTOR('',#824,10.);
#230=VECTOR('',#825,10.);
#231=VECTOR('',#826,10.);
#232=VECTOR('',#829,10.);
#233=VECTOR('',#830,10.);
#234=VECTOR('',#833,10.);
#235=VECTOR('',#834,10.);
#236=VECTOR('',#837,10.);
#237=VECTOR('',#840,10.);
#238=VECTOR('',#841,10.);
#239=VECTOR('',#842,10.);
#240=VECTOR('',#843,10.);
#241=VECTOR('',#844,10.);
#242=VECTOR('',#847,10.);
#243=VECTOR('',#848,10.);
#244=VECTOR('',#849,10.);
#245=VECTOR('',#850,10.);
#246=VECTOR('',#851,10.);
#247=VECTOR('',#854,10.);
#248=VECTOR('',#855,10.);
#249=VECTOR('',#856,10.);
#250=VECTOR('',#857,10.);
#251=VECTOR('',#860,10.);
#252=VECTOR('',#861,10.);
#253=VECTOR('',#862,10.);
#254=VECTOR('',#865,10.);
#255=VECTOR('',#866,10.);
#256=VECTOR('',#867,10.);
#257=VECTOR('',#868,10.);
#258=VECTOR('',#871,10.);
#259=VECTOR('',#872,10.);
#260=VECTOR('',#873,10.);
#261=VECTOR('',#876,10.);
#262=VECTOR('',#877,10.);
#263=VECTOR('',#878,10.);
#264=VECTOR('',#881,10.);
#265=VECTOR('',#882,10.);
#266=VECTOR('',#885,10.);
#267=VECTOR('',#886,10.);
#268=VECTOR('',#887,10.);
#269=VECTOR('',#888,10.);
#270=VECTOR('',#891,10.);
#271=VECTOR('',#892,10.);
#272=VECTOR('',#893,10.);
#273=VECTOR('',#896,10.);
#274=VECTOR('',#897,10.);
#275=VECTOR('',#898,10.);
#276=VECTOR('',#901,10.);
#277=VECTOR('',#902,10.);
#278=VECTOR('',#905,10.);
#279=VECTOR('',#906,10.);
#280=VECTOR('',#907,10.);
#281=VECTOR('',#910,10.);
#282=VECTOR('',#911,10.);
#283=VECTOR('',#916,10.);
#284=VECTOR('',#917,10.);
#285=VECTOR('',#920,10.);
#286=VECTOR('',#921,10.);
#287=VERTEX_POINT('',#928);
#288=VERTEX_POINT('',#929);
#289=VERTEX_POINT('',#931);
#290=VERTEX_POINT('',#933);
#291=VERTEX_POINT('',#937);
#292=VERTEX_POINT('',#939);
#293=VERTEX_POINT('',#943);
#294=VERTEX_POINT('',#944);
#295=VERTEX_POINT('',#946);
#296=VERTEX_POINT('',#948);
#297=VERTEX_POINT('',#952);
#298=VERTEX_POINT('',#954);
#299=VERTEX_POINT('',#958);
#300=VERTEX_POINT('',#959);
#301=VERTEX_POINT('',#961);
#302=VERTEX_POINT('',#963);
#303=VERTEX_POINT('',#967);
#304=VERTEX_POINT('',#969);
#305=VERTEX_POINT('',#973);
#306=VERTEX_POINT('',#974);
#307=VERTEX_POINT('',#976);
#308=VERTEX_POINT('',#978);
#309=VERTEX_POINT('',#982);
#310=VERTEX_POINT('',#984);
#311=VERTEX_POINT('',#988);
#312=VERTEX_POINT('',#990);
#313=VERTEX_POINT('',#994);
#314=VERTEX_POINT('',#999);
#315=VERTEX_POINT('',#1005);
#316=VERTEX_POINT('',#1006);
#317=VERTEX_POINT('',#1012);
#318=VERTEX_POINT('',#1016);
#319=VERTEX_POINT('',#1022);
#320=VERTEX_POINT('',#1024);
#321=VERTEX_POINT('',#1026);
#322=VERTEX_POINT('',#1028);
#323=VERTEX_POINT('',#1032);
#324=VERTEX_POINT('',#1034);
#325=VERTEX_POINT('',#1036);
#326=VERTEX_POINT('',#1038);
#327=VERTEX_POINT('',#1042);
#328=VERTEX_POINT('',#1043);
#329=VERTEX_POINT('',#1045);
#330=VERTEX_POINT('',#1047);
#331=VERTEX_POINT('',#1051);
#332=VERTEX_POINT('',#1053);
#333=VERTEX_POINT('',#1057);
#334=VERTEX_POINT('',#1058);
#335=VERTEX_POINT('',#1060);
#336=VERTEX_POINT('',#1062);
#337=VERTEX_POINT('',#1066);
#338=VERTEX_POINT('',#1068);
#339=VERTEX_POINT('',#1072);
#340=VERTEX_POINT('',#1074);
#341=VERTEX_POINT('',#1081);
#342=VERTEX_POINT('',#1082);
#343=VERTEX_POINT('',#1084);
#344=VERTEX_POINT('',#1086);
#345=VERTEX_POINT('',#1090);
#346=VERTEX_POINT('',#1092);
#347=VERTEX_POINT('',#1096);
#348=VERTEX_POINT('',#1098);
#349=VERTEX_POINT('',#1105);
#350=VERTEX_POINT('',#1107);
#351=EDGE_CURVE('',#287,#288,#95,.T.);
#352=EDGE_CURVE('',#287,#289,#96,.T.);
#353=EDGE_CURVE('',#290,#289,#97,.T.);
#354=EDGE_CURVE('',#288,#290,#98,.T.);
#355=EDGE_CURVE('',#289,#291,#99,.T.);
#356=EDGE_CURVE('',#291,#292,#100,.T.);
#357=EDGE_CURVE('',#292,#290,#101,.T.);
#358=EDGE_CURVE('',#293,#294,#102,.T.);
#359=EDGE_CURVE('',#293,#295,#103,.T.);
#360=EDGE_CURVE('',#296,#295,#104,.T.);
#361=EDGE_CURVE('',#294,#296,#105,.T.);
#362=EDGE_CURVE('',#297,#296,#106,.T.);
#363=EDGE_CURVE('',#295,#298,#107,.T.);
#364=EDGE_CURVE('',#298,#297,#108,.T.);
#365=EDGE_CURVE('',#299,#300,#109,.T.);
#366=EDGE_CURVE('',#299,#301,#110,.T.);
#367=EDGE_CURVE('',#302,#301,#111,.T.);
#368=EDGE_CURVE('',#300,#302,#112,.T.);
#369=EDGE_CURVE('',#303,#302,#113,.T.);
#370=EDGE_CURVE('',#301,#304,#114,.T.);
#371=EDGE_CURVE('',#304,#303,#115,.T.);
#372=EDGE_CURVE('',#305,#306,#116,.T.);
#373=EDGE_CURVE('',#305,#307,#117,.T.);
#374=EDGE_CURVE('',#308,#307,#118,.T.);
#375=EDGE_CURVE('',#306,#308,#119,.T.);
#376=EDGE_CURVE('',#309,#308,#120,.T.);
#377=EDGE_CURVE('',#307,#310,#121,.T.);
#378=EDGE_CURVE('',#310,#309,#122,.T.);
#379=EDGE_CURVE('',#311,#288,#123,.T.);
#380=EDGE_CURVE('',#312,#311,#124,.T.);
#381=EDGE_CURVE('',#312,#287,#125,.T.);
#382=EDGE_CURVE('',#311,#313,#126,.T.);
#383=EDGE_CURVE('',#292,#298,#127,.T.);
#384=EDGE_CURVE('',#313,#293,#128,.T.);
#385=EDGE_CURVE('',#314,#294,#129,.T.);
#386=EDGE_CURVE('',#313,#314,#130,.T.);
#387=EDGE_CURVE('',#297,#291,#131,.T.);
#388=EDGE_CURVE('',#315,#316,#132,.T.);
#389=EDGE_CURVE('',#315,#300,#133,.T.);
#390=EDGE_CURVE('',#303,#310,#134,.T.);
#391=EDGE_CURVE('',#316,#305,#135,.T.);
#392=EDGE_CURVE('',#317,#306,#136,.T.);
#393=EDGE_CURVE('',#316,#317,#137,.T.);
#394=EDGE_CURVE('',#318,#315,#138,.T.);
#395=EDGE_CURVE('',#318,#299,#139,.T.);
#396=EDGE_CURVE('',#309,#304,#140,.T.);
#397=EDGE_CURVE('',#314,#319,#141,.T.);
#398=EDGE_CURVE('',#319,#320,#142,.T.);
#399=EDGE_CURVE('',#320,#321,#143,.T.);
#400=EDGE_CURVE('',#321,#322,#144,.T.);
#401=EDGE_CURVE('',#322,#312,#145,.T.);
#402=EDGE_CURVE('',#317,#323,#146,.T.);
#403=EDGE_CURVE('',#323,#324,#147,.T.);
#404=EDGE_CURVE('',#324,#325,#148,.T.);
#405=EDGE_CURVE('',#325,#326,#149,.T.);
#406=EDGE_CURVE('',#326,#318,#150,.T.);
#407=EDGE_CURVE('',#327,#328,#151,.T.);
#408=EDGE_CURVE('',#327,#329,#152,.T.);
#409=EDGE_CURVE('',#330,#329,#153,.T.);
#410=EDGE_CURVE('',#328,#330,#154,.T.);
#411=EDGE_CURVE('',#331,#327,#155,.T.);
#412=EDGE_CURVE('',#331,#332,#156,.T.);
#413=EDGE_CURVE('',#329,#332,#157,.T.);
#414=EDGE_CURVE('',#333,#334,#158,.T.);
#415=EDGE_CURVE('',#334,#335,#159,.T.);
#416=EDGE_CURVE('',#336,#335,#160,.T.);
#417=EDGE_CURVE('',#333,#336,#161,.T.);
#418=EDGE_CURVE('',#337,#333,#162,.T.);
#419=EDGE_CURVE('',#338,#336,#163,.T.);
#420=EDGE_CURVE('',#337,#338,#164,.T.);
#421=EDGE_CURVE('',#339,#337,#165,.T.);
#422=EDGE_CURVE('',#340,#338,#166,.T.);
#423=EDGE_CURVE('',#339,#340,#167,.T.);
#424=EDGE_CURVE('',#334,#339,#168,.T.);
#425=EDGE_CURVE('',#335,#340,#169,.T.);
#426=EDGE_CURVE('',#341,#342,#170,.T.);
#427=EDGE_CURVE('',#342,#343,#171,.T.);
#428=EDGE_CURVE('',#344,#343,#172,.T.);
#429=EDGE_CURVE('',#341,#344,#173,.T.);
#430=EDGE_CURVE('',#345,#341,#174,.T.);
#431=EDGE_CURVE('',#346,#344,#175,.T.);
#432=EDGE_CURVE('',#345,#346,#176,.T.);
#433=EDGE_CURVE('',#347,#345,#177,.T.);
#434=EDGE_CURVE('',#348,#346,#178,.T.);
#435=EDGE_CURVE('',#347,#348,#179,.T.);
#436=EDGE_CURVE('',#342,#347,#180,.T.);
#437=EDGE_CURVE('',#343,#348,#181,.T.);
#438=EDGE_CURVE('',#328,#349,#182,.T.);
#439=EDGE_CURVE('',#350,#330,#183,.T.);
#440=EDGE_CURVE('',#349,#350,#184,.T.);
#441=EDGE_CURVE('',#349,#331,#185,.T.);
#442=EDGE_CURVE('',#332,#350,#186,.T.);
#443=EDGE_CURVE('',#326,#319,#187,.T.);
#444=EDGE_CURVE('',#325,#320,#188,.T.);
#445=EDGE_CURVE('',#322,#323,#189,.T.);
#446=EDGE_CURVE('',#321,#324,#190,.T.);
#447=ORIENTED_EDGE('',*,*,#351,.F.);
#448=ORIENTED_EDGE('',*,*,#352,.T.);
#449=ORIENTED_EDGE('',*,*,#353,.F.);
#450=ORIENTED_EDGE('',*,*,#354,.F.);
#451=ORIENTED_EDGE('',*,*,#355,.T.);
#452=ORIENTED_EDGE('',*,*,#356,.T.);
#453=ORIENTED_EDGE('',*,*,#357,.T.);
#454=ORIENTED_EDGE('',*,*,#353,.T.);
#455=ORIENTED_EDGE('',*,*,#358,.F.);
#456=ORIENTED_EDGE('',*,*,#359,.T.);
#457=ORIENTED_EDGE('',*,*,#360,.F.);
#458=ORIENTED_EDGE('',*,*,#361,.F.);
#459=ORIENTED_EDGE('',*,*,#362,.T.);
#460=ORIENTED_EDGE('',*,*,#360,.T.);
#461=ORIENTED_EDGE('',*,*,#363,.T.);
#462=ORIENTED_EDGE('',*,*,#364,.T.);
#463=ORIENTED_EDGE('',*,*,#365,.F.);
#464=ORIENTED_EDGE('',*,*,#366,.T.);
#465=ORIENTED_EDGE('',*,*,#367,.F.);
#466=ORIENTED_EDGE('',*,*,#368,.F.);
#467=ORIENTED_EDGE('',*,*,#369,.T.);
#468=ORIENTED_EDGE('',*,*,#367,.T.);
#469=ORIENTED_EDGE('',*,*,#370,.T.);
#470=ORIENTED_EDGE('',*,*,#371,.T.);
#471=ORIENTED_EDGE('',*,*,#372,.F.);
#472=ORIENTED_EDGE('',*,*,#373,.T.);
#473=ORIENTED_EDGE('',*,*,#374,.F.);
#474=ORIENTED_EDGE('',*,*,#375,.F.);
#475=ORIENTED_EDGE('',*,*,#376,.T.);
#476=ORIENTED_EDGE('',*,*,#374,.T.);
#477=ORIENTED_EDGE('',*,*,#377,.T.);
#478=ORIENTED_EDGE('',*,*,#378,.T.);
#479=ORIENTED_EDGE('',*,*,#351,.T.);
#480=ORIENTED_EDGE('',*,*,#379,.F.);
#481=ORIENTED_EDGE('',*,*,#380,.F.);
#482=ORIENTED_EDGE('',*,*,#381,.T.);
#483=ORIENTED_EDGE('',*,*,#382,.F.);
#484=ORIENTED_EDGE('',*,*,#379,.T.);
#485=ORIENTED_EDGE('',*,*,#354,.T.);
#486=ORIENTED_EDGE('',*,*,#357,.F.);
#487=ORIENTED_EDGE('',*,*,#383,.T.);
#488=ORIENTED_EDGE('',*,*,#363,.F.);
#489=ORIENTED_EDGE('',*,*,#359,.F.);
#490=ORIENTED_EDGE('',*,*,#384,.F.);
#491=ORIENTED_EDGE('',*,*,#358,.T.);
#492=ORIENTED_EDGE('',*,*,#385,.F.);
#493=ORIENTED_EDGE('',*,*,#386,.F.);
#494=ORIENTED_EDGE('',*,*,#384,.T.);
#495=ORIENTED_EDGE('',*,*,#387,.F.);
#496=ORIENTED_EDGE('',*,*,#364,.F.);
#497=ORIENTED_EDGE('',*,*,#383,.F.);
#498=ORIENTED_EDGE('',*,*,#356,.F.);
#499=ORIENTED_EDGE('',*,*,#388,.F.);
#500=ORIENTED_EDGE('',*,*,#389,.T.);
#501=ORIENTED_EDGE('',*,*,#368,.T.);
#502=ORIENTED_EDGE('',*,*,#369,.F.);
#503=ORIENTED_EDGE('',*,*,#390,.T.);
#504=ORIENTED_EDGE('',*,*,#377,.F.);
#505=ORIENTED_EDGE('',*,*,#373,.F.);
#506=ORIENTED_EDGE('',*,*,#391,.F.);
#507=ORIENTED_EDGE('',*,*,#372,.T.);
#508=ORIENTED_EDGE('',*,*,#392,.F.);
#509=ORIENTED_EDGE('',*,*,#393,.F.);
#510=ORIENTED_EDGE('',*,*,#391,.T.);
#511=ORIENTED_EDGE('',*,*,#365,.T.);
#512=ORIENTED_EDGE('',*,*,#389,.F.);
#513=ORIENTED_EDGE('',*,*,#394,.F.);
#514=ORIENTED_EDGE('',*,*,#395,.T.);
#515=ORIENTED_EDGE('',*,*,#396,.F.);
#516=ORIENTED_EDGE('',*,*,#378,.F.);
#517=ORIENTED_EDGE('',*,*,#390,.F.);
#518=ORIENTED_EDGE('',*,*,#371,.F.);
#519=ORIENTED_EDGE('',*,*,#386,.T.);
#520=ORIENTED_EDGE('',*,*,#397,.T.);
#521=ORIENTED_EDGE('',*,*,#398,.T.);
#522=ORIENTED_EDGE('',*,*,#399,.T.);
#523=ORIENTED_EDGE('',*,*,#400,.T.);
#524=ORIENTED_EDGE('',*,*,#401,.T.);
#525=ORIENTED_EDGE('',*,*,#380,.T.);
#526=ORIENTED_EDGE('',*,*,#382,.T.);
#527=ORIENTED_EDGE('',*,*,#393,.T.);
#528=ORIENTED_EDGE('',*,*,#402,.T.);
#529=ORIENTED_EDGE('',*,*,#403,.T.);
#530=ORIENTED_EDGE('',*,*,#404,.T.);
#531=ORIENTED_EDGE('',*,*,#405,.T.);
#532=ORIENTED_EDGE('',*,*,#406,.T.);
#533=ORIENTED_EDGE('',*,*,#394,.T.);
#534=ORIENTED_EDGE('',*,*,#388,.T.);
#535=ORIENTED_EDGE('',*,*,#407,.F.);
#536=ORIENTED_EDGE('',*,*,#408,.T.);
#537=ORIENTED_EDGE('',*,*,#409,.F.);
#538=ORIENTED_EDGE('',*,*,#410,.F.);
#539=ORIENTED_EDGE('',*,*,#411,.F.);
#540=ORIENTED_EDGE('',*,*,#412,.T.);
#541=ORIENTED_EDGE('',*,*,#413,.F.);
#542=ORIENTED_EDGE('',*,*,#408,.F.);
#543=ORIENTED_EDGE('',*,*,#414,.T.);
#544=ORIENTED_EDGE('',*,*,#415,.T.);
#545=ORIENTED_EDGE('',*,*,#416,.F.);
#546=ORIENTED_EDGE('',*,*,#417,.F.);
#547=ORIENTED_EDGE('',*,*,#418,.T.);
#548=ORIENTED_EDGE('',*,*,#417,.T.);
#549=ORIENTED_EDGE('',*,*,#419,.F.);
#550=ORIENTED_EDGE('',*,*,#420,.F.);
#551=ORIENTED_EDGE('',*,*,#421,.T.);
#552=ORIENTED_EDGE('',*,*,#420,.T.);
#553=ORIENTED_EDGE('',*,*,#422,.F.);
#554=ORIENTED_EDGE('',*,*,#423,.F.);
#555=ORIENTED_EDGE('',*,*,#424,.T.);
#556=ORIENTED_EDGE('',*,*,#423,.T.);
#557=ORIENTED_EDGE('',*,*,#425,.F.);
#558=ORIENTED_EDGE('',*,*,#415,.F.);
#559=ORIENTED_EDGE('',*,*,#426,.T.);
#560=ORIENTED_EDGE('',*,*,#427,.T.);
#561=ORIENTED_EDGE('',*,*,#428,.F.);
#562=ORIENTED_EDGE('',*,*,#429,.F.);
#563=ORIENTED_EDGE('',*,*,#430,.T.);
#564=ORIENTED_EDGE('',*,*,#429,.T.);
#565=ORIENTED_EDGE('',*,*,#431,.F.);
#566=ORIENTED_EDGE('',*,*,#432,.F.);
#567=ORIENTED_EDGE('',*,*,#433,.T.);
#568=ORIENTED_EDGE('',*,*,#432,.T.);
#569=ORIENTED_EDGE('',*,*,#434,.F.);
#570=ORIENTED_EDGE('',*,*,#435,.F.);
#571=ORIENTED_EDGE('',*,*,#436,.T.);
#572=ORIENTED_EDGE('',*,*,#435,.T.);
#573=ORIENTED_EDGE('',*,*,#437,.F.);
#574=ORIENTED_EDGE('',*,*,#427,.F.);
#575=ORIENTED_EDGE('',*,*,#438,.F.);
#576=ORIENTED_EDGE('',*,*,#410,.T.);
#577=ORIENTED_EDGE('',*,*,#439,.F.);
#578=ORIENTED_EDGE('',*,*,#440,.F.);
#579=ORIENTED_EDGE('',*,*,#441,.F.);
#580=ORIENTED_EDGE('',*,*,#440,.T.);
#581=ORIENTED_EDGE('',*,*,#442,.F.);
#582=ORIENTED_EDGE('',*,*,#412,.F.);
#583=ORIENTED_EDGE('',*,*,#413,.T.);
#584=ORIENTED_EDGE('',*,*,#442,.T.);
#585=ORIENTED_EDGE('',*,*,#439,.T.);
#586=ORIENTED_EDGE('',*,*,#409,.T.);
#587=ORIENTED_EDGE('',*,*,#437,.T.);
#588=ORIENTED_EDGE('',*,*,#434,.T.);
#589=ORIENTED_EDGE('',*,*,#431,.T.);
#590=ORIENTED_EDGE('',*,*,#428,.T.);
#591=ORIENTED_EDGE('',*,*,#425,.T.);
#592=ORIENTED_EDGE('',*,*,#422,.T.);
#593=ORIENTED_EDGE('',*,*,#419,.T.);
#594=ORIENTED_EDGE('',*,*,#416,.T.);
#595=ORIENTED_EDGE('',*,*,#443,.F.);
#596=ORIENTED_EDGE('',*,*,#405,.F.);
#597=ORIENTED_EDGE('',*,*,#444,.T.);
#598=ORIENTED_EDGE('',*,*,#398,.F.);
#599=ORIENTED_EDGE('',*,*,#445,.F.);
#600=ORIENTED_EDGE('',*,*,#400,.F.);
#601=ORIENTED_EDGE('',*,*,#446,.T.);
#602=ORIENTED_EDGE('',*,*,#403,.F.);
#603=ORIENTED_EDGE('',*,*,#446,.F.);
#604=ORIENTED_EDGE('',*,*,#399,.F.);
#605=ORIENTED_EDGE('',*,*,#444,.F.);
#606=ORIENTED_EDGE('',*,*,#404,.F.);
#607=ORIENTED_EDGE('',*,*,#441,.T.);
#608=ORIENTED_EDGE('',*,*,#411,.T.);
#609=ORIENTED_EDGE('',*,*,#407,.T.);
#610=ORIENTED_EDGE('',*,*,#438,.T.);
#611=ORIENTED_EDGE('',*,*,#443,.T.);
#612=ORIENTED_EDGE('',*,*,#397,.F.);
#613=ORIENTED_EDGE('',*,*,#385,.T.);
#614=ORIENTED_EDGE('',*,*,#361,.T.);
#615=ORIENTED_EDGE('',*,*,#362,.F.);
#616=ORIENTED_EDGE('',*,*,#387,.T.);
#617=ORIENTED_EDGE('',*,*,#355,.F.);
#618=ORIENTED_EDGE('',*,*,#352,.F.);
#619=ORIENTED_EDGE('',*,*,#381,.F.);
#620=ORIENTED_EDGE('',*,*,#401,.F.);
#621=ORIENTED_EDGE('',*,*,#445,.T.);
#622=ORIENTED_EDGE('',*,*,#402,.F.);
#623=ORIENTED_EDGE('',*,*,#392,.T.);
#624=ORIENTED_EDGE('',*,*,#375,.T.);
#625=ORIENTED_EDGE('',*,*,#376,.F.);
#626=ORIENTED_EDGE('',*,*,#396,.T.);
#627=ORIENTED_EDGE('',*,*,#370,.F.);
#628=ORIENTED_EDGE('',*,*,#366,.F.);
#629=ORIENTED_EDGE('',*,*,#395,.F.);
#630=ORIENTED_EDGE('',*,*,#406,.F.);
#631=ORIENTED_EDGE('',*,*,#424,.F.);
#632=ORIENTED_EDGE('',*,*,#414,.F.);
#633=ORIENTED_EDGE('',*,*,#418,.F.);
#634=ORIENTED_EDGE('',*,*,#421,.F.);
#635=ORIENTED_EDGE('',*,*,#436,.F.);
#636=ORIENTED_EDGE('',*,*,#426,.F.);
#637=ORIENTED_EDGE('',*,*,#430,.F.);
#638=ORIENTED_EDGE('',*,*,#433,.F.);
#639=PLANE('',#723);
#640=PLANE('',#724);
#641=PLANE('',#725);
#642=PLANE('',#726);
#643=PLANE('',#727);
#644=PLANE('',#728);
#645=PLANE('',#729);
#646=PLANE('',#730);
#647=PLANE('',#731);
#648=PLANE('',#732);
#649=PLANE('',#733);
#650=PLANE('',#734);
#651=PLANE('',#735);
#652=PLANE('',#736);
#653=PLANE('',#737);
#654=PLANE('',#738);
#655=PLANE('',#739);
#656=PLANE('',#740);
#657=PLANE('',#741);
#658=PLANE('',#742);
#659=PLANE('',#743);
#660=PLANE('',#744);
#661=PLANE('',#745);
#662=PLANE('',#746);
#663=PLANE('',#747);
#664=PLANE('',#748);
#665=PLANE('',#749);
#666=PLANE('',#750);
#667=PLANE('',#751);
#668=PLANE('',#752);
#669=PLANE('',#753);
#670=PLANE('',#754);
#671=PLANE('',#755);
#672=PLANE('',#756);
#673=PLANE('',#757);
#674=ADVANCED_FACE('',(#20),#639,.T.);
#675=ADVANCED_FACE('',(#21),#640,.T.);
#676=ADVANCED_FACE('',(#22),#641,.T.);
#677=ADVANCED_FACE('',(#23),#642,.T.);
#678=ADVANCED_FACE('',(#24),#643,.T.);
#679=ADVANCED_FACE('',(#25),#644,.T.);
#680=ADVANCED_FACE('',(#26),#645,.T.);
#681=ADVANCED_FACE('',(#27),#646,.T.);
#682=ADVANCED_FACE('',(#28),#647,.T.);
#683=ADVANCED_FACE('',(#29),#648,.T.);
#684=ADVANCED_FACE('',(#30),#649,.T.);
#685=ADVANCED_FACE('',(#31),#650,.T.);
#686=ADVANCED_FACE('',(#32),#651,.T.);
#687=ADVANCED_FACE('',(#33),#652,.T.);
#688=ADVANCED_FACE('',(#34),#653,.T.);
#689=ADVANCED_FACE('',(#35),#654,.T.);
#690=ADVANCED_FACE('',(#36),#655,.T.);
#691=ADVANCED_FACE('',(#37),#656,.T.);
#692=ADVANCED_FACE('',(#38),#657,.T.);
#693=ADVANCED_FACE('',(#39),#658,.T.);
#694=ADVANCED_FACE('',(#40),#659,.T.);
#695=ADVANCED_FACE('',(#41),#660,.T.);
#696=ADVANCED_FACE('',(#42),#661,.T.);
#697=ADVANCED_FACE('',(#43),#662,.T.);
#698=ADVANCED_FACE('',(#44),#663,.T.);
#699=ADVANCED_FACE('',(#45),#664,.T.);
#700=ADVANCED_FACE('',(#46),#665,.T.);
#701=ADVANCED_FACE('',(#47),#666,.T.);
#702=ADVANCED_FACE('',(#48),#667,.T.);
#703=ADVANCED_FACE('',(#49),#668,.T.);
#704=ADVANCED_FACE('',(#50,#15,#16),#669,.T.);
#705=ADVANCED_FACE('',(#51),#670,.T.);
#706=ADVANCED_FACE('',(#52),#671,.T.);
#707=ADVANCED_FACE('',(#53,#17),#672,.T.);
#708=ADVANCED_FACE('',(#54,#18,#19),#673,.F.);
#709=CLOSED_SHELL('',(#674,#675,#676,#677,#678,#679,#680,#681,#682,#683,
#684,#685,#686,#687,#688,#689,#690,#691,#692,#693,#694,#695,#696,#697,#698,
#699,#700,#701,#702,#703,#704,#705,#706,#707,#708));
#710=DERIVED_UNIT_ELEMENT(#712,1.);
#711=DERIVED_UNIT_ELEMENT(#1127,-3.);
#712=(
MASS_UNIT()
NAMED_UNIT(*)
SI_UNIT(.KILO.,.GRAM.)
);
#713=DERIVED_UNIT((#710,#711));
#714=MEASURE_REPRESENTATION_ITEM('density measure',
POSITIVE_RATIO_MEASURE(7850.),#713);
#715=PROPERTY_DEFINITION_REPRESENTATION(#720,#717);
#716=PROPERTY_DEFINITION_REPRESENTATION(#721,#718);
#717=REPRESENTATION('material name',(#719),#1124);
#718=REPRESENTATION('density',(#714),#1124);
#719=DESCRIPTIVE_REPRESENTATION_ITEM('Steel','Steel');
#720=PROPERTY_DEFINITION('material property','material name',#1134);
#721=PROPERTY_DEFINITION('material property','density of part',#1134);
#722=AXIS2_PLACEMENT_3D('',#926,#758,#759);
#723=AXIS2_PLACEMENT_3D('',#927,#760,#761);
#724=AXIS2_PLACEMENT_3D('',#936,#766,#767);
#725=AXIS2_PLACEMENT_3D('',#942,#771,#772);
#726=AXIS2_PLACEMENT_3D('',#951,#777,#778);
#727=AXIS2_PLACEMENT_3D('',#957,#782,#783);
#728=AXIS2_PLACEMENT_3D('',#966,#788,#789);
#729=AXIS2_PLACEMENT_3D('',#972,#793,#794);
#730=AXIS2_PLACEMENT_3D('',#981,#799,#800);
#731=AXIS2_PLACEMENT_3D('',#987,#804,#805);
#732=AXIS2_PLACEMENT_3D('',#993,#809,#810);
#733=AXIS2_PLACEMENT_3D('',#998,#814,#815);
#734=AXIS2_PLACEMENT_3D('',#1002,#818,#819);
#735=AXIS2_PLACEMENT_3D('',#1004,#821,#822);
#736=AXIS2_PLACEMENT_3D('',#1011,#827,#828);
#737=AXIS2_PLACEMENT_3D('',#1015,#831,#832);
#738=AXIS2_PLACEMENT_3D('',#1019,#835,#836);
#739=AXIS2_PLACEMENT_3D('',#1021,#838,#839);
#740=AXIS2_PLACEMENT_3D('',#1031,#845,#846);
#741=AXIS2_PLACEMENT_3D('',#1041,#852,#853);
#742=AXIS2_PLACEMENT_3D('',#1050,#858,#859);
#743=AXIS2_PLACEMENT_3D('',#1056,#863,#864);
#744=AXIS2_PLACEMENT_3D('',#1065,#869,#870);
#745=AXIS2_PLACEMENT_3D('',#1071,#874,#875);
#746=AXIS2_PLACEMENT_3D('',#1077,#879,#880);
#747=AXIS2_PLACEMENT_3D('',#1080,#883,#884);
#748=AXIS2_PLACEMENT_3D('',#1089,#889,#890);
#749=AXIS2_PLACEMENT_3D('',#1095,#894,#895);
#750=AXIS2_PLACEMENT_3D('',#1101,#899,#900);
#751=AXIS2_PLACEMENT_3D('',#1104,#903,#904);
#752=AXIS2_PLACEMENT_3D('',#1110,#908,#909);
#753=AXIS2_PLACEMENT_3D('',#1113,#912,#913);
#754=AXIS2_PLACEMENT_3D('',#1114,#914,#915);
#755=AXIS2_PLACEMENT_3D('',#1117,#918,#919);
#756=AXIS2_PLACEMENT_3D('',#1120,#922,#923);
#757=AXIS2_PLACEMENT_3D('',#1121,#924,#925);
#758=DIRECTION('axis',(0.,0.,1.));
#759=DIRECTION('refdir',(1.,0.,0.));
#760=DIRECTION('center_axis',(0.,-1.,0.));
#761=DIRECTION('ref_axis',(0.,0.,-1.));
#762=DIRECTION('',(0.,0.,1.));
#763=DIRECTION('',(1.,0.,0.));
#764=DIRECTION('',(0.,0.,-1.));
#765=DIRECTION('',(1.,0.,0.));
#766=DIRECTION('center_axis',(1.,0.,0.));
#767=DIRECTION('ref_axis',(0.,0.,-1.));
#768=DIRECTION('',(0.,1.,0.));
#769=DIRECTION('',(0.,0.,1.));
#770=DIRECTION('',(0.,-1.,0.));
#771=DIRECTION('center_axis',(0.,-1.,0.));
#772=DIRECTION('ref_axis',(0.,0.,1.));
#773=DIRECTION('',(0.,0.,-1.));
#774=DIRECTION('',(-1.,0.,0.));
#775=DIRECTION('',(0.,0.,1.));
#776=DIRECTION('',(-1.,0.,0.));
#777=DIRECTION('center_axis',(-1.,0.,0.));
#778=DIRECTION('ref_axis',(0.,0.,1.));
#779=DIRECTION('',(0.,-1.,0.));
#780=DIRECTION('',(0.,1.,0.));
#781=DIRECTION('',(0.,0.,-1.));
#782=DIRECTION('center_axis',(0.,1.,0.));
#783=DIRECTION('ref_axis',(0.,0.,-1.));
#784=DIRECTION('',(0.,0.,1.));
#785=DIRECTION('',(-1.,0.,0.));
#786=DIRECTION('',(0.,0.,-1.));
#787=DIRECTION('',(-1.,0.,0.));
#788=DIRECTION('center_axis',(-1.,0.,0.));
#789=DIRECTION('ref_axis',(0.,0.,1.));
#790=DIRECTION('',(0.,1.,0.));
#791=DIRECTION('',(0.,-1.,0.));
#792=DIRECTION('',(0.,0.,1.));
#793=DIRECTION('center_axis',(0.,1.,0.));
#794=DIRECTION('ref_axis',(0.,0.,1.));
#795=DIRECTION('',(0.,0.,-1.));
#796=DIRECTION('',(1.,0.,0.));
#797=DIRECTION('',(0.,0.,1.));
#798=DIRECTION('',(1.,0.,0.));
#799=DIRECTION('center_axis',(1.,0.,0.));
#800=DIRECTION('ref_axis',(0.,0.,-1.));
#801=DIRECTION('',(0.,1.,0.));
#802=DIRECTION('',(0.,-1.,0.));
#803=DIRECTION('',(0.,0.,-1.));
#804=DIRECTION('center_axis',(1.,0.,0.));
#805=DIRECTION('ref_axis',(0.,0.,-1.));
#806=DIRECTION('',(0.,1.,0.));
#807=DIRECTION('',(0.,0.,1.));
#808=DIRECTION('',(0.,1.,0.));
#809=DIRECTION('center_axis',(0.,0.,1.));
#810=DIRECTION('ref_axis',(1.,0.,0.));
#811=DIRECTION('',(-1.,0.,0.));
#812=DIRECTION('',(-1.,0.,0.));
#813=DIRECTION('',(0.,1.,0.));
#814=DIRECTION('center_axis',(-1.,0.,0.));
#815=DIRECTION('ref_axis',(0.,0.,1.));
#816=DIRECTION('',(0.,1.,0.));
#817=DIRECTION('',(0.,0.,-1.));
#818=DIRECTION('center_axis',(0.,1.,0.));
#819=DIRECTION('ref_axis',(0.,0.,1.));
#820=DIRECTION('',(1.,0.,0.));
#821=DIRECTION('center_axis',(0.,0.,1.));
#822=DIRECTION('ref_axis',(-1.,0.,0.));
#823=DIRECTION('',(1.,0.,0.));
#824=DIRECTION('',(0.,-1.,0.));
#825=DIRECTION('',(1.,0.,0.));
#826=DIRECTION('',(0.,-1.,0.));
#827=DIRECTION('center_axis',(1.,0.,0.));
#828=DIRECTION('ref_axis',(0.,0.,1.));
#829=DIRECTION('',(0.,-1.,0.));
#830=DIRECTION('',(0.,0.,-1.));
#831=DIRECTION('center_axis',(-1.,0.,0.));
#832=DIRECTION('ref_axis',(0.,0.,-1.));
#833=DIRECTION('',(0.,0.,1.));
#834=DIRECTION('',(0.,-1.,0.));
#835=DIRECTION('center_axis',(0.,-1.,0.));
#836=DIRECTION('ref_axis',(0.,0.,-1.));
#837=DIRECTION('',(-1.,0.,0.));
#838=DIRECTION('center_axis',(0.,1.,0.));
#839=DIRECTION('ref_axis',(0.,0.,1.));
#840=DIRECTION('',(-1.,0.,0.));
#841=DIRECTION('',(0.,0.,1.));
#842=DIRECTION('',(1.,0.,0.));
#843=DIRECTION('',(0.,0.,-1.));
#844=DIRECTION('',(-1.,0.,0.));
#845=DIRECTION('center_axis',(0.,-1.,0.));
#846=DIRECTION('ref_axis',(0.,0.,-1.));
#847=DIRECTION('',(1.,0.,0.));
#848=DIRECTION('',(0.,0.,1.));
#849=DIRECTION('',(-1.,0.,0.));
#850=DIRECTION('',(0.,0.,-1.));
#851=DIRECTION('',(1.,0.,0.));
#852=DIRECTION('center_axis',(0.,1.,0.));
#853=DIRECTION('ref_axis',(-1.,0.,0.));
#854=DIRECTION('',(1.,0.,0.));
#855=DIRECTION('',(0.,0.,1.));
#856=DIRECTION('',(-1.,0.,0.));
#857=DIRECTION('',(0.,0.,1.));
#858=DIRECTION('center_axis',(-1.,0.,0.));
#859=DIRECTION('ref_axis',(0.,-1.,0.));
#860=DIRECTION('',(0.,1.,0.));
#861=DIRECTION('',(0.,0.,1.));
#862=DIRECTION('',(0.,-1.,0.));
#863=DIRECTION('center_axis',(-1.,0.,0.));
#864=DIRECTION('ref_axis',(0.,-1.,0.));
#865=DIRECTION('',(0.,-1.,0.));
#866=DIRECTION('',(0.,0.,1.));
#867=DIRECTION('',(0.,-1.,0.));
#868=DIRECTION('',(0.,0.,1.));
#869=DIRECTION('center_axis',(0.,-1.,0.));
#870=DIRECTION('ref_axis',(1.,0.,0.));
#871=DIRECTION('',(1.,0.,0.));
#872=DIRECTION('',(1.,0.,0.));
#873=DIRECTION('',(0.,0.,1.));
#874=DIRECTION('center_axis',(1.,0.,0.));
#875=DIRECTION('ref_axis',(0.,1.,0.));
#876=DIRECTION('',(0.,1.,0.));
#877=DIRECTION('',(0.,1.,0.));
#878=DIRECTION('',(0.,0.,1.));
#879=DIRECTION('center_axis',(0.,1.,0.));
#880=DIRECTION('ref_axis',(-1.,0.,0.));
#881=DIRECTION('',(-1.,0.,0.));
#882=DIRECTION('',(-1.,0.,0.));
#883=DIRECTION('center_axis',(-1.,0.,0.));
#884=DIRECTION('ref_axis',(0.,-1.,0.));
#885=DIRECTION('',(0.,-1.,0.));
#886=DIRECTION('',(0.,0.,1.));
#887=DIRECTION('',(0.,-1.,0.));
#888=DIRECTION('',(0.,0.,1.));
#889=DIRECTION('center_axis',(0.,-1.,0.));
#890=DIRECTION('ref_axis',(1.,0.,0.));
#891=DIRECTION('',(1.,0.,0.));
#892=DIRECTION('',(1.,0.,0.));
#893=DIRECTION('',(0.,0.,1.));
#894=DIRECTION('center_axis',(1.,0.,0.));
#895=DIRECTION('ref_axis',(0.,1.,0.));
#896=DIRECTION('',(0.,1.,0.));
#897=DIRECTION('',(0.,1.,0.));
#898=DIRECTION('',(0.,0.,1.));
#899=DIRECTION('center_axis',(0.,1.,0.));
#900=DIRECTION('ref_axis',(-1.,0.,0.));
#901=DIRECTION('',(-1.,0.,0.));
#902=DIRECTION('',(-1.,0.,0.));
#903=DIRECTION('center_axis',(1.,0.,0.));
#904=DIRECTION('ref_axis',(0.,1.,0.));
#905=DIRECTION('',(0.,-1.,0.));
#906=DIRECTION('',(0.,1.,0.));
#907=DIRECTION('',(0.,0.,1.));
#908=DIRECTION('center_axis',(0.,-1.,0.));
#909=DIRECTION('ref_axis',(1.,0.,0.));
#910=DIRECTION('',(-1.,0.,0.));
#911=DIRECTION('',(1.,0.,0.));
#912=DIRECTION('center_axis',(0.,0.,1.));
#913=DIRECTION('ref_axis',(1.,0.,0.));
#914=DIRECTION('center_axis',(-1.,0.,0.));
#915=DIRECTION('ref_axis',(0.,-1.,0.));
#916=DIRECTION('',(0.,1.,0.));
#917=DIRECTION('',(0.,1.,0.));
#918=DIRECTION('center_axis',(1.,0.,0.));
#919=DIRECTION('ref_axis',(0.,1.,0.));
#920=DIRECTION('',(0.,-1.,0.));
#921=DIRECTION('',(0.,-1.,0.));
#922=DIRECTION('center_axis',(0.,0.,1.));
#923=DIRECTION('ref_axis',(1.,0.,0.));
#924=DIRECTION('center_axis',(0.,0.,1.));
#925=DIRECTION('ref_axis',(1.,0.,0.));
#926=CARTESIAN_POINT('',(0.,0.,0.));
#927=CARTESIAN_POINT('Origin',(35.0000005215406,58.0000008642673,1.00000001490116));
#928=CARTESIAN_POINT('',(35.0000005215406,58.0000008642673,0.));
#929=CARTESIAN_POINT('',(35.0000005215406,58.0000008642673,1.00000001490116));
#930=CARTESIAN_POINT('',(35.0000005215406,58.0000008642673,1.00000001490116));
#931=CARTESIAN_POINT('',(60.0000005215406,58.0000008642673,0.));
#932=CARTESIAN_POINT('',(35.0000005215406,58.0000008642673,0.));
#933=CARTESIAN_POINT('',(60.0000005215406,58.0000008642673,1.00000001490116));
#934=CARTESIAN_POINT('',(60.0000005215406,58.0000008642673,0.));
#935=CARTESIAN_POINT('',(35.0000005215406,58.0000008642673,1.00000001490116));
#936=CARTESIAN_POINT('Origin',(60.0000005215406,59.0000004321337,0.500000007450581));
#937=CARTESIAN_POINT('',(60.0000005215406,60.,0.));
#938=CARTESIAN_POINT('',(60.0000005215406,60.,0.));
#939=CARTESIAN_POINT('',(60.0000005215406,60.,1.00000001490116));
#940=CARTESIAN_POINT('',(60.0000005215406,60.,1.00000001490116));
#941=CARTESIAN_POINT('',(60.0000005215406,58.0000008642673,1.00000001490116));
#942=CARTESIAN_POINT('Origin',(25.000000372529,58.0000008642673,0.));
#943=CARTESIAN_POINT('',(25.000000372529,58.0000008642673,1.00000001490116));
#944=CARTESIAN_POINT('',(25.000000372529,58.0000008642673,0.));
#945=CARTESIAN_POINT('',(25.000000372529,58.0000008642673,0.));
#946=CARTESIAN_POINT('',(3.72529029846191E-7,58.0000008642673,1.00000001490116));
#947=CARTESIAN_POINT('',(25.000000372529,58.0000008642673,1.00000001490116));
#948=CARTESIAN_POINT('',(3.72529029846191E-7,58.0000008642673,0.));
#949=CARTESIAN_POINT('',(3.72529029846191E-7,58.0000008642673,1.00000001490116));
#950=CARTESIAN_POINT('',(25.000000372529,58.0000008642673,0.));
#951=CARTESIAN_POINT('Origin',(3.72529029846191E-7,59.0000004321337,0.500000007450581));
#952=CARTESIAN_POINT('',(3.72529029846191E-7,60.,0.));
#953=CARTESIAN_POINT('',(3.72529029846191E-7,58.0000008642673,0.));
#954=CARTESIAN_POINT('',(3.72529029846191E-7,60.,1.00000001490116));
#955=CARTESIAN_POINT('',(3.72529029846191E-7,60.,1.00000001490116));
#956=CARTESIAN_POINT('',(3.72529029846191E-7,60.,0.));
#957=CARTESIAN_POINT('Origin',(25.000000372529,-83.0000012367964,1.00000001490116));
#958=CARTESIAN_POINT('',(25.000000372529,-83.0000012367964,0.));
#959=CARTESIAN_POINT('',(25.000000372529,-83.0000012367964,1.00000001490116));
#960=CARTESIAN_POINT('',(25.000000372529,-83.0000012367964,1.00000001490116));
#961=CARTESIAN_POINT('',(3.72529029846191E-7,-83.0000012367964,0.));
#962=CARTESIAN_POINT('',(25.000000372529,-83.0000012367964,0.));
#963=CARTESIAN_POINT('',(3.72529029846191E-7,-83.0000012367964,1.00000001490116));
#964=CARTESIAN_POINT('',(3.72529029846191E-7,-83.0000012367964,0.));
#965=CARTESIAN_POINT('',(25.000000372529,-83.0000012367964,1.00000001490116));
#966=CARTESIAN_POINT('Origin',(3.72529029846191E-7,-84.0000006183982,0.500000007450581));
#967=CARTESIAN_POINT('',(3.72529029846191E-7,-85.,1.00000001490116));
#968=CARTESIAN_POINT('',(3.72529029846191E-7,-83.0000012367964,1.00000001490116));
#969=CARTESIAN_POINT('',(3.72529029846191E-7,-85.,0.));
#970=CARTESIAN_POINT('',(3.72529029846191E-7,-85.,0.));
#971=CARTESIAN_POINT('',(3.72529029846191E-7,-85.,1.00000001490116));
#972=CARTESIAN_POINT('Origin',(35.0000005215406,-83.0000012367964,0.));
#973=CARTESIAN_POINT('',(35.0000005215406,-83.0000012367964,1.00000001490116));
#974=CARTESIAN_POINT('',(35.0000005215406,-83.0000012367964,0.));
#975=CARTESIAN_POINT('',(35.0000005215406,-83.0000012367964,0.));
#976=CARTESIAN_POINT('',(60.0000005215406,-83.0000012367964,1.00000001490116));
#977=CARTESIAN_POINT('',(35.0000005215406,-83.0000012367964,1.00000001490116));
#978=CARTESIAN_POINT('',(60.0000005215406,-83.0000012367964,0.));
#979=CARTESIAN_POINT('',(60.0000005215406,-83.0000012367964,1.00000001490116));
#980=CARTESIAN_POINT('',(35.0000005215406,-83.0000012367964,0.));
#981=CARTESIAN_POINT('Origin',(60.0000005215406,-84.0000006183982,0.500000007450581));
#982=CARTESIAN_POINT('',(60.0000005215406,-85.,0.));
#983=CARTESIAN_POINT('',(60.0000005215406,-83.0000012367964,0.));
#984=CARTESIAN_POINT('',(60.0000005215406,-85.,1.00000001490116));
#985=CARTESIAN_POINT('',(60.0000005215406,-85.,1.00000001490116));
#986=CARTESIAN_POINT('',(60.0000005215406,-85.,0.));
#987=CARTESIAN_POINT('Origin',(35.0000005215406,10.,1.00000001490116));
#988=CARTESIAN_POINT('',(35.0000005215406,10.,1.00000001490116));
#989=CARTESIAN_POINT('',(35.0000005215406,10.,1.00000001490116));
#990=CARTESIAN_POINT('',(35.0000005215406,10.,0.));
#991=CARTESIAN_POINT('',(35.0000005215406,10.,0.500000007450581));
#992=CARTESIAN_POINT('',(35.0000005215406,10.,0.));
#993=CARTESIAN_POINT('Origin',(25.000000372529,10.,1.00000001490116));
#994=CARTESIAN_POINT('',(25.000000372529,10.,1.00000001490116));
#995=CARTESIAN_POINT('',(42.5000001862645,10.,1.00000001490116));
#996=CARTESIAN_POINT('',(25.000000372529,60.,1.00000001490116));
#997=CARTESIAN_POINT('',(25.000000372529,10.,1.00000001490116));
#998=CARTESIAN_POINT('Origin',(25.000000372529,10.,0.));
#999=CARTESIAN_POINT('',(25.000000372529,10.,0.));
#1000=CARTESIAN_POINT('',(25.000000372529,10.,0.));
#1001=CARTESIAN_POINT('',(25.000000372529,10.,0.));
#1002=CARTESIAN_POINT('Origin',(30.0000004470348,60.,0.500000007450581));
#1003=CARTESIAN_POINT('',(35.0000005215406,60.,0.));
#1004=CARTESIAN_POINT('Origin',(35.0000005215406,-35.,1.00000001490116));
#1005=CARTESIAN_POINT('',(25.000000372529,-35.,1.00000001490116));
#1006=CARTESIAN_POINT('',(35.0000005215406,-35.,1.00000001490116));
#1007=CARTESIAN_POINT('',(17.5000002607703,-35.,1.00000001490116));
#1008=CARTESIAN_POINT('',(25.000000372529,-35.,1.00000001490116));
#1009=CARTESIAN_POINT('',(35.0000005215406,-85.,1.00000001490116));
#1010=CARTESIAN_POINT('',(35.0000005215406,-35.,1.00000001490116));
#1011=CARTESIAN_POINT('Origin',(35.0000005215406,-35.,0.));
#1012=CARTESIAN_POINT('',(35.0000005215406,-35.,0.));
#1013=CARTESIAN_POINT('',(35.0000005215406,-35.,0.));
#1014=CARTESIAN_POINT('',(35.0000005215406,-35.,0.));
#1015=CARTESIAN_POINT('Origin',(25.000000372529,-35.,1.00000001490116));
#1016=CARTESIAN_POINT('',(25.000000372529,-35.,0.));
#1017=CARTESIAN_POINT('',(25.000000372529,-35.,0.500000007450581));
#1018=CARTESIAN_POINT('',(25.000000372529,-35.,0.));
#1019=CARTESIAN_POINT('Origin',(30.0000004470348,-85.,0.500000007450581));
#1020=CARTESIAN_POINT('',(25.000000372529,-85.,0.));
#1021=CARTESIAN_POINT('Origin',(60.,10.,0.));
#1022=CARTESIAN_POINT('',(0.,10.,0.));
#1023=CARTESIAN_POINT('',(0.,10.,0.));
#1024=CARTESIAN_POINT('',(0.,10.,2.));
#1025=CARTESIAN_POINT('',(0.,10.,0.));
#1026=CARTESIAN_POINT('',(60.,10.,2.));
#1027=CARTESIAN_POINT('',(0.,10.,2.));
#1028=CARTESIAN_POINT('',(60.,10.,0.));
#1029=CARTESIAN_POINT('',(60.,10.,0.));
#1030=CARTESIAN_POINT('',(0.,10.,0.));
#1031=CARTESIAN_POINT('Origin',(0.,-35.,0.));
#1032=CARTESIAN_POINT('',(60.,-35.,0.));
#1033=CARTESIAN_POINT('',(60.,-35.,0.));
#1034=CARTESIAN_POINT('',(60.,-35.,2.));
#1035=CARTESIAN_POINT('',(60.,-35.,0.));
#1036=CARTESIAN_POINT('',(0.,-35.,2.));
#1037=CARTESIAN_POINT('',(60.,-35.,2.));
#1038=CARTESIAN_POINT('',(0.,-35.,0.));
#1039=CARTESIAN_POINT('',(0.,-35.,0.));
#1040=CARTESIAN_POINT('',(60.,-35.,0.));
#1041=CARTESIAN_POINT('Origin',(55.,-5.,0.));
#1042=CARTESIAN_POINT('',(5.,-5.,2.));
#1043=CARTESIAN_POINT('',(55.,-5.,2.));
#1044=CARTESIAN_POINT('',(5.,-5.,2.));
#1045=CARTESIAN_POINT('',(5.,-5.,5.));
#1046=CARTESIAN_POINT('',(5.,-5.,0.));
#1047=CARTESIAN_POINT('',(55.,-5.,5.));
#1048=CARTESIAN_POINT('',(5.,-5.,5.));
#1049=CARTESIAN_POINT('',(55.,-5.,0.));
#1050=CARTESIAN_POINT('Origin',(5.,-5.,0.));
#1051=CARTESIAN_POINT('',(5.,-20.,2.));
#1052=CARTESIAN_POINT('',(5.,-20.,2.));
#1053=CARTESIAN_POINT('',(5.,-20.,5.));
#1054=CARTESIAN_POINT('',(5.,-20.,0.));
#1055=CARTESIAN_POINT('',(5.,-20.,5.));
#1056=CARTESIAN_POINT('Origin',(45.,-10.4999999403954,0.));
#1057=CARTESIAN_POINT('',(45.,-10.4999999403954,0.));
#1058=CARTESIAN_POINT('',(45.,-14.5,0.));
#1059=CARTESIAN_POINT('',(45.,-10.4999999403954,0.));
#1060=CARTESIAN_POINT('',(45.,-14.5,5.));
#1061=CARTESIAN_POINT('',(45.,-14.5,0.));
#1062=CARTESIAN_POINT('',(45.,-10.4999999403954,5.));
#1063=CARTESIAN_POINT('',(45.,-10.4999999403954,5.));
#1064=CARTESIAN_POINT('',(45.,-10.4999999403954,0.));
#1065=CARTESIAN_POINT('Origin',(41.,-10.4999999403954,0.));
#1066=CARTESIAN_POINT('',(41.,-10.4999999403954,0.));
#1067=CARTESIAN_POINT('',(41.,-10.4999999403954,0.));
#1068=CARTESIAN_POINT('',(41.,-10.4999999403954,5.));
#1069=CARTESIAN_POINT('',(41.,-10.4999999403954,5.));
#1070=CARTESIAN_POINT('',(41.,-10.4999999403954,0.));
#1071=CARTESIAN_POINT('Origin',(41.,-14.5,0.));
#1072=CARTESIAN_POINT('',(41.,-14.5,0.));
#1073=CARTESIAN_POINT('',(41.,-14.5,0.));
#1074=CARTESIAN_POINT('',(41.,-14.5,5.));
#1075=CARTESIAN_POINT('',(41.,-14.5,5.));
#1076=CARTESIAN_POINT('',(41.,-14.5,0.));
#1077=CARTESIAN_POINT('Origin',(45.,-14.5,0.));
#1078=CARTESIAN_POINT('',(45.,-14.5,0.));
#1079=CARTESIAN_POINT('',(45.,-14.5,5.));
#1080=CARTESIAN_POINT('Origin',(19.0000000596046,-10.5,0.));
#1081=CARTESIAN_POINT('',(19.0000000596046,-10.5,0.));
#1082=CARTESIAN_POINT('',(19.0000000596046,-14.5000000596046,0.));
#1083=CARTESIAN_POINT('',(19.0000000596046,-10.5,0.));
#1084=CARTESIAN_POINT('',(19.0000000596046,-14.5000000596046,5.));
#1085=CARTESIAN_POINT('',(19.0000000596046,-14.5000000596046,0.));
#1086=CARTESIAN_POINT('',(19.0000000596046,-10.5,5.));
#1087=CARTESIAN_POINT('',(19.0000000596046,-10.5,5.));
#1088=CARTESIAN_POINT('',(19.0000000596046,-10.5,0.));
#1089=CARTESIAN_POINT('Origin',(15.,-10.5,0.));
#1090=CARTESIAN_POINT('',(15.,-10.5,0.));
#1091=CARTESIAN_POINT('',(15.,-10.5,0.));
#1092=CARTESIAN_POINT('',(15.,-10.5,5.));
#1093=CARTESIAN_POINT('',(15.,-10.5,5.));
#1094=CARTESIAN_POINT('',(15.,-10.5,0.));
#1095=CARTESIAN_POINT('Origin',(15.,-14.5000000596046,0.));
#1096=CARTESIAN_POINT('',(15.,-14.5000000596046,0.));
#1097=CARTESIAN_POINT('',(15.,-14.5000000596046,0.));
#1098=CARTESIAN_POINT('',(15.,-14.5000000596046,5.));
#1099=CARTESIAN_POINT('',(15.,-14.5000000596046,5.));
#1100=CARTESIAN_POINT('',(15.,-14.5000000596046,0.));
#1101=CARTESIAN_POINT('Origin',(19.0000000596046,-14.5000000596046,0.));
#1102=CARTESIAN_POINT('',(19.0000000596046,-14.5000000596046,0.));
#1103=CARTESIAN_POINT('',(19.0000000596046,-14.5000000596046,5.));
#1104=CARTESIAN_POINT('Origin',(55.,-20.,0.));
#1105=CARTESIAN_POINT('',(55.,-20.,2.));
#1106=CARTESIAN_POINT('',(55.,-5.,2.));
#1107=CARTESIAN_POINT('',(55.,-20.,5.));
#1108=CARTESIAN_POINT('',(55.,-5.,5.));
#1109=CARTESIAN_POINT('',(55.,-20.,0.));
#1110=CARTESIAN_POINT('Origin',(5.,-20.,0.));
#1111=CARTESIAN_POINT('',(55.,-20.,2.));
#1112=CARTESIAN_POINT('',(55.,-20.,5.));
#1113=CARTESIAN_POINT('Origin',(30.,-12.5,5.));
#1114=CARTESIAN_POINT('Origin',(0.,0.,0.));
#1115=CARTESIAN_POINT('',(0.,0.,0.));
#1116=CARTESIAN_POINT('',(0.,0.,2.));
#1117=CARTESIAN_POINT('Origin',(60.,-25.,0.));
#1118=CARTESIAN_POINT('',(60.,-25.,0.));
#1119=CARTESIAN_POINT('',(60.,-25.,2.));
#1120=CARTESIAN_POINT('Origin',(30.,-12.5,2.));
#1121=CARTESIAN_POINT('Origin',(30.,-12.5,0.));
#1122=UNCERTAINTY_MEASURE_WITH_UNIT(LENGTH_MEASURE(0.01),#1126,
'DISTANCE_ACCURACY_VALUE',
'Maximum model space distance between geometric entities at asserted c
onnectivities');
#1123=UNCERTAINTY_MEASURE_WITH_UNIT(LENGTH_MEASURE(0.01),#1126,
'DISTANCE_ACCURACY_VALUE',
'Maximum model space distance between geometric entities at asserted c
onnectivities');
#1124=(
GEOMETRIC_REPRESENTATION_CONTEXT(3)
GLOBAL_UNCERTAINTY_ASSIGNED_CONTEXT((#1122))
GLOBAL_UNIT_ASSIGNED_CONTEXT((#1126,#1128,#1129))
REPRESENTATION_CONTEXT('','3D')
);
#1125=(
GEOMETRIC_REPRESENTATION_CONTEXT(3)
GLOBAL_UNCERTAINTY_ASSIGNED_CONTEXT((#1123))
GLOBAL_UNIT_ASSIGNED_CONTEXT((#1126,#1128,#1129))
REPRESENTATION_CONTEXT('','3D')
);
#1126=(
LENGTH_UNIT()
NAMED_UNIT(*)
SI_UNIT(.MILLI.,.METRE.)
);
#1127=(
LENGTH_UNIT()
NAMED_UNIT(*)
SI_UNIT($,.METRE.)
);
#1128=(
NAMED_UNIT(*)
PLANE_ANGLE_UNIT()
SI_UNIT($,.RADIAN.)
);
#1129=(
NAMED_UNIT(*)
SI_UNIT($,.STERADIAN.)
SOLID_ANGLE_UNIT()
);
#1130=SHAPE_DEFINITION_REPRESENTATION(#1131,#1132);
#1131=PRODUCT_DEFINITION_SHAPE('',$,#1134);
#1132=SHAPE_REPRESENTATION('',(#722),#1124);
#1133=PRODUCT_DEFINITION_CONTEXT('part definition',#1138,'design');
#1134=PRODUCT_DEFINITION('2026-08-07-14-23-12-685',
'Ventillator Halterung',#1135,#1133);
#1135=PRODUCT_DEFINITION_FORMATION('',$,#1140);
#1136=PRODUCT_RELATED_PRODUCT_CATEGORY('Ventillator Halterung',
'Ventillator Halterung',(#1140));
#1137=APPLICATION_PROTOCOL_DEFINITION('international standard',
'automotive_design',2009,#1138);
#1138=APPLICATION_CONTEXT(
'Core Data for Automotive Mechanical Design Process');
#1139=PRODUCT_CONTEXT('part definition',#1138,'mechanical');
#1140=PRODUCT('2026-08-07-14-23-12-685','Ventillator Halterung',$,(#1139));
#1141=PRESENTATION_STYLE_ASSIGNMENT((#1142));
#1142=SURFACE_STYLE_USAGE(.BOTH.,#1143);
#1143=SURFACE_SIDE_STYLE('',(#1144));
#1144=SURFACE_STYLE_FILL_AREA(#1145);
#1145=FILL_AREA_STYLE('Steel - Satin',(#1146));
#1146=FILL_AREA_STYLE_COLOUR('Steel - Satin',#1147);
#1147=COLOUR_RGB('Steel - Satin',0.627450980392157,0.627450980392157,0.627450980392157);
ENDSEC;
END-ISO-10303-21;
